<?xml version="1.0" encoding="UTF-8" standalone="no"?>
<!-- Created with Inkscape (http://www.inkscape.org/) -->

<svg
   xmlns:dc="http://purl.org/dc/elements/1.1/"
   xmlns:cc="http://creativecommons.org/ns#"
   xmlns:rdf="http://www.w3.org/1999/02/22-rdf-syntax-ns#"
   xmlns:svg="http://www.w3.org/2000/svg"
   xmlns="http://www.w3.org/2000/svg"
   xmlns:sodipodi="http://sodipodi.sourceforge.net/DTD/sodipodi-0.dtd"
   xmlns:inkscape="http://www.inkscape.org/namespaces/inkscape"
   id="svg2"
   version="1.1"
   inkscape:version="0.47 r22583"
   width="204.53"
   height="171.00999"
   xml:space="preserve"
   sodipodi:docname="balance.svg"><metadata
     id="metadata8"><rdf:RDF><cc:Work
         rdf:about=""><dc:format>image/svg+xml</dc:format><dc:type
           rdf:resource="http://purl.org/dc/dcmitype/StillImage" /><dc:title /></cc:Work></rdf:RDF></metadata><defs
     id="defs6"><inkscape:perspective
       sodipodi:type="inkscape:persp3d"
       inkscape:vp_x="0 : 0.5 : 1"
       inkscape:vp_y="0 : 1000 : 0"
       inkscape:vp_z="1 : 0.5 : 1"
       inkscape:persp3d-origin="0.5 : 0.33333333 : 1"
       id="perspective10" /></defs><sodipodi:namedview
     pagecolor="#ffffff"
     bordercolor="#666666"
     borderopacity="1"
     objecttolerance="10"
     gridtolerance="10"
     guidetolerance="10"
     inkscape:pageopacity="0"
     inkscape:pageshadow="2"
     inkscape:window-width="1200"
     inkscape:window-height="1895"
     id="namedview4"
     showgrid="false"
     inkscape:zoom="3.8141414"
     inkscape:cx="121.17671"
     inkscape:cy="6.5553585"
     inkscape:window-x="0"
     inkscape:window-y="0"
     inkscape:window-maximized="1"
     inkscape:current-layer="g12" /><g
     id="g12"
     inkscape:groupmode="layer"
     inkscape:label="ink_ext_XXXXXX"
     transform="matrix(1.25,0,0,-1.25,-76.726963,998.63902)"><path
       id="path18"
       style="fill:none;stroke:#e90000;stroke-width:2.83465004;stroke-linecap:butt;stroke-linejoin:miter;stroke-miterlimit:2.61310005;stroke-opacity:1;stroke-dasharray:5.6693, 2.83465;stroke-dashoffset:0"
       d="M 158.338,724.692 86.0453,708.364" /><path
       id="path20"
       style="fill:none;stroke:#e90000;stroke-width:2.83465004;stroke-linecap:butt;stroke-linejoin:miter;stroke-miterlimit:2.61310005;stroke-opacity:1;stroke-dasharray:5.6693, 2.83465;stroke-dashoffset:0"
       d="M 106.466,766.114 215.36,735.803" /><path
       id="path22"
       style="fill:none;stroke:#e90000;stroke-width:2.83465004;stroke-linecap:butt;stroke-linejoin:miter;stroke-miterlimit:2.61310005;stroke-opacity:1;stroke-dasharray:5.6693, 2.83465;stroke-dashoffset:0"
       d="M 164.82,779.661 106.466,766.114" /><path
       id="path24"
       style="fill:none;stroke:#e90000;stroke-width:2.83465004;stroke-linecap:butt;stroke-linejoin:miter;stroke-miterlimit:2.61310005;stroke-opacity:1;stroke-dasharray:5.6693, 2.83465;stroke-dashoffset:0"
       d="m 121.315,674.156 37.023,50.536" /><path
       id="path26"
       style="fill:none;stroke:#e90000;stroke-width:2.83465004;stroke-linecap:butt;stroke-linejoin:miter;stroke-miterlimit:2.61310005;stroke-opacity:1;stroke-dasharray:5.6693, 2.83465;stroke-dashoffset:0"
       d="m 106.466,766.114 51.872,-41.422" /><path
       id="path28"
       style="fill:none;stroke:#00c800;stroke-width:2.83465004;stroke-linecap:butt;stroke-linejoin:miter;stroke-miterlimit:2.61310005;stroke-opacity:1;stroke-dasharray:none"
       d="m 59.3152,763.277 18.502,15.115" /><path
       id="path30"
       style="fill:none;stroke:#00c800;stroke-width:2.83465004;stroke-linecap:butt;stroke-linejoin:miter;stroke-miterlimit:2.61310005;stroke-opacity:1;stroke-dasharray:none"
       d="M 227.35761,704.39198 215.36,735.803"
       sodipodi:nodetypes="cc" /><path
       id="path32"
       style="fill:none;stroke:#00c800;stroke-width:2.83465004;stroke-linecap:butt;stroke-linejoin:miter;stroke-miterlimit:2.61310005;stroke-opacity:1;stroke-dasharray:none"
       d="M 227.36734,735.85 215.36,735.803"
       sodipodi:nodetypes="cc" /><path
       id="path34"
       style="fill:none;stroke:#00c800;stroke-width:2.83465004;stroke-linecap:butt;stroke-linejoin:miter;stroke-miterlimit:2.61310005;stroke-opacity:1;stroke-dasharray:none"
       d="m 106.466,766.114 9.81953,33.97761"
       sodipodi:nodetypes="cc" /><path
       id="path36"
       style="fill:none;stroke:#00c800;stroke-width:2.83465004;stroke-linecap:butt;stroke-linejoin:miter;stroke-miterlimit:2.61310005;stroke-opacity:1;stroke-dasharray:none"
       d="m 164.82,779.661 23.45763,20.6531"
       sodipodi:nodetypes="cc" /><path
       id="path38"
       style="fill:none;stroke:#00c800;stroke-width:2.83465004;stroke-linecap:butt;stroke-linejoin:miter;stroke-miterlimit:2.61310005;stroke-opacity:1;stroke-dasharray:none"
       d="m 121.315,674.156 4.21253,-14.6248"
       sodipodi:nodetypes="cc" /><path
       id="path40"
       style="fill:none;stroke:#00c800;stroke-width:2.83465004;stroke-linecap:butt;stroke-linejoin:miter;stroke-miterlimit:2.61310005;stroke-opacity:1;stroke-dasharray:none"
       d="m 121.315,674.156 -50.0166,2.605" /><path
       id="path42"
       style="fill:none;stroke:#00c800;stroke-width:2.83465004;stroke-linecap:butt;stroke-linejoin:miter;stroke-miterlimit:2.61310005;stroke-opacity:1;stroke-dasharray:none"
       d="M 71.2984,676.761 59.474192,694.08658"
       sodipodi:nodetypes="cc" /><path
       id="path44"
       style="fill:none;stroke:#00c800;stroke-width:2.83465004;stroke-linecap:butt;stroke-linejoin:miter;stroke-miterlimit:2.61310005;stroke-opacity:1;stroke-dasharray:none"
       d="M 72.0801,659.95069 71.2984,676.761"
       sodipodi:nodetypes="cc" /><path
       id="path46"
       style="fill:none;stroke:#00c800;stroke-width:2.83465004;stroke-linecap:butt;stroke-linejoin:miter;stroke-miterlimit:2.61310005;stroke-opacity:1;stroke-dasharray:none"
       d="M 86.0453,708.364 71.2984,676.761" /><path
       id="path48"
       style="fill:none;stroke:#00c800;stroke-width:2.83465004;stroke-linecap:butt;stroke-linejoin:miter;stroke-miterlimit:2.61310005;stroke-opacity:1;stroke-dasharray:none"
       d="M 75.7801,799.66588 77.8172,778.392"
       sodipodi:nodetypes="cc" /><path
       id="path50"
       style="fill:none;stroke:#00c800;stroke-width:2.83465004;stroke-linecap:butt;stroke-linejoin:miter;stroke-miterlimit:2.61310005;stroke-opacity:1;stroke-dasharray:none"
       d="M 109.36392,800.93059 77.8172,778.392"
       sodipodi:nodetypes="cc" /><path
       id="path52"
       style="fill:none;stroke:#00c800;stroke-width:2.83465004;stroke-linecap:butt;stroke-linejoin:miter;stroke-miterlimit:2.61310005;stroke-opacity:1;stroke-dasharray:none"
       d="m 86.0453,708.364 -8.2281,70.028" /><path
       id="path54"
       style="fill:none;stroke:#00c800;stroke-width:2.83465004;stroke-linecap:butt;stroke-linejoin:miter;stroke-miterlimit:2.61310005;stroke-opacity:1;stroke-dasharray:none"
       d="M 77.8172,778.392 106.466,766.114" /><path
       id="path56"
       style="fill:none;stroke:#00c800;stroke-width:2.83465004;stroke-linecap:butt;stroke-linejoin:miter;stroke-miterlimit:2.61310005;stroke-opacity:1;stroke-dasharray:none"
       d="M 106.466,766.114 86.0453,708.364" /><path
       id="path58"
       style="fill:none;stroke:#00c800;stroke-width:2.83465004;stroke-linecap:butt;stroke-linejoin:miter;stroke-miterlimit:2.61310005;stroke-opacity:1;stroke-dasharray:none"
       d="m 121.315,674.156 -14.849,91.958" /><path
       id="path60"
       style="fill:none;stroke:#00c800;stroke-width:2.83465004;stroke-linecap:butt;stroke-linejoin:miter;stroke-miterlimit:2.61310005;stroke-opacity:1;stroke-dasharray:none"
       d="M 121.315,674.156 86.0453,708.364" /><path
       id="path62"
       style="fill:none;stroke:#00c800;stroke-width:2.83465004;stroke-linecap:butt;stroke-linejoin:miter;stroke-miterlimit:2.61310005;stroke-opacity:1;stroke-dasharray:none"
       d="m 185.92,681.711 40.5551,5.98527"
       sodipodi:nodetypes="cc" /><path
       id="path64"
       style="fill:none;stroke:#00c800;stroke-width:2.83465004;stroke-linecap:butt;stroke-linejoin:miter;stroke-miterlimit:2.61310005;stroke-opacity:1;stroke-dasharray:none"
       d="m 185.92,681.711 15.61829,-22.04078"
       sodipodi:nodetypes="cc" /><path
       id="path66"
       style="fill:none;stroke:#00c800;stroke-width:2.83465004;stroke-linecap:butt;stroke-linejoin:miter;stroke-miterlimit:2.61310005;stroke-opacity:1;stroke-dasharray:none"
       d="m 226.88386,776.54725 -62.32433,3.01197"
       sodipodi:nodetypes="cc" /><path
       id="path68"
       style="fill:none;stroke:#00c800;stroke-width:2.83465004;stroke-linecap:butt;stroke-linejoin:miter;stroke-miterlimit:2.61310005;stroke-opacity:1;stroke-dasharray:none"
       d="m 215.36,735.803 -50.54,43.858"
       sodipodi:nodetypes="cc" /><path
       id="path70"
       style="fill:none;stroke:#00c800;stroke-width:2.83465004;stroke-linecap:butt;stroke-linejoin:miter;stroke-miterlimit:2.61310005;stroke-opacity:1;stroke-dasharray:none"
       d="M 164.82,779.45125 158.338,724.692"
       sodipodi:nodetypes="cc" /><path
       id="path72"
       style="fill:none;stroke:#00c800;stroke-width:2.83465004;stroke-linecap:butt;stroke-linejoin:miter;stroke-miterlimit:2.61310005;stroke-opacity:1;stroke-dasharray:none"
       d="M 215.36,735.803 158.338,724.692" /><path
       id="path74"
       style="fill:none;stroke:#00c800;stroke-width:2.83465004;stroke-linecap:butt;stroke-linejoin:miter;stroke-miterlimit:2.61310005;stroke-opacity:1;stroke-dasharray:none"
       d="m 185.92,681.711 29.44,54.092" /><path
       id="path76"
       style="fill:none;stroke:#00c800;stroke-width:2.83465004;stroke-linecap:butt;stroke-linejoin:miter;stroke-miterlimit:2.61310005;stroke-opacity:1;stroke-dasharray:none"
       d="m 185.92,681.711 -27.582,42.981" /><path
       id="path78"
       style="fill:none;stroke:#e90000;stroke-width:2.83465004;stroke-linecap:butt;stroke-linejoin:miter;stroke-miterlimit:2.61310005;stroke-opacity:1;stroke-dasharray:5.6693, 2.83465;stroke-dashoffset:0"
       d="m 185.92,681.711 -64.605,-7.555" /><path
       id="path108"
       style="fill:#231f20;fill-opacity:1;fill-rule:evenodd;stroke:none"
       d="m 121.315,677.804 c 2.009,0 3.647,-1.639 3.647,-3.648 0,-2.008 -1.638,-3.647 -3.647,-3.647 -2.008,0 -3.647,1.639 -3.647,3.647 0,2.009 1.639,3.648 3.647,3.648" /><path
       id="path110"
       style="fill:none;stroke:#231f20;stroke-width:0.21600001;stroke-linecap:butt;stroke-linejoin:miter;stroke-miterlimit:2.61310005;stroke-opacity:1;stroke-dasharray:none"
       d="m 121.315,677.804 c 2.009,0 3.647,-1.639 3.647,-3.648 0,-2.008 -1.638,-3.647 -3.647,-3.647 -2.008,0 -3.647,1.639 -3.647,3.647 0,2.009 1.639,3.648 3.647,3.648 z" /><path
       id="path112"
       style="fill:#231f20;fill-opacity:1;fill-rule:evenodd;stroke:none"
       d="m 77.8172,782.039 c 2.009,0 3.6473,-1.638 3.6473,-3.647 0,-2.008 -1.6383,-3.647 -3.6473,-3.647 -2.0086,0 -3.6469,1.639 -3.6469,3.647 0,2.009 1.6383,3.647 3.6469,3.647" /><path
       id="path114"
       style="fill:none;stroke:#231f20;stroke-width:0.21600001;stroke-linecap:butt;stroke-linejoin:miter;stroke-miterlimit:2.61310005;stroke-opacity:1;stroke-dasharray:none"
       d="m 77.8172,782.039 c 2.009,0 3.6473,-1.638 3.6473,-3.647 0,-2.008 -1.6383,-3.647 -3.6473,-3.647 -2.0086,0 -3.6469,1.639 -3.6469,3.647 0,2.009 1.6383,3.647 3.6469,3.647 z" /><path
       id="path116"
       style="fill:#231f20;fill-opacity:1;fill-rule:evenodd;stroke:none"
       d="m 158.338,728.339 c 2.008,0 3.647,-1.639 3.647,-3.647 0,-2.009 -1.639,-3.647 -3.647,-3.647 -2.009,0 -3.647,1.638 -3.647,3.647 0,2.008 1.638,3.647 3.647,3.647" /><path
       id="path118"
       style="fill:none;stroke:#231f20;stroke-width:0.21600001;stroke-linecap:butt;stroke-linejoin:miter;stroke-miterlimit:2.61310005;stroke-opacity:1;stroke-dasharray:none"
       d="m 158.338,728.339 c 2.008,0 3.647,-1.639 3.647,-3.647 0,-2.009 -1.639,-3.647 -3.647,-3.647 -2.009,0 -3.647,1.638 -3.647,3.647 0,2.008 1.638,3.647 3.647,3.647 z" /><path
       id="path120"
       style="fill:#231f20;fill-opacity:1;fill-rule:evenodd;stroke:none"
       d="m 215.36,739.45 c 2.009,0 3.647,-1.639 3.647,-3.647 0,-2.009 -1.638,-3.648 -3.647,-3.648 -2.008,0 -3.647,1.639 -3.647,3.648 0,2.008 1.639,3.647 3.647,3.647" /><path
       id="path122"
       style="fill:none;stroke:#231f20;stroke-width:0.21600001;stroke-linecap:butt;stroke-linejoin:miter;stroke-miterlimit:2.61310005;stroke-opacity:1;stroke-dasharray:none"
       d="m 215.36,739.45 c 2.009,0 3.647,-1.639 3.647,-3.647 0,-2.009 -1.638,-3.648 -3.647,-3.648 -2.008,0 -3.647,1.639 -3.647,3.648 0,2.008 1.639,3.647 3.647,3.647 z" /><path
       id="path124"
       style="fill:#231f20;fill-opacity:1;fill-rule:evenodd;stroke:none"
       d="m 185.92,685.358 c 2.009,0 3.647,-1.638 3.647,-3.647 0,-2.009 -1.638,-3.647 -3.647,-3.647 -2.008,0 -3.647,1.638 -3.647,3.647 0,2.009 1.639,3.647 3.647,3.647" /><path
       id="path126"
       style="fill:none;stroke:#231f20;stroke-width:0.21600001;stroke-linecap:butt;stroke-linejoin:miter;stroke-miterlimit:2.61310005;stroke-opacity:1;stroke-dasharray:none"
       d="m 185.92,685.358 c 2.009,0 3.647,-1.638 3.647,-3.647 0,-2.009 -1.638,-3.647 -3.647,-3.647 -2.008,0 -3.647,1.638 -3.647,3.647 0,2.009 1.639,3.647 3.647,3.647 z" /><path
       id="path128"
       style="fill:#231f20;fill-opacity:1;fill-rule:evenodd;stroke:none"
       d="m 71.2984,680.409 c 2.0086,0 3.6473,-1.639 3.6473,-3.648 0,-2.008 -1.6387,-3.647 -3.6473,-3.647 -2.0086,0 -3.6468,1.639 -3.6468,3.647 0,2.009 1.6382,3.648 3.6468,3.648" /><path
       id="path130"
       style="fill:none;stroke:#231f20;stroke-width:0.21600001;stroke-linecap:butt;stroke-linejoin:miter;stroke-miterlimit:2.61310005;stroke-opacity:1;stroke-dasharray:none"
       d="m 71.2984,680.409 c 2.0086,0 3.6473,-1.639 3.6473,-3.648 0,-2.008 -1.6387,-3.647 -3.6473,-3.647 -2.0086,0 -3.6468,1.639 -3.6468,3.647 0,2.009 1.6382,3.648 3.6468,3.648 z" /><path
       id="path132"
       style="fill:#231f20;fill-opacity:1;fill-rule:evenodd;stroke:none"
       d="m 86.0453,712.011 c 2.009,0 3.6473,-1.639 3.6473,-3.647 0,-2.009 -1.6383,-3.648 -3.6473,-3.648 -2.0086,0 -3.6469,1.639 -3.6469,3.648 0,2.008 1.6383,3.647 3.6469,3.647" /><path
       id="path134"
       style="fill:none;stroke:#231f20;stroke-width:0.21600001;stroke-linecap:butt;stroke-linejoin:miter;stroke-miterlimit:2.61310005;stroke-opacity:1;stroke-dasharray:none"
       d="m 86.0453,712.011 c 2.009,0 3.6473,-1.639 3.6473,-3.647 0,-2.009 -1.6383,-3.648 -3.6473,-3.648 -2.0086,0 -3.6469,1.639 -3.6469,3.648 0,2.008 1.6383,3.647 3.6469,3.647 z" /><path
       id="path136"
       style="fill:#231f20;fill-opacity:1;fill-rule:evenodd;stroke:none"
       d="m 106.466,769.761 c 2.009,0 3.648,-1.638 3.648,-3.647 0,-2.008 -1.639,-3.647 -3.648,-3.647 -2.008,0 -3.646,1.639 -3.646,3.647 0,2.009 1.638,3.647 3.646,3.647" /><path
       id="path138"
       style="fill:none;stroke:#231f20;stroke-width:0.21600001;stroke-linecap:butt;stroke-linejoin:miter;stroke-miterlimit:2.61310005;stroke-opacity:1;stroke-dasharray:none"
       d="m 106.466,769.761 c 2.009,0 3.648,-1.638 3.648,-3.647 0,-2.008 -1.639,-3.647 -3.648,-3.647 -2.008,0 -3.646,1.639 -3.646,3.647 0,2.009 1.638,3.647 3.646,3.647 z" /><path
       id="path140"
       style="fill:#231f20;fill-opacity:1;fill-rule:evenodd;stroke:none"
       d="m 164.82,783.307 c 2.008,0 3.646,-1.638 3.646,-3.646 0,-2.009 -1.638,-3.648 -3.646,-3.648 -2.009,0 -3.648,1.639 -3.648,3.648 0,2.008 1.639,3.646 3.648,3.646" /><path
       id="path142"
       style="fill:none;stroke:#231f20;stroke-width:0.21600001;stroke-linecap:butt;stroke-linejoin:miter;stroke-miterlimit:2.61310005;stroke-opacity:1;stroke-dasharray:none"
       d="m 164.82,783.307 c 2.008,0 3.646,-1.638 3.646,-3.646 0,-2.009 -1.638,-3.648 -3.646,-3.648 -2.009,0 -3.648,1.639 -3.648,3.648 0,2.008 1.639,3.646 3.648,3.646 z" /><path
       id="path16"
       style="fill:none;stroke:#231f20;stroke-width:0.80000001;stroke-linecap:butt;stroke-linejoin:miter;stroke-miterlimit:2.61310005;stroke-opacity:1;stroke-dasharray:none;stroke-dashoffset:0"
       d="m 139.891,802.448 0,-141.5778"
       sodipodi:nodetypes="cc" /></g></svg>