<?xml version="1.0" encoding="UTF-8" standalone="no"?>
<!-- Created with Inkscape (http://www.inkscape.org/) -->

<svg
   xmlns:dc="http://purl.org/dc/elements/1.1/"
   xmlns:cc="http://creativecommons.org/ns#"
   xmlns:rdf="http://www.w3.org/1999/02/22-rdf-syntax-ns#"
   xmlns:svg="http://www.w3.org/2000/svg"
   xmlns="http://www.w3.org/2000/svg"
   xmlns:sodipodi="http://sodipodi.sourceforge.net/DTD/sodipodi-0.dtd"
   xmlns:inkscape="http://www.inkscape.org/namespaces/inkscape"
   id="svg2"
   version="1.1"
   inkscape:version="0.47 r22583"
   width="720.09497"
   height="540.20874"
   xml:space="preserve"
   sodipodi:docname="curve.bipf.edit-skwiki.a.clean.pdf"><metadata
     id="metadata8"><rdf:RDF><cc:Work
         rdf:about=""><dc:format>image/svg+xml</dc:format><dc:type
           rdf:resource="http://purl.org/dc/dcmitype/StillImage" /><dc:title></dc:title></cc:Work></rdf:RDF></metadata><defs
     id="defs6"><inkscape:perspective
       sodipodi:type="inkscape:persp3d"
       inkscape:vp_x="0 : 0.5 : 1"
       inkscape:vp_y="0 : 1000 : 0"
       inkscape:vp_z="1 : 0.5 : 1"
       inkscape:persp3d-origin="0.5 : 0.33333333 : 1"
       id="perspective10" /></defs><sodipodi:namedview
     pagecolor="#ffffff"
     bordercolor="#666666"
     borderopacity="1"
     objecttolerance="10"
     gridtolerance="10"
     guidetolerance="10"
     inkscape:pageopacity="0"
     inkscape:pageshadow="2"
     inkscape:window-width="1200"
     inkscape:window-height="1895"
     id="namedview4"
     showgrid="false"
     inkscape:zoom="1.3111111"
     inkscape:cx="394.21081"
     inkscape:cy="191.8553"
     inkscape:window-x="0"
     inkscape:window-y="0"
     inkscape:window-maximized="1"
     inkscape:current-layer="g12" /><g
     id="g12"
     inkscape:groupmode="layer"
     inkscape:label="curve.bipf.edit-skwiki.a.clean"
     transform="matrix(1.25,0,0,-1.25,0,629.99487)"><path
       id="path20"
       style="fill:none;stroke:none"
       d="m 0,71.8289 576.076,0 0,432.167 -576.076,0 0,-432.167 z" /><path
       id="path22"
       style="fill:#ffffff;fill-opacity:1;fill-rule:evenodd;stroke:none"
       d="m 74.9176,119.419 446.329,0 0,352.157 -446.329,0 0,-352.157 z" /><path
       id="path24"
       style="fill:none;stroke:none"
       d="m 74.9176,119.419 446.329,0 0,352.157 -446.329,0 0,-352.157 z" /><path
       id="path26"
       style="fill:none;stroke:#ffffff;stroke-width:0.49999699;stroke-linecap:butt;stroke-linejoin:round;stroke-miterlimit:10;stroke-opacity:1;stroke-dasharray:none"
       d="m 74.9176,119.419 446.329,0 0,352.157 -446.329,0 0,-352.157 z" /><path
       id="path28"
       style="fill:none;stroke:#000000;stroke-width:0.49999699;stroke-linecap:butt;stroke-linejoin:miter;stroke-miterlimit:10;stroke-opacity:1;stroke-dasharray:5.99996;stroke-dashoffset:0"
       d="m 74.9176,119.419 0,352.157" /><path
       id="path30"
       style="fill:none;stroke:#000000;stroke-width:0.49999699;stroke-linecap:butt;stroke-linejoin:miter;stroke-miterlimit:10;stroke-opacity:1;stroke-dasharray:5.99996;stroke-dashoffset:0"
       d="m 74.9176,119.419 446.3284,0" /><path
       id="path32"
       style="fill:none;stroke:#000000;stroke-width:0.49999699;stroke-linecap:butt;stroke-linejoin:round;stroke-miterlimit:10;stroke-opacity:1;stroke-dasharray:none"
       d="m 503.917,449.746 -0.01,-0.15 -0.01,-0.16 -0.02,-0.15 -0.02,-0.14 -0.04,-0.15 -0.04,-0.139 -0.04,-0.141 -0.06,-0.139 -0.06,-0.131 -0.06,-0.13 -0.08,-0.13 -0.07,-0.12 -0.09,-0.109 -0.09,-0.121 -0.09,-0.109 -0.1,-0.1 -0.11,-0.1 -0.1,-0.091 -0.12,-0.09 -0.12,-0.089 -0.12,-0.08 -0.121,-0.07 -0.129,-0.061 -0.13,-0.06 -0.14,-0.059 -0.14,-0.05 -0.14,-0.041 -0.15,-0.029 -0.15,-0.03 -0.15,-0.011 -0.15,-0.02 -0.15,0 c -1.66,0 -3,1.34 -3,3 0,1.66 1.34,3 3,3 1.65,0 3,-1.34 3,-3 z" /><path
       id="path34"
       style="fill:none;stroke:#000000;stroke-width:0.49999699;stroke-linecap:butt;stroke-linejoin:round;stroke-miterlimit:10;stroke-opacity:1;stroke-dasharray:none"
       d="m 222.918,211.828 -0.009,-0.15 -0.011,-0.15 -0.019,-0.15 -0.02,-0.15 -0.041,-0.15 -0.039,-0.14 -0.04,-0.14 -0.06,-0.14 -0.061,-0.13 -0.059,-0.13 -0.08,-0.12 -0.07,-0.12 -0.091,-0.12 -0.089,-0.12 -0.09,-0.1 -0.101,-0.11 -0.109,-0.1 -0.1,-0.09 -0.12,-0.09 -0.12,-0.09 -0.121,-0.07 -0.12,-0.08 -0.13,-0.06 -0.129,-0.06 -0.141,-0.06 -0.139,-0.04 -0.141,-0.04 -0.15,-0.04 -0.15,-0.02 -0.15,-0.02 -0.15,-0.01 -0.15,-0.01 c -1.659,0 -3,1.35 -3,3 0,1.66 1.341,3 3,3 1.65,0 3,-1.34 3,-3 z" /><path
       id="path36"
       style="fill:none;stroke:#000000;stroke-width:0.49999699;stroke-linecap:butt;stroke-linejoin:round;stroke-miterlimit:10;stroke-opacity:1;stroke-dasharray:none"
       d="m 201.748,194.418 0,-0.16 -0.019,-0.15 -0.01,-0.15 -0.03,-0.15 -0.03,-0.14 -0.04,-0.14 -0.05,-0.14 -0.06,-0.14 -0.061,-0.13 -0.059,-0.13 -0.07,-0.13 -0.08,-0.12 -0.091,-0.12 -0.089,-0.11 -0.09,-0.11 -0.1,-0.1 -0.1,-0.1 -0.11,-0.1 -0.12,-0.09 -0.11,-0.08 -0.12,-0.08 -0.13,-0.07 -0.131,-0.07 -0.129,-0.06 -0.14,-0.05 -0.14,-0.05 -0.141,-0.04 -0.15,-0.03 -0.139,-0.03 -0.15,-0.02 -0.161,-0.01 -0.15,0 c -1.659,0 -2.999,1.34 -2.999,3 0,1.65 1.34,3 2.999,3 1.661,0 3,-1.35 3,-3 z" /><path
       id="path38"
       style="fill:none;stroke:#000000;stroke-width:0.49999699;stroke-linecap:butt;stroke-linejoin:round;stroke-miterlimit:10;stroke-opacity:1;stroke-dasharray:none"
       d="m 171.749,192.168 0,-0.16 -0.02,-0.15 -0.01,-0.15 -0.03,-0.15 -0.03,-0.14 -0.04,-0.14 -0.05,-0.14 -0.06,-0.14 -0.06,-0.13 -0.06,-0.13 -0.07,-0.13 -0.08,-0.12 -0.09,-0.12 -0.09,-0.11 -0.09,-0.11 -0.1,-0.1 -0.1,-0.1 -0.11,-0.1 -0.12,-0.09 -0.11,-0.08 -0.12,-0.08 -0.13,-0.07 -0.13,-0.07 -0.13,-0.06 -0.14,-0.05 -0.14,-0.05 -0.14,-0.04 -0.15,-0.03 -0.14,-0.03 -0.15,-0.02 -0.16,-0.01 -0.15,0 c -1.66,0 -3,1.34 -3,3 0,1.65 1.34,3 3,3 1.66,0 3,-1.35 3,-3 z" /><path
       id="path40"
       style="fill:none;stroke:#000000;stroke-width:0.49999699;stroke-linecap:butt;stroke-linejoin:round;stroke-miterlimit:10;stroke-opacity:1;stroke-dasharray:none"
       d="m 162.749,151.918 0,-0.16 -0.02,-0.15 -0.01,-0.15 -0.03,-0.15 -0.03,-0.14 -0.04,-0.139 -0.05,-0.141 -0.06,-0.14 -0.06,-0.13 -0.06,-0.13 -0.07,-0.13 -0.08,-0.12 -0.09,-0.12 -0.09,-0.11 -0.09,-0.11 -0.1,-0.1 -0.1,-0.1 -0.11,-0.1 -0.12,-0.09 -0.11,-0.079 -0.12,-0.081 -0.13,-0.069 -0.13,-0.071 -0.13,-0.06 -0.14,-0.05 -0.14,-0.05 -0.14,-0.04 -0.15,-0.029 -0.14,-0.031 -0.15,-0.019 -0.16,-0.011 -0.15,0 c -1.66,0 -3,1.34 -3,3 0,1.65 1.34,3 3,3 1.66,0 3,-1.35 3,-3 z" /><path
       id="path42"
       style="fill:none;stroke:#000000;stroke-width:0.49999699;stroke-linecap:butt;stroke-linejoin:round;stroke-miterlimit:10;stroke-opacity:1;stroke-dasharray:none"
       d="m 156.169,146.079 -0.01,-0.15 -0.01,-0.15 -0.02,-0.15 -0.02,-0.15 -0.04,-0.15 -0.04,-0.141 -0.04,-0.14 -0.06,-0.139 -0.06,-0.13 -0.06,-0.131 -0.08,-0.119 -0.07,-0.12 -0.09,-0.121 -0.09,-0.12 -0.09,-0.1 -0.1,-0.109 -0.11,-0.1 -0.1,-0.091 -0.12,-0.089 -0.12,-0.091 -0.12,-0.07 -0.12,-0.08 -0.13,-0.059 -0.13,-0.061 -0.14,-0.059 -0.14,-0.041 -0.14,-0.039 -0.15,-0.041 -0.15,-0.02 -0.15,-0.02 -0.15,-0.01 -0.15,-0.009 c -1.66,0 -3,1.35 -3,3 0,1.659 1.34,3 3,3 1.65,0 3,-1.341 3,-3 z" /><path
       id="path44"
       style="fill:none;stroke:#000000;stroke-width:0.49999699;stroke-linecap:butt;stroke-linejoin:round;stroke-miterlimit:10;stroke-opacity:1;stroke-dasharray:none"
       d="m 153.419,150.079 -0.01,-0.15 -0.01,-0.15 -0.02,-0.15 -0.02,-0.15 -0.04,-0.15 -0.04,-0.141 -0.04,-0.14 -0.06,-0.14 -0.06,-0.129 -0.06,-0.131 -0.08,-0.119 -0.07,-0.121 -0.09,-0.12 -0.09,-0.12 -0.09,-0.1 -0.1,-0.11 -0.11,-0.1 -0.1,-0.09 -0.12,-0.089 -0.12,-0.091 -0.12,-0.07 -0.12,-0.08 -0.13,-0.059 -0.13,-0.061 -0.14,-0.06 -0.14,-0.04 -0.14,-0.039 -0.15,-0.041 -0.15,-0.02 -0.15,-0.02 -0.15,-0.01 -0.15,-0.009 c -1.66,0 -3,1.35 -3,3 0,1.659 1.34,3 3,3 1.65,0 3,-1.341 3,-3 z" /><path
       id="path46"
       style="fill:none;stroke:#000000;stroke-width:0.49999699;stroke-linecap:butt;stroke-linejoin:round;stroke-miterlimit:10;stroke-opacity:1;stroke-dasharray:none"
       d="m 150.999,152.918 0,-0.16 -0.02,-0.15 -0.01,-0.15 -0.03,-0.15 -0.03,-0.14 -0.04,-0.139 -0.05,-0.141 -0.06,-0.14 -0.06,-0.13 -0.06,-0.13 -0.07,-0.13 -0.08,-0.12 -0.09,-0.12 -0.09,-0.11 -0.09,-0.11 -0.1,-0.1 -0.1,-0.1 -0.11,-0.1 -0.12,-0.09 -0.11,-0.079 -0.12,-0.081 -0.13,-0.069 -0.13,-0.071 -0.13,-0.06 -0.14,-0.05 -0.14,-0.05 -0.14,-0.04 -0.15,-0.029 -0.14,-0.031 -0.15,-0.019 -0.16,-0.011 -0.15,0 c -1.66,0 -3,1.34 -3,3 0,1.65 1.34,3 3,3 1.66,0 3,-1.35 3,-3 z" /><path
       id="path48"
       style="fill:none;stroke:#000000;stroke-width:0.49999699;stroke-linecap:butt;stroke-linejoin:round;stroke-miterlimit:10;stroke-opacity:1;stroke-dasharray:none"
       d="m 144.829,217.668 0,-0.16 -0.01,-0.15 -0.02,-0.15 -0.03,-0.15 -0.03,-0.14 -0.04,-0.14 -0.05,-0.14 -0.05,-0.14 -0.06,-0.13 -0.07,-0.13 -0.07,-0.13 -0.08,-0.12 -0.08,-0.12 -0.09,-0.11 -0.1,-0.11 -0.1,-0.1 -0.1,-0.1 -0.11,-0.1 -0.11,-0.09 -0.12,-0.08 -0.12,-0.08 -0.13,-0.07 -0.13,-0.07 -0.13,-0.06 -0.14,-0.05 -0.14,-0.05 -0.14,-0.04 -0.14,-0.03 -0.15,-0.03 -0.15,-0.02 -0.15,-0.01 -0.16,0 c -1.65,0 -3,1.34 -3,3 0,1.65 1.35,3 3,3 1.66,0 3,-1.35 3,-3 z" /><path
       id="path50"
       style="fill:none;stroke:#000000;stroke-width:0.49999699;stroke-linecap:butt;stroke-linejoin:round;stroke-miterlimit:10;stroke-opacity:1;stroke-dasharray:none"
       d="m 143.169,168.748 -0.01,-0.15 -0.01,-0.16 -0.02,-0.15 -0.02,-0.14 -0.04,-0.15 -0.04,-0.14 -0.04,-0.14 -0.06,-0.14 -0.06,-0.13 -0.06,-0.13 -0.08,-0.13 -0.07,-0.12 -0.09,-0.11 -0.09,-0.12 -0.09,-0.11 -0.1,-0.1 -0.11,-0.1 -0.1,-0.09 -0.12,-0.09 -0.12,-0.09 -0.12,-0.08 -0.12,-0.07 -0.13,-0.06 -0.13,-0.06 -0.14,-0.06 -0.14,-0.05 -0.14,-0.04 -0.15,-0.03 -0.15,-0.03 -0.15,-0.01 -0.15,-0.02 -0.15,0 c -1.66,0 -3,1.34 -3,3 0,1.66 1.34,3 3,3 1.65,0 3,-1.34 3,-3 z" /><path
       id="path52"
       style="fill:none;stroke:#000000;stroke-width:0.49999699;stroke-linecap:butt;stroke-linejoin:round;stroke-miterlimit:10;stroke-opacity:1;stroke-dasharray:none"
       d="m 140.079,148.748 0,-0.15 -0.01,-0.16 -0.02,-0.15 -0.03,-0.14 -0.03,-0.15 -0.04,-0.14 -0.05,-0.14 -0.05,-0.139 -0.06,-0.131 -0.07,-0.13 -0.07,-0.13 -0.08,-0.12 -0.08,-0.11 -0.09,-0.12 -0.1,-0.109 -0.1,-0.1 -0.1,-0.1 -0.11,-0.091 -0.11,-0.09 -0.12,-0.09 -0.12,-0.079 -0.13,-0.071 -0.13,-0.06 -0.13,-0.06 -0.14,-0.059 -0.14,-0.05 -0.14,-0.041 -0.14,-0.03 -0.15,-0.029 -0.15,-0.011 -0.15,-0.02 -0.16,0 c -1.65,0 -3,1.34 -3,3 0,1.66 1.35,3 3,3 1.66,0 3,-1.34 3,-3 z" /><path
       id="path54"
       style="fill:none;stroke:#000000;stroke-width:0.49999699;stroke-linecap:butt;stroke-linejoin:round;stroke-miterlimit:10;stroke-opacity:1;stroke-dasharray:none"
       d="m 129.499,151.829 0,-0.15 -0.02,-0.15 -0.01,-0.15 -0.03,-0.15 -0.03,-0.15 -0.04,-0.141 -0.05,-0.14 -0.06,-0.14 -0.06,-0.129 -0.06,-0.131 -0.07,-0.119 -0.08,-0.121 -0.09,-0.12 -0.09,-0.12 -0.09,-0.1 -0.1,-0.11 -0.1,-0.1 -0.11,-0.09 -0.12,-0.089 -0.11,-0.091 -0.12,-0.07 -0.13,-0.08 -0.13,-0.059 -0.13,-0.061 -0.14,-0.06 -0.14,-0.04 -0.14,-0.039 -0.15,-0.041 -0.14,-0.02 -0.15,-0.02 -0.16,-0.01 -0.15,-0.009 c -1.66,0 -3,1.35 -3,3 0,1.659 1.34,2.999 3,2.999 1.66,0 3,-1.34 3,-2.999 z" /><path
       id="path56"
       style="fill:none;stroke:#000000;stroke-width:0.49999699;stroke-linecap:butt;stroke-linejoin:round;stroke-miterlimit:10;stroke-opacity:1;stroke-dasharray:none"
       d="m 126.329,140.248 0,-0.15 -0.01,-0.16 -0.02,-0.15 -0.03,-0.14 -0.03,-0.15 -0.04,-0.139 -0.05,-0.141 -0.05,-0.139 -0.06,-0.131 -0.07,-0.13 -0.07,-0.13 -0.08,-0.12 -0.08,-0.109 -0.09,-0.121 -0.1,-0.109 -0.1,-0.1 -0.1,-0.1 -0.11,-0.091 -0.11,-0.09 -0.12,-0.089 -0.12,-0.08 -0.13,-0.07 -0.13,-0.061 -0.13,-0.06 -0.14,-0.059 -0.14,-0.05 -0.14,-0.041 -0.14,-0.029 -0.15,-0.03 -0.15,-0.011 -0.15,-0.02 -0.16,0 c -1.65,0 -3,1.34 -3,3 0,1.661 1.35,3 3,3 1.66,0 3,-1.339 3,-3 z" /><path
       id="path58"
       style="fill:none;stroke:#000000;stroke-width:0.49999699;stroke-linecap:butt;stroke-linejoin:round;stroke-miterlimit:10;stroke-opacity:1;stroke-dasharray:none"
       d="m 125.499,139.998 0,-0.15 -0.02,-0.16 -0.01,-0.15 -0.03,-0.14 -0.03,-0.15 -0.04,-0.139 -0.05,-0.141 -0.06,-0.139 -0.06,-0.131 -0.06,-0.13 -0.07,-0.13 -0.08,-0.12 -0.09,-0.109 -0.09,-0.121 -0.09,-0.109 -0.1,-0.1 -0.1,-0.1 -0.11,-0.091 -0.12,-0.09 -0.11,-0.089 -0.12,-0.08 -0.13,-0.07 -0.13,-0.061 -0.13,-0.06 -0.14,-0.059 -0.14,-0.05 -0.14,-0.041 -0.15,-0.029 -0.14,-0.03 -0.15,-0.011 -0.16,-0.02 -0.15,0 c -1.66,0 -3,1.34 -3,3 0,1.661 1.34,3 3,3 1.66,0 3,-1.339 3,-3 z" /><path
       id="path60"
       style="fill:none;stroke:#000000;stroke-width:0.49999699;stroke-linecap:butt;stroke-linejoin:round;stroke-miterlimit:10;stroke-opacity:1;stroke-dasharray:none"
       d="m 124.079,132.079 0,-0.15 -0.01,-0.15 -0.02,-0.15 -0.03,-0.15 -0.03,-0.15 -0.04,-0.14 -0.05,-0.141 -0.05,-0.139 -0.06,-0.13 -0.07,-0.131 -0.07,-0.119 -0.08,-0.12 -0.08,-0.12 -0.09,-0.121 -0.1,-0.1 -0.1,-0.109 -0.1,-0.1 -0.11,-0.091 -0.11,-0.089 -0.12,-0.09 -0.12,-0.071 -0.13,-0.079 -0.13,-0.06 -0.13,-0.061 -0.14,-0.059 -0.14,-0.041 -0.14,-0.039 -0.14,-0.04 -0.15,-0.021 -0.15,-0.02 -0.15,-0.009 -0.16,-0.01 c -1.65,0 -3,1.35 -3,3 0,1.659 1.35,3 3,3 1.66,0 3,-1.341 3,-3 z" /><path
       id="path62"
       style="fill:none;stroke:#000000;stroke-width:0.49999699;stroke-linecap:butt;stroke-linejoin:round;stroke-miterlimit:10;stroke-opacity:1;stroke-dasharray:none"
       d="m 121.079,129.248 0,-0.15 -0.01,-0.159 -0.02,-0.15 -0.03,-0.141 -0.03,-0.15 -0.04,-0.139 -0.05,-0.141 -0.05,-0.139 -0.06,-0.131 -0.07,-0.13 -0.07,-0.129 -0.08,-0.121 -0.08,-0.109 -0.09,-0.12 -0.1,-0.11 -0.1,-0.1 -0.1,-0.1 -0.11,-0.09 -0.11,-0.091 -0.12,-0.089 -0.12,-0.08 -0.13,-0.07 -0.13,-0.061 -0.13,-0.059 -0.14,-0.06 -0.14,-0.05 -0.14,-0.04 -0.14,-0.03 -0.15,-0.03 -0.15,-0.011 -0.15,-0.02 -0.16,0 c -1.65,0 -3,1.341 -3,3 0,1.661 1.35,3 3,3 1.66,0 3,-1.339 3,-3 z" /><path
       id="path64"
       style="fill:none;stroke:#000000;stroke-width:0.49999699;stroke-linecap:butt;stroke-linejoin:round;stroke-miterlimit:10;stroke-opacity:1;stroke-dasharray:none"
       d="m 120.419,133.079 -0.01,-0.15 -0.01,-0.15 -0.02,-0.15 -0.02,-0.15 -0.04,-0.15 -0.04,-0.14 -0.04,-0.141 -0.06,-0.139 -0.06,-0.13 -0.06,-0.131 -0.08,-0.119 -0.07,-0.12 -0.09,-0.121 -0.09,-0.12 -0.09,-0.1 -0.1,-0.109 -0.11,-0.1 -0.1,-0.091 -0.12,-0.089 -0.12,-0.09 -0.12,-0.071 -0.12,-0.079 -0.13,-0.06 -0.13,-0.061 -0.14,-0.059 -0.14,-0.041 -0.14,-0.039 -0.15,-0.04 -0.15,-0.021 -0.15,-0.02 -0.15,-0.009 -0.15,-0.01 c -1.66,0 -3,1.35 -3,3 0,1.659 1.34,3 3,3 1.65,0 3,-1.341 3,-3 z" /><path
       id="path66"
       style="fill:none;stroke:#000000;stroke-width:0.49999699;stroke-linecap:butt;stroke-linejoin:round;stroke-miterlimit:10;stroke-opacity:1;stroke-dasharray:none"
       d="m 116.919,130.168 -0.01,-0.159 -0.01,-0.15 -0.02,-0.15 -0.02,-0.15 -0.04,-0.141 -0.04,-0.139 -0.04,-0.14 -0.06,-0.141 -0.06,-0.13 -0.06,-0.129 -0.08,-0.13 -0.07,-0.12 -0.09,-0.121 -0.09,-0.109 -0.09,-0.111 -0.1,-0.1 -0.11,-0.1 -0.1,-0.1 -0.12,-0.089 -0.12,-0.08 -0.12,-0.081 -0.12,-0.069 -0.13,-0.07 -0.13,-0.061 -0.14,-0.05 -0.14,-0.05 -0.14,-0.039 -0.15,-0.03 -0.15,-0.031 -0.15,-0.019 -0.15,-0.011 -0.15,0 c -1.66,0 -3,1.341 -3,3 0,1.65 1.34,3 3,3 1.65,0 3,-1.35 3,-3 z" /><path
       id="path68"
       style="fill:none;stroke:#000000;stroke-width:0.49999699;stroke-linecap:butt;stroke-linejoin:round;stroke-miterlimit:10;stroke-opacity:1;stroke-dasharray:none"
       d="m 116.079,161.418 0,-0.16 -0.01,-0.15 -0.02,-0.15 -0.03,-0.15 -0.03,-0.14 -0.04,-0.14 -0.05,-0.14 -0.05,-0.14 -0.06,-0.13 -0.07,-0.13 -0.07,-0.13 -0.08,-0.12 -0.08,-0.12 -0.09,-0.11 -0.1,-0.11 -0.1,-0.1 -0.1,-0.1 -0.11,-0.1 -0.11,-0.09 -0.12,-0.08 -0.12,-0.08 -0.13,-0.07 -0.13,-0.07 -0.13,-0.06 -0.14,-0.05 -0.14,-0.05 -0.14,-0.04 -0.14,-0.029 -0.15,-0.031 -0.15,-0.02 -0.15,-0.01 -0.16,0 c -1.65,0 -3,1.34 -3,3 0,1.65 1.35,3 3,3 1.66,0 3,-1.35 3,-3 z" /><path
       id="path70"
       style="fill:none;stroke:#000000;stroke-width:0.49999699;stroke-linecap:butt;stroke-linejoin:round;stroke-miterlimit:10;stroke-opacity:1;stroke-dasharray:none"
       d="m 115.499,212.668 0,-0.16 -0.02,-0.15 -0.01,-0.15 -0.03,-0.15 -0.03,-0.14 -0.04,-0.14 -0.05,-0.14 -0.06,-0.14 -0.06,-0.13 -0.06,-0.13 -0.07,-0.13 -0.08,-0.12 -0.09,-0.12 -0.09,-0.11 -0.09,-0.11 -0.1,-0.1 -0.1,-0.1 -0.11,-0.1 -0.12,-0.09 -0.11,-0.08 -0.12,-0.08 -0.13,-0.07 -0.13,-0.07 -0.13,-0.06 -0.14,-0.05 -0.14,-0.05 -0.14,-0.04 -0.15,-0.03 -0.14,-0.03 -0.15,-0.02 -0.16,-0.01 -0.15,0 c -1.66,0 -3,1.34 -3,3 0,1.65 1.34,3 3,3 1.66,0 3,-1.35 3,-3 z" /><path
       id="path72"
       style="fill:none;stroke:#000000;stroke-width:0.49999699;stroke-linecap:butt;stroke-linejoin:round;stroke-miterlimit:10;stroke-opacity:1;stroke-dasharray:none"
       d="m 114.999,119.669 0,-0.16 -0.02,-0.15 -0.01,-0.15 -0.03,-0.15 -0.03,-0.14 -0.04,-0.14 -0.05,-0.14 -0.06,-0.141 -0.06,-0.129 -0.06,-0.13 -0.07,-0.13 -0.08,-0.12 -0.09,-0.12 -0.09,-0.11 -0.09,-0.111 -0.1,-0.1 -0.1,-0.1 -0.11,-0.1 -0.12,-0.089 -0.11,-0.08 -0.12,-0.081 -0.13,-0.069 -0.13,-0.07 -0.13,-0.061 -0.14,-0.05 -0.14,-0.05 -0.14,-0.039 -0.15,-0.03 -0.14,-0.031 -0.15,-0.019 -0.16,-0.01 -0.15,0 c -1.66,0 -3,1.34 -3,3 0,1.649 1.34,2.999 3,2.999 1.66,0 3,-1.35 3,-2.999 z" /><path
       id="path74"
       style="fill:none;stroke:#000000;stroke-width:0.49999699;stroke-linecap:butt;stroke-linejoin:round;stroke-miterlimit:10;stroke-opacity:1;stroke-dasharray:none"
       d="m 113.329,125.248 0,-0.15 -0.01,-0.159 -0.02,-0.15 -0.03,-0.141 -0.03,-0.15 -0.04,-0.139 -0.05,-0.141 -0.05,-0.139 -0.06,-0.131 -0.07,-0.13 -0.07,-0.129 -0.08,-0.121 -0.08,-0.109 -0.09,-0.12 -0.1,-0.11 -0.1,-0.1 -0.1,-0.1 -0.11,-0.09 -0.11,-0.091 -0.12,-0.089 -0.12,-0.08 -0.13,-0.07 -0.13,-0.061 -0.13,-0.059 -0.14,-0.06 -0.14,-0.05 -0.14,-0.04 -0.14,-0.03 -0.15,-0.03 -0.15,-0.011 -0.15,-0.02 -0.16,0 c -1.65,0 -3,1.341 -3,3 0,1.661 1.35,3 3,3 1.66,0 3,-1.339 3,-3 z" /><path
       id="path76"
       style="fill:none;stroke:#000000;stroke-width:0.49999699;stroke-linecap:butt;stroke-linejoin:round;stroke-miterlimit:10;stroke-opacity:1;stroke-dasharray:none"
       d="m 111.579,125.998 0,-0.15 -0.01,-0.159 -0.02,-0.15 -0.03,-0.141 -0.03,-0.15 -0.04,-0.139 -0.05,-0.141 -0.05,-0.139 -0.06,-0.131 -0.07,-0.13 -0.07,-0.129 -0.08,-0.121 -0.08,-0.109 -0.09,-0.12 -0.1,-0.11 -0.1,-0.1 -0.1,-0.1 -0.11,-0.09 -0.11,-0.091 -0.12,-0.089 -0.12,-0.08 -0.13,-0.07 -0.13,-0.061 -0.13,-0.059 -0.14,-0.06 -0.14,-0.05 -0.14,-0.04 -0.14,-0.03 -0.15,-0.03 -0.15,-0.011 -0.15,-0.02 -0.16,0 c -1.65,0 -3,1.341 -3,3 0,1.661 1.35,3 3,3 1.66,0 3,-1.339 3,-3 z" /><path
       id="path78"
       style="fill:none;stroke:#000000;stroke-width:0.49999699;stroke-linecap:butt;stroke-linejoin:round;stroke-miterlimit:10;stroke-opacity:1;stroke-dasharray:none"
       d="m 111.079,139.418 0,-0.159 -0.01,-0.15 -0.02,-0.15 -0.03,-0.15 -0.03,-0.141 -0.04,-0.139 -0.05,-0.141 -0.05,-0.14 -0.06,-0.13 -0.07,-0.13 -0.07,-0.129 -0.08,-0.121 -0.08,-0.12 -0.09,-0.109 -0.1,-0.111 -0.1,-0.1 -0.1,-0.1 -0.11,-0.1 -0.11,-0.089 -0.12,-0.08 -0.12,-0.081 -0.13,-0.069 -0.13,-0.07 -0.13,-0.061 -0.14,-0.05 -0.14,-0.05 -0.14,-0.039 -0.14,-0.03 -0.15,-0.031 -0.15,-0.019 -0.15,-0.011 -0.16,0 c -1.65,0 -3,1.341 -3,3 0,1.65 1.35,3 3,3 1.66,0 3,-1.35 3,-3 z" /><path
       id="path80"
       style="fill:none;stroke:#000000;stroke-width:0.49999699;stroke-linecap:butt;stroke-linejoin:round;stroke-miterlimit:10;stroke-opacity:1;stroke-dasharray:none"
       d="m 110.749,128.918 0,-0.159 -0.02,-0.15 -0.01,-0.15 -0.03,-0.15 -0.03,-0.141 -0.04,-0.139 -0.05,-0.14 -0.06,-0.141 -0.06,-0.13 -0.06,-0.129 -0.07,-0.13 -0.08,-0.12 -0.09,-0.121 -0.09,-0.109 -0.09,-0.111 -0.1,-0.1 -0.1,-0.1 -0.11,-0.1 -0.12,-0.089 -0.11,-0.08 -0.12,-0.081 -0.13,-0.069 -0.13,-0.07 -0.13,-0.061 -0.14,-0.05 -0.14,-0.05 -0.14,-0.039 -0.15,-0.03 -0.14,-0.031 -0.15,-0.019 -0.16,-0.011 -0.15,0 c -1.66,0 -3,1.341 -3,3 0,1.65 1.34,3 3,3 1.66,0 3,-1.35 3,-3 z" /><path
       id="path82"
       style="fill:none;stroke:#000000;stroke-width:0.49999699;stroke-linecap:butt;stroke-linejoin:round;stroke-miterlimit:10;stroke-opacity:1;stroke-dasharray:none"
       d="m 110.329,138.329 0,-0.15 -0.01,-0.15 -0.02,-0.15 -0.03,-0.15 -0.03,-0.15 -0.04,-0.141 -0.05,-0.14 -0.05,-0.139 -0.06,-0.13 -0.07,-0.131 -0.07,-0.119 -0.08,-0.12 -0.08,-0.121 -0.09,-0.12 -0.1,-0.1 -0.1,-0.109 -0.1,-0.1 -0.11,-0.091 -0.11,-0.089 -0.12,-0.091 -0.12,-0.07 -0.13,-0.08 -0.13,-0.059 -0.13,-0.061 -0.14,-0.059 -0.14,-0.041 -0.14,-0.039 -0.14,-0.041 -0.15,-0.02 -0.15,-0.02 -0.15,-0.01 -0.16,-0.009 c -1.65,0 -3,1.35 -3,3 0,1.659 1.35,3 3,3 1.66,0 3,-1.341 3,-3 z" /><path
       id="path84"
       style="fill:none;stroke:#000000;stroke-width:0.49999699;stroke-linecap:butt;stroke-linejoin:round;stroke-miterlimit:10;stroke-opacity:1;stroke-dasharray:none"
       d="m 110.079,132.668 0,-0.159 -0.01,-0.15 -0.02,-0.15 -0.03,-0.15 -0.03,-0.141 -0.04,-0.139 -0.05,-0.14 -0.05,-0.141 -0.06,-0.13 -0.07,-0.129 -0.07,-0.13 -0.08,-0.12 -0.08,-0.121 -0.09,-0.109 -0.1,-0.111 -0.1,-0.1 -0.1,-0.1 -0.11,-0.1 -0.11,-0.089 -0.12,-0.08 -0.12,-0.081 -0.13,-0.069 -0.13,-0.07 -0.13,-0.061 -0.14,-0.05 -0.14,-0.05 -0.14,-0.039 -0.14,-0.03 -0.15,-0.031 -0.15,-0.019 -0.15,-0.011 -0.16,0 c -1.65,0 -3,1.341 -3,3 0,1.65 1.35,3 3,3 1.66,0 3,-1.35 3,-3 z" /><path
       id="path86"
       style="fill:none;stroke:#000000;stroke-width:0.49999699;stroke-linecap:butt;stroke-linejoin:round;stroke-miterlimit:10;stroke-opacity:1;stroke-dasharray:none"
       d="m 109.579,122.918 0,-0.159 -0.01,-0.15 -0.02,-0.15 -0.03,-0.15 -0.03,-0.141 -0.04,-0.139 -0.05,-0.14 -0.05,-0.141 -0.06,-0.13 -0.07,-0.129 -0.07,-0.13 -0.08,-0.12 -0.08,-0.121 -0.09,-0.109 -0.1,-0.111 -0.1,-0.1 -0.1,-0.1 -0.11,-0.1 -0.11,-0.089 -0.12,-0.08 -0.12,-0.081 -0.13,-0.069 -0.13,-0.07 -0.13,-0.061 -0.14,-0.05 -0.14,-0.05 -0.14,-0.039 -0.14,-0.03 -0.15,-0.031 -0.15,-0.019 -0.15,-0.011 -0.16,0 c -1.65,0 -3,1.341 -3,3 0,1.65 1.35,3 3,3 1.66,0 3,-1.35 3,-3 z" /><path
       id="path88"
       style="fill:none;stroke:#000000;stroke-width:0.49999699;stroke-linecap:butt;stroke-linejoin:round;stroke-miterlimit:10;stroke-opacity:1;stroke-dasharray:none"
       d="m 107.669,140.829 -0.01,-0.15 -0.01,-0.15 -0.02,-0.15 -0.02,-0.15 -0.04,-0.15 -0.04,-0.141 -0.04,-0.14 -0.06,-0.139 -0.06,-0.13 -0.06,-0.131 -0.08,-0.119 -0.07,-0.12 -0.09,-0.121 -0.09,-0.12 -0.09,-0.1 -0.1,-0.109 -0.11,-0.1 -0.1,-0.091 -0.12,-0.089 -0.12,-0.091 -0.12,-0.07 -0.12,-0.08 -0.13,-0.059 -0.13,-0.061 -0.14,-0.059 -0.14,-0.041 -0.14,-0.039 -0.15,-0.041 -0.15,-0.02 -0.15,-0.02 -0.15,-0.01 -0.15,-0.009 c -1.66,0 -3,1.35 -3,3 0,1.659 1.34,3 3,3 1.65,0 3,-1.341 3,-3 z" /><path
       id="path90"
       style="fill:none;stroke:#000000;stroke-width:0.49999699;stroke-linecap:butt;stroke-linejoin:round;stroke-miterlimit:10;stroke-opacity:1;stroke-dasharray:none"
       d="m 106.919,130.329 -0.01,-0.15 -0.01,-0.15 -0.02,-0.15 -0.02,-0.15 -0.04,-0.15 -0.04,-0.14 -0.04,-0.141 -0.06,-0.139 -0.06,-0.13 -0.06,-0.131 -0.08,-0.119 -0.07,-0.12 -0.09,-0.12 -0.09,-0.121 -0.09,-0.1 -0.1,-0.109 -0.11,-0.1 -0.1,-0.091 -0.12,-0.089 -0.12,-0.09 -0.12,-0.071 -0.12,-0.079 -0.13,-0.06 -0.13,-0.061 -0.14,-0.059 -0.14,-0.041 -0.14,-0.039 -0.15,-0.04 -0.15,-0.021 -0.15,-0.02 -0.15,-0.009 -0.15,-0.01 c -1.66,0 -3,1.35 -3,3 0,1.66 1.34,3 3,3 1.65,0 3,-1.34 3,-3 z" /><path
       id="path92"
       style="fill:none;stroke:#000000;stroke-width:0.49999699;stroke-linecap:butt;stroke-linejoin:round;stroke-miterlimit:10;stroke-opacity:1;stroke-dasharray:none"
       d="m 105.669,130.248 -0.01,-0.15 -0.01,-0.159 -0.02,-0.15 -0.02,-0.141 -0.04,-0.15 -0.04,-0.139 -0.04,-0.141 -0.06,-0.139 -0.06,-0.131 -0.06,-0.13 -0.08,-0.129 -0.07,-0.121 -0.09,-0.109 -0.09,-0.12 -0.09,-0.11 -0.1,-0.1 -0.11,-0.1 -0.1,-0.09 -0.12,-0.091 -0.12,-0.089 -0.12,-0.08 -0.12,-0.07 -0.13,-0.061 -0.13,-0.059 -0.14,-0.06 -0.14,-0.05 -0.14,-0.04 -0.15,-0.03 -0.15,-0.03 -0.15,-0.011 -0.15,-0.02 -0.15,0 c -1.66,0 -2.9999,1.341 -2.9999,3 0,1.661 1.3399,3 2.9999,3 1.65,0 3,-1.339 3,-3 z" /><path
       id="path94"
       style="fill:none;stroke:#000000;stroke-width:0.49999699;stroke-linecap:butt;stroke-linejoin:round;stroke-miterlimit:10;stroke-opacity:1;stroke-dasharray:none"
       d="m 105.249,140.998 0,-0.15 -0.02,-0.16 -0.01,-0.15 -0.03,-0.14 -0.03,-0.15 -0.04,-0.139 -0.05,-0.141 -0.06,-0.139 -0.06,-0.131 -0.06,-0.13 -0.07,-0.13 -0.08,-0.12 -0.09,-0.109 -0.09,-0.121 -0.09,-0.109 -0.1,-0.1 -0.1,-0.1 -0.11,-0.091 -0.12,-0.09 -0.11,-0.089 -0.12,-0.08 -0.13,-0.07 -0.13,-0.061 -0.13,-0.06 -0.14,-0.059 -0.14,-0.05 -0.14,-0.041 -0.15,-0.029 -0.14,-0.03 -0.15,-0.011 -0.16,-0.02 -0.15,0 c -1.66,0 -2.9998,1.34 -2.9998,3 0,1.661 1.3398,3 2.9998,3 1.66,0 3,-1.339 3,-3 z" /><path
       id="path96"
       style="fill:none;stroke:#000000;stroke-width:0.49999699;stroke-linecap:butt;stroke-linejoin:round;stroke-miterlimit:10;stroke-opacity:1;stroke-dasharray:none"
       d="m 104.829,129.918 0,-0.159 -0.01,-0.15 -0.02,-0.15 -0.03,-0.15 -0.03,-0.141 -0.04,-0.139 -0.05,-0.14 -0.05,-0.141 -0.06,-0.13 -0.07,-0.129 -0.07,-0.13 -0.08,-0.12 -0.08,-0.121 -0.09,-0.109 -0.1,-0.111 -0.1,-0.1 -0.1,-0.1 -0.11,-0.1 -0.11,-0.089 -0.12,-0.08 -0.12,-0.081 -0.13,-0.069 -0.13,-0.07 -0.13,-0.061 -0.14,-0.05 -0.14,-0.05 -0.14,-0.039 -0.14,-0.03 -0.15,-0.031 -0.15,-0.019 -0.15,-0.011 -0.16,0 c -1.65,0 -2.9997,1.341 -2.9997,3 0,1.65 1.3497,3 2.9997,3 1.66,0 3,-1.35 3,-3 z" /><path
       id="path98"
       style="fill:none;stroke:#000000;stroke-width:0.49999699;stroke-linecap:butt;stroke-linejoin:round;stroke-miterlimit:10;stroke-opacity:1;stroke-dasharray:none"
       d="m 104.329,127.248 0,-0.15 -0.01,-0.159 -0.02,-0.15 -0.03,-0.141 -0.03,-0.15 -0.04,-0.139 -0.05,-0.141 -0.05,-0.139 -0.06,-0.131 -0.07,-0.13 -0.07,-0.129 -0.08,-0.121 -0.08,-0.109 -0.09,-0.12 -0.1,-0.11 -0.1,-0.1 -0.1,-0.1 -0.11,-0.09 -0.11,-0.091 -0.12,-0.089 -0.12,-0.08 -0.13,-0.07 -0.13,-0.061 -0.13,-0.059 -0.14,-0.06 -0.14,-0.05 -0.14,-0.04 -0.14,-0.03 -0.15,-0.03 -0.15,-0.011 -0.15,-0.02 -0.16,0 c -1.6497,0 -2.9997,1.341 -2.9997,3 0,1.661 1.35,3 2.9997,3 1.66,0 3,-1.339 3,-3 z" /><path
       id="path100"
       style="fill:none;stroke:#000000;stroke-width:0.49999699;stroke-linecap:butt;stroke-linejoin:round;stroke-miterlimit:10;stroke-opacity:1;stroke-dasharray:none"
       d="m 103.749,125.668 0,-0.159 -0.02,-0.15 -0.01,-0.15 -0.03,-0.15 -0.03,-0.141 -0.04,-0.139 -0.05,-0.14 -0.06,-0.141 -0.06,-0.13 -0.06,-0.129 -0.07,-0.13 -0.08,-0.12 -0.09,-0.121 -0.09,-0.109 -0.09,-0.111 -0.1,-0.1 -0.1,-0.1 -0.11,-0.1 -0.12,-0.089 -0.11,-0.08 -0.12,-0.081 -0.13,-0.069 -0.13,-0.07 -0.13,-0.061 -0.14,-0.05 -0.14,-0.05 -0.14,-0.039 -0.15,-0.03 -0.14,-0.031 -0.15,-0.019 -0.16,-0.011 -0.15,0 c -1.6599,0 -2.9998,1.341 -2.9998,3 0,1.65 1.3399,3 2.9998,3 1.66,0 3,-1.35 3,-3 z" /><path
       id="path102"
       style="fill:none;stroke:#000000;stroke-width:0.49999699;stroke-linecap:butt;stroke-linejoin:round;stroke-miterlimit:10;stroke-opacity:1;stroke-dasharray:none"
       d="m 103.329,125.329 0,-0.15 -0.01,-0.15 -0.02,-0.15 -0.03,-0.15 -0.03,-0.15 -0.04,-0.14 -0.05,-0.141 -0.05,-0.139 -0.06,-0.13 -0.07,-0.131 -0.07,-0.119 -0.08,-0.12 -0.08,-0.12 -0.09,-0.121 -0.1,-0.1 -0.1,-0.109 -0.1,-0.1 -0.11,-0.091 -0.11,-0.089 -0.12,-0.09 -0.12,-0.071 -0.13,-0.079 -0.13,-0.06 -0.13,-0.061 -0.14,-0.059 -0.14,-0.041 -0.14,-0.039 -0.14,-0.04 -0.15,-0.021 -0.15,-0.02 -0.15,-0.009 -0.16,-0.01 c -1.6497,0 -2.9997,1.35 -2.9997,3 0,1.66 1.35,3 2.9997,3 1.66,0 3,-1.34 3,-3 z" /><path
       id="path104"
       style="fill:none;stroke:#000000;stroke-width:0.49999699;stroke-linecap:butt;stroke-linejoin:round;stroke-miterlimit:10;stroke-opacity:1;stroke-dasharray:none"
       d="m 102.829,120.418 0,-0.159 -0.01,-0.15 -0.02,-0.15 -0.03,-0.15 -0.03,-0.14 -0.04,-0.14 -0.05,-0.14 -0.05,-0.141 -0.06,-0.129 -0.07,-0.13 -0.07,-0.13 -0.08,-0.12 -0.08,-0.12 -0.09,-0.11 -0.1,-0.111 -0.1,-0.1 -0.1,-0.1 -0.11,-0.1 -0.11,-0.089 -0.12,-0.08 -0.12,-0.081 -0.13,-0.069 -0.13,-0.07 -0.13,-0.061 -0.14,-0.05 -0.14,-0.05 -0.14,-0.039 -0.14,-0.03 -0.15,-0.031 -0.15,-0.019 -0.1499,-0.01 -0.1598,0 c -1.65,0 -3,1.34 -3,2.999 0,1.65 1.35,3 3,3 1.6597,0 2.9997,-1.35 2.9997,-3 z" /><path
       id="path106"
       style="fill:none;stroke:#000000;stroke-width:0.49999699;stroke-linecap:butt;stroke-linejoin:round;stroke-miterlimit:10;stroke-opacity:1;stroke-dasharray:none"
       d="m 102.669,121.829 -0.01,-0.15 -0.01,-0.15 -0.02,-0.15 -0.02,-0.15 -0.04,-0.15 -0.04,-0.14 -0.04,-0.141 -0.06,-0.139 -0.06,-0.13 -0.06,-0.131 -0.08,-0.119 -0.07,-0.12 -0.09,-0.12 -0.09,-0.121 -0.09,-0.099 -0.1,-0.11 -0.11,-0.1 -0.1,-0.09 -0.12,-0.09 -0.12,-0.09 -0.12,-0.07 -0.12,-0.08 -0.13,-0.06 -0.13,-0.06 -0.14,-0.06 -0.14,-0.04 -0.14,-0.04 -0.15,-0.04 -0.15,-0.02 -0.1499,-0.021 -0.15,-0.009 -0.15,-0.01 c -1.6597,0 -3,1.35 -3,3 0,1.66 1.3403,3 3,3 1.6499,0 2.9999,-1.34 2.9999,-3 z" /><path
       id="path108"
       style="fill:none;stroke:#000000;stroke-width:0.49999699;stroke-linecap:butt;stroke-linejoin:round;stroke-miterlimit:10;stroke-opacity:1;stroke-dasharray:none"
       d="m 102.499,122.498 0,-0.15 -0.02,-0.159 -0.01,-0.15 -0.03,-0.141 -0.03,-0.15 -0.04,-0.139 -0.05,-0.141 -0.06,-0.139 -0.06,-0.131 -0.06,-0.129 -0.07,-0.13 -0.08,-0.12 -0.09,-0.11 -0.09,-0.12 -0.09,-0.11 -0.1,-0.1 -0.1,-0.1 -0.11,-0.09 -0.12,-0.091 -0.11,-0.089 -0.12,-0.08 -0.13,-0.07 -0.13,-0.061 -0.13,-0.059 -0.14,-0.06 -0.14,-0.05 -0.14,-0.04 -0.15,-0.03 -0.1396,-0.03 -0.15,-0.01 -0.1602,-0.021 -0.15,0 c -1.6597,0 -3,1.341 -3,3 0,1.661 1.3403,3 3,3 1.6598,0 2.9998,-1.339 2.9998,-3 z" /><path
       id="path110"
       style="fill:none;stroke:#000000;stroke-width:0.49999699;stroke-linecap:butt;stroke-linejoin:round;stroke-miterlimit:10;stroke-opacity:1;stroke-dasharray:none"
       d="m 101.329,138.668 0,-0.159 -0.01,-0.15 -0.02,-0.15 -0.03,-0.15 -0.03,-0.141 -0.04,-0.139 -0.05,-0.141 -0.05,-0.14 -0.06,-0.13 -0.07,-0.13 -0.07,-0.129 -0.08,-0.121 -0.08,-0.12 -0.09,-0.109 -0.1,-0.111 -0.1,-0.1 -0.1,-0.1 -0.11,-0.1 -0.11,-0.089 -0.12,-0.08 -0.1199,-0.081 -0.1297,-0.069 -0.1301,-0.07 -0.1301,-0.061 -0.1398,-0.05 -0.1403,-0.05 -0.1398,-0.039 -0.1398,-0.03 -0.15,-0.031 -0.15,-0.019 -0.15,-0.011 -0.1602,0 c -1.65,0 -3,1.341 -3,3 0,1.65 1.35,3 3,3 1.6598,0 2.9997,-1.35 2.9997,-3 z" /><path
       id="path112"
       style="fill:none;stroke:#000000;stroke-width:0.49999699;stroke-linecap:butt;stroke-linejoin:round;stroke-miterlimit:10;stroke-opacity:1;stroke-dasharray:none"
       d="m 100.499,122.329 0,-0.15 -0.02,-0.15 -0.01,-0.15 -0.03,-0.15 -0.03,-0.15 -0.04,-0.14 -0.05,-0.141 -0.06,-0.139 -0.06,-0.13 -0.06,-0.131 -0.07,-0.119 -0.0799,-0.12 -0.0899,-0.12 -0.0898,-0.121 -0.0903,-0.099 -0.1,-0.11 -0.1,-0.1 -0.1097,-0.09 -0.1203,-0.09 -0.1098,-0.09 -0.1199,-0.07 -0.1301,-0.08 -0.1301,-0.06 -0.1301,-0.06 -0.1398,-0.06 -0.1398,-0.04 -0.1403,-0.04 -0.15,-0.04 -0.1398,-0.021 -0.15,-0.02 -0.1602,-0.009 -0.15,-0.01 c -1.6597,0 -3,1.35 -3,3 0,1.66 1.3403,3 3,3 1.6602,0 2.9998,-1.34 2.9998,-3 z" /><path
       id="path114"
       style="fill:none;stroke:#000000;stroke-width:0.49999699;stroke-linecap:butt;stroke-linejoin:round;stroke-miterlimit:10;stroke-opacity:1;stroke-dasharray:none"
       d="m 99.4191,120.079 -0.0097,-0.15 -0.0102,-0.15 -0.0199,-0.15 -0.0199,-0.15 -0.0403,-0.15 -0.0398,-0.14 -0.0402,-0.141 -0.0598,-0.139 -0.0602,-0.13 -0.0597,-0.131 -0.0801,-0.119 -0.0699,-0.12 -0.0903,-0.12 -0.0898,-0.12 -0.0898,-0.1 -0.1,-0.11 -0.1102,-0.1 -0.1,-0.09 -0.1199,-0.09 -0.1199,-0.09 -0.1204,-0.07 -0.1199,-0.08 -0.1301,-0.06 -0.1296,-0.06 -0.1403,-0.06 -0.1398,-0.04 -0.1403,-0.04 -0.15,-0.04 -0.15,-0.02 -0.15,-0.021 -0.15,-0.009 -0.15,-0.01 c -1.6597,0 -3,1.35 -3,3 0,1.66 1.3403,3 3,3 1.65,0 3,-1.34 3,-3 z" /><path
       id="path116"
       style="fill:none;stroke:#000000;stroke-width:0.49999699;stroke-linecap:butt;stroke-linejoin:round;stroke-miterlimit:10;stroke-opacity:1;stroke-dasharray:none"
       d="m 99.3293,138.579 0,-0.15 -0.0102,-0.15 -0.0199,-0.15 -0.0301,-0.15 -0.03,-0.15 -0.0399,-0.141 -0.05,-0.14 -0.05,-0.139 -0.0597,-0.13 -0.0704,-0.131 -0.0699,-0.119 -0.0801,-0.12 -0.0796,-0.121 -0.0903,-0.12 -0.1,-0.1 -0.1,-0.109 -0.1,-0.1 -0.1097,-0.091 -0.1102,-0.089 -0.1199,-0.091 -0.1199,-0.07 -0.1301,-0.08 -0.1301,-0.059 -0.1301,-0.061 -0.1398,-0.059 -0.1403,-0.041 -0.1398,-0.039 -0.1398,-0.041 -0.15,-0.02 -0.15,-0.02 -0.15,-0.01 -0.1602,-0.009 c -1.65,0 -3,1.35 -3,3 0,1.659 1.35,3 3,3 1.6602,0 3,-1.341 3,-3 z" /><path
       id="path118"
       style="fill:none;stroke:#000000;stroke-width:0.49999699;stroke-linecap:butt;stroke-linejoin:round;stroke-miterlimit:10;stroke-opacity:1;stroke-dasharray:none"
       d="m 99.0793,119.579 0,-0.15 -0.0102,-0.15 -0.0199,-0.15 -0.0301,-0.15 -0.03,-0.15 -0.0399,-0.14 -0.05,-0.141 -0.05,-0.139 -0.0597,-0.13 -0.0704,-0.131 -0.0699,-0.119 -0.0801,-0.12 -0.0796,-0.12 -0.0903,-0.12 -0.1,-0.1 -0.1,-0.11 -0.1,-0.1 -0.1097,-0.09 -0.1102,-0.09 -0.1199,-0.09 -0.1199,-0.07 -0.1301,-0.08 -0.1301,-0.06 -0.1301,-0.06 -0.1398,-0.06 -0.1403,-0.04 -0.1398,-0.04 -0.1398,-0.04 -0.15,-0.02 -0.15,-0.021 -0.15,-0.009 -0.1602,-0.01 c -1.65,0 -3,1.35 -3,3 0,1.66 1.35,3 3,3 1.6602,0 3,-1.34 3,-3 z" /><path
       id="path120"
       style="fill:none;stroke:#000000;stroke-width:0.49999699;stroke-linecap:butt;stroke-linejoin:round;stroke-miterlimit:10;stroke-opacity:1;stroke-dasharray:none"
       d="m 98.9992,125.498 0,-0.15 -0.0199,-0.159 -0.0102,-0.15 -0.0296,-0.141 -0.0301,-0.15 -0.0403,-0.139 -0.05,-0.141 -0.0597,-0.139 -0.0602,-0.131 -0.0597,-0.13 -0.0704,-0.129 -0.0796,-0.121 -0.0903,-0.109 -0.0898,-0.12 -0.0903,-0.11 -0.1,-0.1 -0.1,-0.1 -0.1097,-0.09 -0.1199,-0.091 -0.1102,-0.089 -0.1199,-0.08 -0.1301,-0.07 -0.1301,-0.061 -0.1301,-0.059 -0.1398,-0.06 -0.1398,-0.05 -0.1403,-0.04 -0.15,-0.03 -0.1398,-0.03 -0.15,-0.011 -0.1602,-0.02 -0.15,0 c -1.6597,0 -3,1.341 -3,3 0,1.661 1.3403,3 3,3 1.6602,0 3,-1.339 3,-3 z" /><path
       id="path122"
       style="fill:none;stroke:#000000;stroke-width:0.49999699;stroke-linecap:butt;stroke-linejoin:round;stroke-miterlimit:10;stroke-opacity:1;stroke-dasharray:none"
       d="m 98.7492,127.079 0,-0.15 -0.0199,-0.15 -0.0102,-0.15 -0.0296,-0.15 -0.0301,-0.15 -0.0403,-0.14 -0.05,-0.141 -0.0597,-0.139 -0.0602,-0.13 -0.0597,-0.131 -0.0704,-0.119 -0.0796,-0.12 -0.0903,-0.12 -0.0898,-0.121 -0.0903,-0.1 -0.1,-0.109 -0.1,-0.1 -0.1097,-0.091 -0.1199,-0.089 -0.1102,-0.09 -0.1199,-0.071 -0.1301,-0.079 -0.1301,-0.06 -0.1301,-0.061 -0.1398,-0.059 -0.1398,-0.041 -0.1403,-0.039 -0.15,-0.04 -0.1398,-0.021 -0.15,-0.02 -0.1602,-0.009 -0.15,-0.01 c -1.6597,0 -3,1.35 -3,3 0,1.66 1.3403,3 3,3 1.6602,0 3,-1.34 3,-3 z" /><path
       id="path124"
       style="fill:none;stroke:#000000;stroke-width:0.49999699;stroke-linecap:butt;stroke-linejoin:round;stroke-miterlimit:10;stroke-opacity:1;stroke-dasharray:none"
       d="m 98.5793,123.329 0,-0.15 -0.0102,-0.15 -0.0199,-0.15 -0.0301,-0.15 -0.0296,-0.15 -0.0403,-0.14 -0.05,-0.141 -0.05,-0.139 -0.0597,-0.13 -0.0704,-0.131 -0.0699,-0.119 -0.0801,-0.12 -0.0796,-0.12 -0.0903,-0.121 -0.1,-0.1 -0.1,-0.109 -0.1,-0.1 -0.1097,-0.091 -0.1102,-0.089 -0.1199,-0.09 -0.1199,-0.07 -0.1301,-0.08 -0.1301,-0.06 -0.1301,-0.06 -0.1398,-0.06 -0.1403,-0.041 -0.1398,-0.039 -0.1398,-0.04 -0.15,-0.021 -0.15,-0.02 -0.15,-0.009 -0.1602,-0.01 c -1.65,0 -3,1.35 -3,3 0,1.66 1.35,3 3,3 1.6602,0 3,-1.34 3,-3 z" /><path
       id="path126"
       style="fill:none;stroke:#000000;stroke-width:0.49999699;stroke-linecap:butt;stroke-linejoin:round;stroke-miterlimit:10;stroke-opacity:1;stroke-dasharray:none"
       d="m 98.4992,124.329 0,-0.15 -0.0199,-0.15 -0.0102,-0.15 -0.0296,-0.15 -0.0301,-0.15 -0.0403,-0.14 -0.05,-0.141 -0.0597,-0.139 -0.0602,-0.13 -0.0597,-0.131 -0.0704,-0.119 -0.0796,-0.12 -0.0903,-0.12 -0.0898,-0.121 -0.0903,-0.1 -0.1,-0.109 -0.1,-0.1 -0.1097,-0.091 -0.1199,-0.089 -0.1102,-0.09 -0.1199,-0.071 -0.1301,-0.079 -0.1301,-0.06 -0.1301,-0.061 -0.1398,-0.059 -0.1398,-0.041 -0.1403,-0.039 -0.15,-0.04 -0.1398,-0.021 -0.15,-0.02 -0.1602,-0.009 -0.15,-0.01 c -1.6597,0 -3,1.35 -3,3 0,1.66 1.3403,3 3,3 1.6602,0 3,-1.34 3,-3 z" /><path
       id="path128"
       style="fill:none;stroke:#000000;stroke-width:0.49999699;stroke-linecap:butt;stroke-linejoin:round;stroke-miterlimit:10;stroke-opacity:1;stroke-dasharray:none"
       d="m 98.1691,119.829 -0.0097,-0.15 -0.0102,-0.15 -0.0199,-0.15 -0.0199,-0.15 -0.0403,-0.15 -0.0398,-0.14 -0.0398,-0.141 -0.0602,-0.139 -0.0602,-0.13 -0.0597,-0.131 -0.0801,-0.119 -0.0699,-0.12 -0.0903,-0.12 -0.0898,-0.12 -0.0898,-0.1 -0.1,-0.11 -0.1102,-0.1 -0.1,-0.09 -0.1199,-0.09 -0.1199,-0.09 -0.1204,-0.07 -0.1199,-0.08 -0.1301,-0.06 -0.1296,-0.06 -0.1403,-0.06 -0.1398,-0.04 -0.1403,-0.04 -0.15,-0.04 -0.15,-0.02 -0.15,-0.021 -0.15,-0.009 -0.15,-0.01 c -1.6597,0 -3,1.35 -3,3 0,1.66 1.3403,3 3,3 1.65,0 3,-1.34 3,-3 z" /><path
       id="path130"
       style="fill:#000000;fill-opacity:1;fill-rule:evenodd;stroke:none"
       d="m 295.168,104.279 c 0.07,0.57 0.36,0.9 0.81,0.9 0.32,0 0.59,-0.25 0.74,-0.7 0.07,-0.2 0.16,-0.53 0.25,-0.91 l -2.31,-4.9905 0.94,0 1.7,3.5805 c 0.32,-1.95 0.48,-2.6602 0.66,-3.0504 0.22,-0.4301 0.54,-0.6598 0.91,-0.6598 0.39,0 0.7,0.2399 0.87,0.6797 0.11,0.2703 0.15,0.5403 0.16,1.0105 l -0.21,0 c -0.08,-0.5202 -0.31,-0.8105 -0.67,-0.8105 -0.3,0 -0.56,0.1903 -0.72,0.5403 -0.13,0.2602 -0.2,0.5202 -0.34,1.2602 l -0.27,1.29 c -0.01,0.03 -0.02,0.1 -0.04,0.2 -0.23,1.29 -0.59,2.51 -0.83,2.87 -0.22,0.32 -0.52,0.49 -0.85,0.49 -0.61,0 -0.93,-0.52 -1.04,-1.7 l 0.24,0" /><path
       id="path132"
       style="fill:#000000;fill-opacity:1;fill-rule:evenodd;stroke:none"
       d="m 301.028,97.7707 -0.664,0 0,-4.1918 0.664,0 0,4.1918 m 0,1.6398 -0.672,0 0,-0.8398 0.672,0 0,0.8398" /><path
       id="path134"
       style="fill:#000000;fill-opacity:1;fill-rule:evenodd;stroke:none"
       d="m 38.7598,289.748 0,-0.871 -0.8203,0 c -0.35,0 -0.5297,0.2 -0.5297,0.58 0,0.07 0,0.1 0.0097,0.291 l -0.6898,0 c -0.0399,-0.191 -0.05,-0.3 -0.05,-0.471 0,-0.77 0.4398,-1.229 1.1898,-1.229 l 0.8903,0 0,-0.7 0.6797,0 0,0.7 4.5601,0 0,0.829 -4.5601,0 0,0.871 -0.6797,0" /><path
       id="path136"
       style="fill:#000000;fill-opacity:1;fill-rule:evenodd;stroke:none"
       d="m 36.7098,292.301 c 1.3097,-1 3.1297,-1.63 4.7,-1.63 1.5797,0 3.4,0.63 4.7097,1.63 l 0,0.55 c -1.43,-0.88 -3.1097,-1.37 -4.7097,-1.37 -1.5903,0 -3.2801,0.49 -4.7,1.37 l 0,-0.55" /><path
       id="path138"
       style="fill:#000000;fill-opacity:1;fill-rule:evenodd;stroke:none"
       d="m 38.2996,293.997 c -0.5699,0.071 -0.9,0.36 -0.9,0.81 0,0.32 0.25,0.59 0.7,0.74 0.2,0.071 0.5301,0.16 0.9102,0.25 l 4.9898,-2.309 0,0.939 -3.5801,1.7 c 1.95,0.32 2.6602,0.48 3.05,0.661 0.4301,0.219 0.6602,0.539 0.6602,0.909 0,0.391 -0.2402,0.7 -0.6801,0.871 -0.2699,0.109 -0.5398,0.15 -1.0101,0.159 l 0,-0.209 c 0.5203,-0.08 0.8101,-0.311 0.8101,-0.671 0,-0.3 -0.1898,-0.559 -0.5398,-0.72 -0.2602,-0.13 -0.5203,-0.2 -1.2602,-0.339 l -1.2898,-0.27 c -0.0301,-0.011 -0.1,-0.021 -0.2,-0.041 -1.2903,-0.23 -2.5102,-0.589 -2.8703,-0.83 -0.32,-0.22 -0.4899,-0.52 -0.4899,-0.85 0,-0.609 0.5199,-0.929 1.7,-1.04 l 0,0.24" /><path
       id="path140"
       style="fill:#000000;fill-opacity:1;fill-rule:evenodd;stroke:none"
       d="m 44.8074,299.868 0,-0.664 4.1922,0 0,0.664 -4.1922,0 m -1.6398,0 0,-0.673 0.8398,0 0,0.673 -0.8398,0" /><path
       id="path142"
       style="fill:#000000;fill-opacity:1;fill-rule:evenodd;stroke:none"
       d="m 46.1195,301.347 c -1.3097,1 -3.13,1.63 -4.7,1.63 -1.58,0 -3.4,-0.63 -4.7097,-1.63 l 0,-0.55 c 1.4297,0.88 3.1097,1.371 4.7097,1.371 1.5903,0 3.2801,-0.491 4.7,-1.371 l 0,0.55" /><path
       id="path144"
       style="fill:none;stroke:#ff7f00;stroke-width:1.99999011;stroke-linecap:butt;stroke-linejoin:round;stroke-miterlimit:10;stroke-opacity:1;stroke-dasharray:5.99996;stroke-dashoffset:0"
       d="m 74.9176,119.419 2.9136,1.66 3,1.669 2.9981,1.67 2.9199,1.58 3,1.67 3,1.661 2.9199,1.589 3,1.661 2.9999,1.669 3,1.67 2.91,1.58 3,1.67 3,1.661 2.92,1.669 3,1.67 3,1.661 3,1.669 2.92,1.67 3,1.661 3,1.669 2.91,1.67 3,1.75 3,1.66 2.92,1.67 3,1.75 3,1.67 3,1.75 2.92,1.66 3,1.75 3,1.67 2.91,1.75 3,1.75 3,1.75 3,1.75 2.92,1.75 3,1.75 3,1.75 2.92,1.83 3,1.75 3,1.84 2.91,1.75 3,1.83 3,1.83 3,1.84 2.919,1.83 3,1.83 3,1.84 2.92,1.91 3,1.84 3,1.91" /><path
       id="path146"
       style="fill:none;stroke:#b300ff;stroke-width:1.99999011;stroke-linecap:butt;stroke-linejoin:round;stroke-miterlimit:10;stroke-opacity:1;stroke-dasharray:5.99996;stroke-dashoffset:0"
       d="m 223.668,205.328 3,1.92 2.911,1.83 3,1.92 3,1.92 2.919,1.91 3,1.92 3,1.92 2.92,1.91 3,2 3,1.92 3,2 2.91,2 3,2 3,2 2.92,2 3,2.08 3,2 3,2.09 2.92,2.08 3,2.08 3,2.09 2.91,2.08 3,2.17 3,2.08 3,2.17 2.92,2.16 3,2.17 3,2.25 2.92,2.17 3,2.25 3,2.25 2.91,2.25 3,2.33 3,2.25 3,2.329 2.92,2.341 3,2.33 3,2.329 2.92,2.421 3,2.329 3,2.42 3,2.5 2.91,2.421 3,2.5 3,2.409 2.92,2.591 3,2.5 3,2.499 2.92,2.58 3,2.58 3,2.67 3,2.58 2.909,2.67 3,2.67 3,2.66 2.92,2.75 3,2.75 3,2.75 3,2.84 2.92,2.75 3,2.83 3,2.92 2.91,2.83 3,2.92 3,2.91 2.92,3 3,2.92 3,3 3,3.08 2.92,3.09 3,3.08 3,3.08 2.91,3.17 3,3.17 3,3.16 3,3.25 2.92,3.25 3,3.25 3,3.34 2.92,3.33 3,3.42 3,3.33 2.91,3.5 3,3.42 3,3.5 3,3.5 2.92,3.579 3,3.581 3,3.669 2.92,3.67 3,3.661 3,3.75 3,3.75 2.91,3.839 3,3.83 3,3.831 2.919,3.919 3,3.92 2,2.66" /><path
       id="path148"
       style="fill:none;stroke:#b300ff;stroke-width:1.99999011;stroke-linecap:butt;stroke-linejoin:round;stroke-miterlimit:10;stroke-opacity:1;stroke-dasharray:5.99996;stroke-dashoffset:0"
       d="m 74.9176,119.419 2.9136,1.66 3,1.669 2.9981,1.67 2.9199,1.58 3,1.67 3,1.661 2.9199,1.669 3,1.67 2.9999,1.58 3,1.67 2.91,1.661 3,1.669 3,1.67 2.92,1.661 3,1.669 3,1.67 3,1.661 2.92,1.669 3,1.67 3,1.661 2.91,1.669 3,1.67 3,1.75 2.92,1.66 3,1.67 3,1.75 3,1.67 2.92,1.75 3,1.66 3,1.75 2.91,1.75 3,1.67 3,1.75 3,1.75 2.92,1.75 3,1.75 3,1.75 2.92,1.83 3,1.75 3,1.75 2.91,1.84 3,1.75 3,1.83 3,1.83 2.919,1.84 3,1.75 3,1.91 2.92,1.84 3,1.83 3,1.83" /><path
       id="path150"
       style="fill:none;stroke:#000000;stroke-width:0.49999699;stroke-linecap:butt;stroke-linejoin:miter;stroke-miterlimit:10;stroke-opacity:1;stroke-dasharray:none"
       d="m 74.9176,119.419 446.3284,0" /><path
       id="path152"
       style="fill:none;stroke:#000000;stroke-width:0.49999699;stroke-linecap:butt;stroke-linejoin:miter;stroke-miterlimit:10;stroke-opacity:1;stroke-dasharray:none"
       d="m 74.9176,471.576 446.3284,0" /><path
       id="path154"
       style="fill:none;stroke:#000000;stroke-width:0.49999699;stroke-linecap:butt;stroke-linejoin:miter;stroke-miterlimit:10;stroke-opacity:1;stroke-dasharray:none"
       d="m 74.9176,119.419 0,352.157" /><path
       id="path156"
       style="fill:none;stroke:#000000;stroke-width:0.49999699;stroke-linecap:butt;stroke-linejoin:miter;stroke-miterlimit:10;stroke-opacity:1;stroke-dasharray:none"
       d="m 521.246,119.419 0,352.157" /><path
       id="path158"
       style="fill:none;stroke:#000000;stroke-width:0.49999699;stroke-linecap:butt;stroke-linejoin:miter;stroke-miterlimit:10;stroke-opacity:1;stroke-dasharray:none"
       d="m 74.9176,119.419 446.3284,0" /><path
       id="path160"
       style="fill:none;stroke:#000000;stroke-width:0.49999699;stroke-linecap:butt;stroke-linejoin:miter;stroke-miterlimit:10;stroke-opacity:1;stroke-dasharray:none"
       d="m 74.9176,119.419 0,352.157" /><path
       id="path162"
       style="fill:none;stroke:#000000;stroke-width:0.49999699;stroke-linecap:butt;stroke-linejoin:miter;stroke-miterlimit:10;stroke-opacity:1;stroke-dasharray:none"
       d="m 74.9176,119.419 0,4.499" /><path
       id="path164"
       style="fill:none;stroke:#000000;stroke-width:0.49999699;stroke-linecap:butt;stroke-linejoin:miter;stroke-miterlimit:10;stroke-opacity:1;stroke-dasharray:none"
       d="m 74.9176,471.576 0,-4.41" /><path
       id="path166"
       style="fill:#000000;fill-opacity:1;fill-rule:evenodd;stroke:none"
       d="m 74.9164,114.419 c -0.6602,0 -1.2602,-0.29 -1.6301,-0.78 -0.4597,-0.62 -0.6898,-1.57 -0.6898,-2.88 0,-2.39 0.8,-3.661 2.3199,-3.661 1.5,0 2.3199,1.271 2.3199,3.6 0,1.381 -0.2199,2.3 -0.6898,2.941 -0.3699,0.5 -0.9602,0.78 -1.6301,0.78 m 0,-0.78 c 0.95,0 1.4199,-0.96 1.4199,-2.86 0,-2.01 -0.4597,-2.95 -1.4398,-2.95 -0.9301,0 -1.4,0.98 -1.4,2.919 0,1.941 0.4699,2.891 1.4199,2.891" /><path
       id="path168"
       style="fill:none;stroke:#000000;stroke-width:0.49999699;stroke-linecap:butt;stroke-linejoin:miter;stroke-miterlimit:10;stroke-opacity:1;stroke-dasharray:none"
       d="m 130.669,119.419 0,4.499" /><path
       id="path170"
       style="fill:none;stroke:#000000;stroke-width:0.49999699;stroke-linecap:butt;stroke-linejoin:miter;stroke-miterlimit:10;stroke-opacity:1;stroke-dasharray:none"
       d="m 130.669,471.576 0,-4.41" /><path
       id="path172"
       style="fill:#000000;fill-opacity:1;fill-rule:evenodd;stroke:none"
       d="m 127.089,114.419 -3.66,0 -0.53,-3.86 0.81,0 c 0.41,0.489 0.75,0.66 1.3,0.66 0.95,0 1.55,-0.65 1.55,-1.7 0,-1.021 -0.59,-1.64 -1.55,-1.64 -0.77,0 -1.24,0.39 -1.45,1.19 l -0.88,0 c 0.12,-0.58 0.22,-0.86 0.43,-1.121 0.4,-0.539 1.12,-0.85 1.92,-0.85 1.43,0 2.43,1.041 2.43,2.541 0,1.4 -0.93,2.359 -2.29,2.359 -0.5,0 -0.9,-0.129 -1.31,-0.429 l 0.28,1.979 2.95,0 0,0.871" /><path
       id="path174"
       style="fill:#000000;fill-opacity:1;fill-rule:evenodd;stroke:none"
       d="m 130.645,114.419 c -0.659,0 -1.259,-0.29 -1.629,-0.78 -0.461,-0.62 -0.691,-1.57 -0.691,-2.88 0,-2.39 0.8,-3.661 2.32,-3.661 1.5,0 2.321,1.271 2.321,3.6 0,1.381 -0.221,2.3 -0.691,2.941 -0.37,0.5 -0.959,0.78 -1.63,0.78 m 0,-0.78 c 0.95,0 1.421,-0.96 1.421,-2.86 0,-2.01 -0.461,-2.95 -1.441,-2.95 -0.93,0 -1.4,0.98 -1.4,2.919 0,1.941 0.47,2.891 1.42,2.891" /><path
       id="path176"
       style="fill:#000000;fill-opacity:1;fill-rule:evenodd;stroke:none"
       d="m 136.212,114.419 c -0.66,0 -1.26,-0.29 -1.63,-0.78 -0.46,-0.62 -0.69,-1.57 -0.69,-2.88 0,-2.39 0.8,-3.661 2.32,-3.661 1.5,0 2.32,1.271 2.32,3.6 0,1.381 -0.22,2.3 -0.69,2.941 -0.37,0.5 -0.96,0.78 -1.63,0.78 m 0,-0.78 c 0.95,0 1.42,-0.96 1.42,-2.86 0,-2.01 -0.46,-2.95 -1.44,-2.95 -0.93,0 -1.4,0.98 -1.4,2.919 0,1.941 0.47,2.891 1.42,2.891" /><path
       id="path178"
       style="fill:none;stroke:#000000;stroke-width:0.49999699;stroke-linecap:butt;stroke-linejoin:miter;stroke-miterlimit:10;stroke-opacity:1;stroke-dasharray:none"
       d="m 186.499,119.419 0,4.499" /><path
       id="path180"
       style="fill:none;stroke:#000000;stroke-width:0.49999699;stroke-linecap:butt;stroke-linejoin:miter;stroke-miterlimit:10;stroke-opacity:1;stroke-dasharray:none"
       d="m 186.499,471.576 0,-4.41" /><path
       id="path182"
       style="fill:#000000;fill-opacity:1;fill-rule:evenodd;stroke:none"
       d="m 178.009,112.379 0,-5.05 0.88,0 0,7.09 -0.58,0 c -0.31,-1.09 -0.51,-1.24 -1.87,-1.41 l 0,-0.63 1.57,0" /><path
       id="path184"
       style="fill:#000000;fill-opacity:1;fill-rule:evenodd;stroke:none"
       d="m 183.735,114.419 c -0.66,0 -1.26,-0.29 -1.63,-0.78 -0.46,-0.62 -0.69,-1.57 -0.69,-2.88 0,-2.39 0.8,-3.661 2.32,-3.661 1.5,0 2.32,1.271 2.32,3.6 0,1.381 -0.22,2.3 -0.69,2.941 -0.37,0.5 -0.96,0.78 -1.63,0.78 m 0,-0.78 c 0.95,0 1.42,-0.96 1.42,-2.86 0,-2.01 -0.46,-2.95 -1.44,-2.95 -0.93,0 -1.4,0.98 -1.4,2.919 0,1.941 0.47,2.891 1.42,2.891" /><path
       id="path186"
       style="fill:#000000;fill-opacity:1;fill-rule:evenodd;stroke:none"
       d="m 189.302,114.419 c -0.661,0 -1.261,-0.29 -1.631,-0.78 -0.46,-0.62 -0.689,-1.57 -0.689,-2.88 0,-2.39 0.8,-3.661 2.32,-3.661 1.5,0 2.319,1.271 2.319,3.6 0,1.381 -0.219,2.3 -0.689,2.941 -0.371,0.5 -0.961,0.78 -1.63,0.78 m 0,-0.78 c 0.95,0 1.419,-0.96 1.419,-2.86 0,-2.01 -0.46,-2.95 -1.439,-2.95 -0.93,0 -1.4,0.98 -1.4,2.919 0,1.941 0.47,2.891 1.42,2.891" /><path
       id="path188"
       style="fill:#000000;fill-opacity:1;fill-rule:evenodd;stroke:none"
       d="m 194.868,114.419 c -0.66,0 -1.26,-0.29 -1.63,-0.78 -0.46,-0.62 -0.69,-1.57 -0.69,-2.88 0,-2.39 0.8,-3.661 2.32,-3.661 1.5,0 2.32,1.271 2.32,3.6 0,1.381 -0.22,2.3 -0.69,2.941 -0.37,0.5 -0.96,0.78 -1.63,0.78 m 0,-0.78 c 0.95,0 1.42,-0.96 1.42,-2.86 0,-2.01 -0.46,-2.95 -1.44,-2.95 -0.93,0 -1.4,0.98 -1.4,2.919 0,1.941 0.47,2.891 1.42,2.891" /><path
       id="path190"
       style="fill:none;stroke:#000000;stroke-width:0.49999699;stroke-linecap:butt;stroke-linejoin:miter;stroke-miterlimit:10;stroke-opacity:1;stroke-dasharray:none"
       d="m 242.248,119.419 0,4.499" /><path
       id="path192"
       style="fill:none;stroke:#000000;stroke-width:0.49999699;stroke-linecap:butt;stroke-linejoin:miter;stroke-miterlimit:10;stroke-opacity:1;stroke-dasharray:none"
       d="m 242.248,471.576 0,-4.41" /><path
       id="path194"
       style="fill:#000000;fill-opacity:1;fill-rule:evenodd;stroke:none"
       d="m 233.758,112.379 0,-5.05 0.88,0 0,7.09 -0.58,0 c -0.31,-1.09 -0.51,-1.24 -1.87,-1.41 l 0,-0.63 1.57,0" /><path
       id="path196"
       style="fill:#000000;fill-opacity:1;fill-rule:evenodd;stroke:none"
       d="m 241.495,114.419 -3.66,0 -0.53,-3.86 0.81,0 c 0.41,0.489 0.75,0.66 1.3,0.66 0.95,0 1.55,-0.65 1.55,-1.7 0,-1.021 -0.59,-1.64 -1.55,-1.64 -0.77,0 -1.24,0.39 -1.45,1.19 l -0.88,0 c 0.12,-0.58 0.22,-0.86 0.43,-1.121 0.4,-0.539 1.12,-0.85 1.92,-0.85 1.43,0 2.43,1.041 2.43,2.541 0,1.4 -0.93,2.359 -2.29,2.359 -0.5,0 -0.9,-0.129 -1.31,-0.429 l 0.28,1.979 2.95,0 0,0.871" /><path
       id="path198"
       style="fill:#000000;fill-opacity:1;fill-rule:evenodd;stroke:none"
       d="m 245.051,114.419 c -0.66,0 -1.26,-0.29 -1.63,-0.78 -0.46,-0.62 -0.69,-1.57 -0.69,-2.88 0,-2.39 0.8,-3.661 2.32,-3.661 1.5,0 2.32,1.271 2.32,3.6 0,1.381 -0.22,2.3 -0.69,2.941 -0.37,0.5 -0.96,0.78 -1.63,0.78 m 0,-0.78 c 0.95,0 1.42,-0.96 1.42,-2.86 0,-2.01 -0.46,-2.95 -1.44,-2.95 -0.93,0 -1.4,0.98 -1.4,2.919 0,1.941 0.47,2.891 1.42,2.891" /><path
       id="path200"
       style="fill:#000000;fill-opacity:1;fill-rule:evenodd;stroke:none"
       d="m 250.618,114.419 c -0.661,0 -1.261,-0.29 -1.63,-0.78 -0.461,-0.62 -0.69,-1.57 -0.69,-2.88 0,-2.39 0.8,-3.661 2.32,-3.661 1.5,0 2.32,1.271 2.32,3.6 0,1.381 -0.22,2.3 -0.69,2.941 -0.371,0.5 -0.96,0.78 -1.63,0.78 m 0,-0.78 c 0.95,0 1.42,-0.96 1.42,-2.86 0,-2.01 -0.461,-2.95 -1.44,-2.95 -0.93,0 -1.4,0.98 -1.4,2.919 0,1.941 0.47,2.891 1.42,2.891" /><path
       id="path202"
       style="fill:none;stroke:#000000;stroke-width:0.49999699;stroke-linecap:butt;stroke-linejoin:miter;stroke-miterlimit:10;stroke-opacity:1;stroke-dasharray:none"
       d="m 298.078,119.419 0,4.499" /><path
       id="path204"
       style="fill:none;stroke:#000000;stroke-width:0.49999699;stroke-linecap:butt;stroke-linejoin:miter;stroke-miterlimit:10;stroke-opacity:1;stroke-dasharray:none"
       d="m 298.078,471.576 0,-4.41" /><path
       id="path206"
       style="fill:#000000;fill-opacity:1;fill-rule:evenodd;stroke:none"
       d="m 292.058,108.198 -3.73,0 c 0.09,0.581 0.41,0.95 1.28,1.461 l 1,0.539 c 0.99,0.541 1.5,1.271 1.5,2.141 0,0.59 -0.24,1.14 -0.66,1.52 -0.42,0.38 -0.94,0.56 -1.61,0.56 -0.9,0 -1.57,-0.321 -1.96,-0.921 -0.25,-0.379 -0.36,-0.819 -0.38,-1.539 l 0.88,0 c 0.03,0.48 0.09,0.77 0.21,1 0.23,0.43 0.69,0.689 1.22,0.689 0.8,0 1.4,-0.569 1.4,-1.329 0,-0.56 -0.33,-1.04 -0.96,-1.4 l -0.92,-0.521 c -1.48,-0.839 -1.91,-1.509 -1.99,-3.069 l 4.72,0 0,0.869" /><path
       id="path208"
       style="fill:#000000;fill-opacity:1;fill-rule:evenodd;stroke:none"
       d="m 295.314,114.419 c -0.66,0 -1.26,-0.29 -1.63,-0.78 -0.46,-0.62 -0.689,-1.57 -0.689,-2.88 0,-2.39 0.8,-3.661 2.319,-3.661 1.5,0 2.32,1.271 2.32,3.6 0,1.381 -0.22,2.3 -0.689,2.941 -0.371,0.5 -0.961,0.78 -1.631,0.78 m 0,-0.78 c 0.95,0 1.42,-0.96 1.42,-2.86 0,-2.01 -0.46,-2.95 -1.439,-2.95 -0.931,0 -1.4,0.98 -1.4,2.919 0,1.941 0.469,2.891 1.419,2.891" /><path
       id="path210"
       style="fill:#000000;fill-opacity:1;fill-rule:evenodd;stroke:none"
       d="m 300.881,114.419 c -0.66,0 -1.26,-0.29 -1.63,-0.78 -0.46,-0.62 -0.69,-1.57 -0.69,-2.88 0,-2.39 0.8,-3.661 2.32,-3.661 1.5,0 2.32,1.271 2.32,3.6 0,1.381 -0.22,2.3 -0.69,2.941 -0.37,0.5 -0.96,0.78 -1.63,0.78 m 0,-0.78 c 0.95,0 1.42,-0.96 1.42,-2.86 0,-2.01 -0.46,-2.95 -1.44,-2.95 -0.93,0 -1.4,0.98 -1.4,2.919 0,1.941 0.47,2.891 1.42,2.891" /><path
       id="path212"
       style="fill:#000000;fill-opacity:1;fill-rule:evenodd;stroke:none"
       d="m 306.447,114.419 c -0.66,0 -1.26,-0.29 -1.63,-0.78 -0.46,-0.62 -0.69,-1.57 -0.69,-2.88 0,-2.39 0.8,-3.661 2.32,-3.661 1.5,0 2.32,1.271 2.32,3.6 0,1.381 -0.22,2.3 -0.69,2.941 -0.37,0.5 -0.96,0.78 -1.63,0.78 m 0,-0.78 c 0.95,0 1.42,-0.96 1.42,-2.86 0,-2.01 -0.46,-2.95 -1.44,-2.95 -0.93,0 -1.4,0.98 -1.4,2.919 0,1.941 0.47,2.891 1.42,2.891" /><path
       id="path214"
       style="fill:none;stroke:#000000;stroke-width:0.49999699;stroke-linecap:butt;stroke-linejoin:miter;stroke-miterlimit:10;stroke-opacity:1;stroke-dasharray:none"
       d="m 353.828,119.419 0,4.499" /><path
       id="path216"
       style="fill:none;stroke:#000000;stroke-width:0.49999699;stroke-linecap:butt;stroke-linejoin:miter;stroke-miterlimit:10;stroke-opacity:1;stroke-dasharray:none"
       d="m 353.828,471.576 0,-4.41" /><path
       id="path218"
       style="fill:#000000;fill-opacity:1;fill-rule:evenodd;stroke:none"
       d="m 347.808,108.198 -3.73,0 c 0.09,0.581 0.41,0.95 1.28,1.461 l 1,0.539 c 0.99,0.541 1.5,1.271 1.5,2.141 0,0.59 -0.24,1.14 -0.66,1.52 -0.42,0.38 -0.94,0.56 -1.61,0.56 -0.9,0 -1.57,-0.321 -1.96,-0.921 -0.25,-0.379 -0.36,-0.819 -0.38,-1.539 l 0.88,0 c 0.03,0.48 0.09,0.77 0.21,1 0.23,0.43 0.69,0.689 1.22,0.689 0.8,0 1.4,-0.569 1.4,-1.329 0,-0.56 -0.33,-1.04 -0.96,-1.4 l -0.92,-0.521 c -1.48,-0.839 -1.91,-1.509 -1.99,-3.069 l 4.72,0 0,0.869" /><path
       id="path220"
       style="fill:#000000;fill-opacity:1;fill-rule:evenodd;stroke:none"
       d="m 353.074,114.419 -3.66,0 -0.53,-3.86 0.81,0 c 0.41,0.489 0.75,0.66 1.3,0.66 0.95,0 1.55,-0.65 1.55,-1.7 0,-1.021 -0.59,-1.64 -1.55,-1.64 -0.77,0 -1.24,0.39 -1.45,1.19 l -0.88,0 c 0.12,-0.58 0.22,-0.86 0.43,-1.121 0.4,-0.539 1.12,-0.85 1.92,-0.85 1.43,0 2.43,1.041 2.43,2.541 0,1.4 -0.93,2.359 -2.29,2.359 -0.5,0 -0.9,-0.129 -1.31,-0.429 l 0.28,1.979 2.95,0 0,0.871" /><path
       id="path222"
       style="fill:#000000;fill-opacity:1;fill-rule:evenodd;stroke:none"
       d="m 356.63,114.419 c -0.66,0 -1.26,-0.29 -1.63,-0.78 -0.459,-0.62 -0.689,-1.57 -0.689,-2.88 0,-2.39 0.8,-3.661 2.319,-3.661 1.5,0 2.32,1.271 2.32,3.6 0,1.381 -0.22,2.3 -0.689,2.941 -0.371,0.5 -0.961,0.78 -1.631,0.78 m 0,-0.78 c 0.95,0 1.42,-0.96 1.42,-2.86 0,-2.01 -0.46,-2.95 -1.439,-2.95 -0.931,0 -1.4,0.98 -1.4,2.919 0,1.941 0.469,2.891 1.419,2.891" /><path
       id="path224"
       style="fill:#000000;fill-opacity:1;fill-rule:evenodd;stroke:none"
       d="m 362.197,114.419 c -0.66,0 -1.26,-0.29 -1.63,-0.78 -0.46,-0.62 -0.69,-1.57 -0.69,-2.88 0,-2.39 0.8,-3.661 2.32,-3.661 1.5,0 2.32,1.271 2.32,3.6 0,1.381 -0.22,2.3 -0.69,2.941 -0.37,0.5 -0.96,0.78 -1.63,0.78 m 0,-0.78 c 0.95,0 1.42,-0.96 1.42,-2.86 0,-2.01 -0.46,-2.95 -1.44,-2.95 -0.93,0 -1.4,0.98 -1.4,2.919 0,1.941 0.47,2.891 1.42,2.891" /><path
       id="path226"
       style="fill:none;stroke:#000000;stroke-width:0.49999699;stroke-linecap:butt;stroke-linejoin:miter;stroke-miterlimit:10;stroke-opacity:1;stroke-dasharray:none"
       d="m 409.667,119.419 0,4.499" /><path
       id="path228"
       style="fill:none;stroke:#000000;stroke-width:0.49999699;stroke-linecap:butt;stroke-linejoin:miter;stroke-miterlimit:10;stroke-opacity:1;stroke-dasharray:none"
       d="m 409.667,471.576 0,-4.41" /><path
       id="path230"
       style="fill:#000000;fill-opacity:1;fill-rule:evenodd;stroke:none"
       d="m 400.788,110.579 0.109,0 0.37,0.01 c 0.97,0 1.47,-0.441 1.47,-1.291 0,-0.889 -0.55,-1.419 -1.47,-1.419 -0.96,0 -1.429,0.48 -1.49,1.51 l -0.88,0 c 0.041,-0.57 0.141,-0.941 0.31,-1.26 0.36,-0.681 1.06,-1.031 2.03,-1.031 1.46,0 2.4,0.871 2.4,2.211 0,0.9 -0.35,1.4 -1.2,1.689 0.66,0.261 0.99,0.761 0.99,1.471 0,1.22 -0.81,1.95 -2.16,1.95 -1.429,0 -2.19,-0.78 -2.22,-2.29 l 0.88,0 c 0.011,0.43 0.05,0.669 0.161,0.89 0.2,0.39 0.639,0.629 1.189,0.629 0.78,0 1.25,-0.459 1.25,-1.209 0,-0.5 -0.18,-0.8 -0.57,-0.96 -0.24,-0.1 -0.55,-0.14 -1.169,-0.15 l 0,-0.75" /><path
       id="path232"
       style="fill:#000000;fill-opacity:1;fill-rule:evenodd;stroke:none"
       d="m 406.894,114.419 c -0.66,0 -1.26,-0.29 -1.63,-0.78 -0.46,-0.62 -0.69,-1.57 -0.69,-2.88 0,-2.39 0.8,-3.661 2.32,-3.661 1.5,0 2.32,1.271 2.32,3.6 0,1.381 -0.22,2.3 -0.69,2.941 -0.37,0.5 -0.96,0.78 -1.63,0.78 m 0,-0.78 c 0.95,0 1.42,-0.96 1.42,-2.86 0,-2.01 -0.46,-2.95 -1.44,-2.95 -0.93,0 -1.4,0.98 -1.4,2.919 0,1.941 0.47,2.891 1.42,2.891" /><path
       id="path234"
       style="fill:#000000;fill-opacity:1;fill-rule:evenodd;stroke:none"
       d="m 412.46,114.419 c -0.66,0 -1.26,-0.29 -1.63,-0.78 -0.46,-0.62 -0.69,-1.57 -0.69,-2.88 0,-2.39 0.8,-3.661 2.32,-3.661 1.5,0 2.32,1.271 2.32,3.6 0,1.381 -0.22,2.3 -0.69,2.941 -0.37,0.5 -0.96,0.78 -1.63,0.78 m 0,-0.78 c 0.95,0 1.42,-0.96 1.42,-2.86 0,-2.01 -0.46,-2.95 -1.44,-2.95 -0.93,0 -1.4,0.98 -1.4,2.919 0,1.941 0.47,2.891 1.42,2.891" /><path
       id="path236"
       style="fill:#000000;fill-opacity:1;fill-rule:evenodd;stroke:none"
       d="m 418.027,114.419 c -0.661,0 -1.261,-0.29 -1.631,-0.78 -0.46,-0.62 -0.69,-1.57 -0.69,-2.88 0,-2.39 0.8,-3.661 2.321,-3.661 1.5,0 2.319,1.271 2.319,3.6 0,1.381 -0.219,2.3 -0.69,2.941 -0.37,0.5 -0.96,0.78 -1.629,0.78 m 0,-0.78 c 0.95,0 1.419,-0.96 1.419,-2.86 0,-2.01 -0.46,-2.95 -1.44,-2.95 -0.929,0 -1.4,0.98 -1.4,2.919 0,1.941 0.471,2.891 1.421,2.891" /><path
       id="path238"
       style="fill:none;stroke:#000000;stroke-width:0.49999699;stroke-linecap:butt;stroke-linejoin:miter;stroke-miterlimit:10;stroke-opacity:1;stroke-dasharray:none"
       d="m 465.417,119.419 0,4.499" /><path
       id="path240"
       style="fill:none;stroke:#000000;stroke-width:0.49999699;stroke-linecap:butt;stroke-linejoin:miter;stroke-miterlimit:10;stroke-opacity:1;stroke-dasharray:none"
       d="m 465.417,471.576 0,-4.41" /><path
       id="path242"
       style="fill:#000000;fill-opacity:1;fill-rule:evenodd;stroke:none"
       d="m 456.537,110.579 0.11,0 0.37,0.01 c 0.97,0 1.47,-0.441 1.47,-1.291 0,-0.889 -0.55,-1.419 -1.47,-1.419 -0.96,0 -1.43,0.48 -1.49,1.51 l -0.88,0 c 0.04,-0.57 0.14,-0.941 0.31,-1.26 0.36,-0.681 1.06,-1.031 2.03,-1.031 1.46,0 2.4,0.871 2.4,2.211 0,0.9 -0.35,1.4 -1.2,1.689 0.66,0.261 0.99,0.761 0.99,1.471 0,1.22 -0.81,1.95 -2.16,1.95 -1.43,0 -2.19,-0.78 -2.22,-2.29 l 0.88,0 c 0.01,0.43 0.05,0.669 0.16,0.89 0.2,0.39 0.64,0.629 1.19,0.629 0.78,0 1.25,-0.459 1.25,-1.209 0,-0.5 -0.18,-0.8 -0.57,-0.96 -0.24,-0.1 -0.55,-0.14 -1.17,-0.15 l 0,-0.75" /><path
       id="path244"
       style="fill:#000000;fill-opacity:1;fill-rule:evenodd;stroke:none"
       d="m 464.653,114.419 -3.66,0 -0.53,-3.86 0.81,0 c 0.41,0.489 0.75,0.66 1.3,0.66 0.95,0 1.55,-0.65 1.55,-1.7 0,-1.021 -0.59,-1.64 -1.55,-1.64 -0.77,0 -1.24,0.39 -1.45,1.19 l -0.88,0 c 0.12,-0.58 0.22,-0.86 0.43,-1.121 0.4,-0.539 1.12,-0.85 1.92,-0.85 1.43,0 2.43,1.041 2.43,2.541 0,1.4 -0.93,2.359 -2.29,2.359 -0.5,0 -0.9,-0.129 -1.31,-0.429 l 0.28,1.979 2.95,0 0,0.871" /><path
       id="path246"
       style="fill:#000000;fill-opacity:1;fill-rule:evenodd;stroke:none"
       d="m 468.21,114.419 c -0.66,0 -1.26,-0.29 -1.63,-0.78 -0.46,-0.62 -0.69,-1.57 -0.69,-2.88 0,-2.39 0.8,-3.661 2.32,-3.661 1.5,0 2.32,1.271 2.32,3.6 0,1.381 -0.22,2.3 -0.69,2.941 -0.37,0.5 -0.96,0.78 -1.63,0.78 m 0,-0.78 c 0.95,0 1.42,-0.96 1.42,-2.86 0,-2.01 -0.46,-2.95 -1.44,-2.95 -0.93,0 -1.4,0.98 -1.4,2.919 0,1.941 0.47,2.891 1.42,2.891" /><path
       id="path248"
       style="fill:#000000;fill-opacity:1;fill-rule:evenodd;stroke:none"
       d="m 473.776,114.419 c -0.66,0 -1.26,-0.29 -1.63,-0.78 -0.46,-0.62 -0.69,-1.57 -0.69,-2.88 0,-2.39 0.8,-3.661 2.32,-3.661 1.5,0 2.32,1.271 2.32,3.6 0,1.381 -0.22,2.3 -0.69,2.941 -0.37,0.5 -0.96,0.78 -1.63,0.78 m 0,-0.78 c 0.95,0 1.42,-0.96 1.42,-2.86 0,-2.01 -0.46,-2.95 -1.44,-2.95 -0.93,0 -1.4,0.98 -1.4,2.919 0,1.941 0.47,2.891 1.42,2.891" /><path
       id="path250"
       style="fill:none;stroke:#000000;stroke-width:0.49999699;stroke-linecap:butt;stroke-linejoin:miter;stroke-miterlimit:10;stroke-opacity:1;stroke-dasharray:none"
       d="m 521.246,119.419 0,4.499" /><path
       id="path252"
       style="fill:none;stroke:#000000;stroke-width:0.49999699;stroke-linecap:butt;stroke-linejoin:miter;stroke-miterlimit:10;stroke-opacity:1;stroke-dasharray:none"
       d="m 521.246,471.576 0,-4.41" /><path
       id="path254"
       style="fill:#000000;fill-opacity:1;fill-rule:evenodd;stroke:none"
       d="m 513.437,109.029 0,-1.7 0.879,0 0,1.7 1.05,0 0,0.79 -1.05,0 0,4.6 -0.65,0 -3.22,-4.46 0,-0.93 2.991,0 m 0,0.79 -2.221,0 2.221,3.1 0,-3.1" /><path
       id="path256"
       style="fill:#000000;fill-opacity:1;fill-rule:evenodd;stroke:none"
       d="m 518.483,114.419 c -0.66,0 -1.26,-0.29 -1.63,-0.78 -0.46,-0.62 -0.69,-1.57 -0.69,-2.88 0,-2.39 0.8,-3.661 2.32,-3.661 1.5,0 2.32,1.271 2.32,3.6 0,1.381 -0.22,2.3 -0.69,2.941 -0.37,0.5 -0.96,0.78 -1.63,0.78 m 0,-0.78 c 0.95,0 1.42,-0.96 1.42,-2.86 0,-2.01 -0.46,-2.95 -1.44,-2.95 -0.93,0 -1.4,0.98 -1.4,2.919 0,1.941 0.47,2.891 1.42,2.891" /><path
       id="path258"
       style="fill:#000000;fill-opacity:1;fill-rule:evenodd;stroke:none"
       d="m 524.049,114.419 c -0.66,0 -1.26,-0.29 -1.629,-0.78 -0.461,-0.62 -0.691,-1.57 -0.691,-2.88 0,-2.39 0.8,-3.661 2.32,-3.661 1.5,0 2.32,1.271 2.32,3.6 0,1.381 -0.22,2.3 -0.69,2.941 -0.37,0.5 -0.96,0.78 -1.63,0.78 m 0,-0.78 c 0.95,0 1.42,-0.96 1.42,-2.86 0,-2.01 -0.46,-2.95 -1.44,-2.95 -0.93,0 -1.4,0.98 -1.4,2.919 0,1.941 0.47,2.891 1.42,2.891" /><path
       id="path260"
       style="fill:#000000;fill-opacity:1;fill-rule:evenodd;stroke:none"
       d="m 529.616,114.419 c -0.66,0 -1.26,-0.29 -1.63,-0.78 -0.46,-0.62 -0.69,-1.57 -0.69,-2.88 0,-2.39 0.8,-3.661 2.32,-3.661 1.5,0 2.32,1.271 2.32,3.6 0,1.381 -0.22,2.3 -0.69,2.941 -0.37,0.5 -0.96,0.78 -1.63,0.78 m 0,-0.78 c 0.95,0 1.42,-0.96 1.42,-2.86 0,-2.01 -0.46,-2.95 -1.44,-2.95 -0.93,0 -1.4,0.98 -1.4,2.919 0,1.941 0.47,2.891 1.42,2.891" /><path
       id="path262"
       style="fill:none;stroke:#000000;stroke-width:0.49999699;stroke-linecap:butt;stroke-linejoin:miter;stroke-miterlimit:10;stroke-opacity:1;stroke-dasharray:none"
       d="m 74.9176,119.419 4.4136,0" /><path
       id="path264"
       style="fill:none;stroke:#000000;stroke-width:0.49999699;stroke-linecap:butt;stroke-linejoin:miter;stroke-miterlimit:10;stroke-opacity:1;stroke-dasharray:none"
       d="m 521.246,119.419 -4.5,0" /><path
       id="path266"
       style="fill:#000000;fill-opacity:1;fill-rule:evenodd;stroke:none"
       d="m 69.2496,122.839 c -0.6601,0 -1.2601,-0.291 -1.6301,-0.78 -0.4601,-0.62 -0.6902,-1.57 -0.6902,-2.88 0,-2.39 0.8,-3.66 2.3203,-3.66 1.5,0 2.3199,1.27 2.3199,3.599 0,1.38 -0.2199,2.3 -0.6902,2.941 -0.3699,0.5 -0.9598,0.78 -1.6297,0.78 m 0,-0.78 c 0.95,0 1.4199,-0.961 1.4199,-2.861 0,-2.009 -0.4601,-2.95 -1.4402,-2.95 -0.9297,0 -1.4,0.981 -1.4,2.92 0,1.941 0.4703,2.891 1.4203,2.891" /><path
       id="path268"
       style="fill:none;stroke:#000000;stroke-width:0.49999699;stroke-linecap:butt;stroke-linejoin:miter;stroke-miterlimit:10;stroke-opacity:1;stroke-dasharray:none"
       d="m 74.9176,154.668 4.4136,0" /><path
       id="path270"
       style="fill:none;stroke:#000000;stroke-width:0.49999699;stroke-linecap:butt;stroke-linejoin:miter;stroke-miterlimit:10;stroke-opacity:1;stroke-dasharray:none"
       d="m 521.246,154.668 -4.5,0" /><path
       id="path272"
       style="fill:#000000;fill-opacity:1;fill-rule:evenodd;stroke:none"
       d="m 65.6766,158.088 -3.6602,0 -0.5301,-3.86 0.8102,0 c 0.4101,0.49 0.75,0.66 1.3,0.66 0.95,0 1.55,-0.65 1.55,-1.7 0,-1.02 -0.5899,-1.64 -1.55,-1.64 -0.7699,0 -1.2399,0.39 -1.45,1.19 l -0.8801,0 c 0.1199,-0.58 0.2199,-0.859 0.4301,-1.12 0.4,-0.539 1.1199,-0.85 1.9199,-0.85 1.4301,0 2.4301,1.04 2.4301,2.54 0,1.4 -0.9301,2.36 -2.2899,2.36 -0.5,0 -0.9,-0.13 -1.3101,-0.43 l 0.2801,1.98 2.95,0 0,0.87" /><path
       id="path274"
       style="fill:#000000;fill-opacity:1;fill-rule:evenodd;stroke:none"
       d="m 69.2328,158.088 c -0.6598,0 -1.2598,-0.29 -1.6301,-0.78 -0.4597,-0.62 -0.6898,-1.57 -0.6898,-2.88 0,-2.39 0.8,-3.66 2.3199,-3.66 1.5,0 2.3199,1.27 2.3199,3.6 0,1.38 -0.2199,2.3 -0.6898,2.94 -0.3699,0.5 -0.9602,0.78 -1.6301,0.78 m 0,-0.78 c 0.95,0 1.4199,-0.96 1.4199,-2.86 0,-2.01 -0.4597,-2.95 -1.4398,-2.95 -0.9301,0 -1.4,0.981 -1.4,2.92 0,1.94 0.4699,2.89 1.4199,2.89" /><path
       id="path276"
       style="fill:none;stroke:#000000;stroke-width:0.49999699;stroke-linecap:butt;stroke-linejoin:miter;stroke-miterlimit:10;stroke-opacity:1;stroke-dasharray:none"
       d="m 74.9176,189.918 4.4136,0" /><path
       id="path278"
       style="fill:none;stroke:#000000;stroke-width:0.49999699;stroke-linecap:butt;stroke-linejoin:miter;stroke-miterlimit:10;stroke-opacity:1;stroke-dasharray:none"
       d="m 521.246,189.918 -4.5,0" /><path
       id="path280"
       style="fill:#000000;fill-opacity:1;fill-rule:evenodd;stroke:none"
       d="m 57.9227,191.298 0,-5.05 0.8796,0 0,7.09 -0.5796,0 c -0.3102,-1.09 -0.5102,-1.24 -1.8704,-1.41 l 0,-0.63 1.5704,0" /><path
       id="path282"
       style="fill:#000000;fill-opacity:1;fill-rule:evenodd;stroke:none"
       d="m 63.6488,193.338 c -0.6597,0 -1.2597,-0.29 -1.63,-0.78 -0.4598,-0.62 -0.6899,-1.57 -0.6899,-2.88 0,-2.39 0.8,-3.66 2.3199,-3.66 1.5,0 2.32,1.27 2.32,3.6 0,1.38 -0.22,2.3 -0.6899,2.94 -0.3699,0.5 -0.9601,0.78 -1.6301,0.78 m 0,-0.78 c 0.95,0 1.42,-0.96 1.42,-2.86 0,-2.01 -0.4598,-2.95 -1.4399,-2.95 -0.9301,0 -1.4,0.98 -1.4,2.92 0,1.94 0.4699,2.89 1.4199,2.89" /><path
       id="path284"
       style="fill:#000000;fill-opacity:1;fill-rule:evenodd;stroke:none"
       d="m 69.2152,193.338 c -0.6601,0 -1.2601,-0.29 -1.63,-0.78 -0.4598,-0.62 -0.6899,-1.57 -0.6899,-2.88 0,-2.39 0.8,-3.66 2.3199,-3.66 1.5,0 2.32,1.27 2.32,3.6 0,1.38 -0.22,2.3 -0.6899,2.94 -0.3699,0.5 -0.9601,0.78 -1.6301,0.78 m 0,-0.78 c 0.95,0 1.42,-0.96 1.42,-2.86 0,-2.01 -0.4598,-2.95 -1.4399,-2.95 -0.9301,0 -1.4,0.98 -1.4,2.92 0,1.94 0.4699,2.89 1.4199,2.89" /><path
       id="path286"
       style="fill:none;stroke:#000000;stroke-width:0.49999699;stroke-linecap:butt;stroke-linejoin:miter;stroke-miterlimit:10;stroke-opacity:1;stroke-dasharray:none"
       d="m 74.9176,225.078 4.4136,0" /><path
       id="path288"
       style="fill:none;stroke:#000000;stroke-width:0.49999699;stroke-linecap:butt;stroke-linejoin:miter;stroke-miterlimit:10;stroke-opacity:1;stroke-dasharray:none"
       d="m 521.246,225.078 -4.5,0" /><path
       id="path290"
       style="fill:#000000;fill-opacity:1;fill-rule:evenodd;stroke:none"
       d="m 57.9227,226.468 0,-5.05 0.8796,0 0,7.09 -0.5796,0 c -0.3102,-1.09 -0.5102,-1.24 -1.8704,-1.41 l 0,-0.63 1.5704,0" /><path
       id="path292"
       style="fill:#000000;fill-opacity:1;fill-rule:evenodd;stroke:none"
       d="m 65.659,228.508 -3.6602,0 -0.53,-3.86 0.8101,0 c 0.4102,0.49 0.75,0.66 1.3,0.66 0.95,0 1.55,-0.65 1.55,-1.7 0,-1.02 -0.5898,-1.64 -1.55,-1.64 -0.7699,0 -1.2398,0.39 -1.45,1.19 l -0.8801,0 c 0.12,-0.58 0.22,-0.86 0.4301,-1.12 0.4,-0.54 1.1199,-0.85 1.9199,-0.85 1.4301,0 2.4301,1.04 2.4301,2.54 0,1.4 -0.9301,2.36 -2.2898,2.36 -0.5,0 -0.9,-0.13 -1.3102,-0.43 l 0.2801,1.98 2.95,0 0,0.87" /><path
       id="path294"
       style="fill:#000000;fill-opacity:1;fill-rule:evenodd;stroke:none"
       d="m 69.2152,228.508 c -0.6601,0 -1.2601,-0.29 -1.63,-0.78 -0.4598,-0.62 -0.6899,-1.57 -0.6899,-2.88 0,-2.39 0.8,-3.66 2.3199,-3.66 1.5,0 2.32,1.27 2.32,3.6 0,1.38 -0.22,2.3 -0.6899,2.94 -0.3699,0.5 -0.9601,0.78 -1.6301,0.78 m 0,-0.78 c 0.95,0 1.42,-0.96 1.42,-2.86 0,-2.01 -0.4598,-2.95 -1.4399,-2.95 -0.9301,0 -1.4,0.98 -1.4,2.92 0,1.94 0.4699,2.89 1.4199,2.89" /><path
       id="path296"
       style="fill:none;stroke:#000000;stroke-width:0.49999699;stroke-linecap:butt;stroke-linejoin:miter;stroke-miterlimit:10;stroke-opacity:1;stroke-dasharray:none"
       d="m 74.9176,260.328 4.4136,0" /><path
       id="path298"
       style="fill:none;stroke:#000000;stroke-width:0.49999699;stroke-linecap:butt;stroke-linejoin:miter;stroke-miterlimit:10;stroke-opacity:1;stroke-dasharray:none"
       d="m 521.246,260.328 -4.5,0" /><path
       id="path300"
       style="fill:#000000;fill-opacity:1;fill-rule:evenodd;stroke:none"
       d="m 60.3926,257.538 -3.7301,0 c 0.0898,0.58 0.4102,0.95 1.2801,1.46 l 1,0.54 c 0.9898,0.54 1.5,1.27 1.5,2.14 0,0.59 -0.2403,1.14 -0.6602,1.52 -0.4199,0.38 -0.9398,0.56 -1.6097,0.56 -0.9,0 -1.5704,-0.32 -1.9602,-0.92 -0.25,-0.38 -0.3602,-0.82 -0.3801,-1.54 l 0.8801,0 c 0.0301,0.48 0.0898,0.77 0.2102,1 0.2296,0.43 0.6898,0.69 1.2199,0.69 0.8,0 1.4,-0.57 1.4,-1.33 0,-0.56 -0.3301,-1.04 -0.9602,-1.4 l -0.9199,-0.52 c -1.4801,-0.84 -1.9102,-1.51 -1.9898,-3.07 l 4.7199,0 0,0.87" /><path
       id="path302"
       style="fill:#000000;fill-opacity:1;fill-rule:evenodd;stroke:none"
       d="m 63.6488,263.758 c -0.6597,0 -1.2597,-0.29 -1.63,-0.78 -0.4598,-0.62 -0.6899,-1.57 -0.6899,-2.88 0,-2.39 0.8,-3.66 2.3199,-3.66 1.5,0 2.32,1.27 2.32,3.6 0,1.38 -0.22,2.3 -0.6899,2.94 -0.3699,0.5 -0.9601,0.78 -1.6301,0.78 m 0,-0.78 c 0.95,0 1.42,-0.96 1.42,-2.86 0,-2.01 -0.4598,-2.95 -1.4399,-2.95 -0.9301,0 -1.4,0.98 -1.4,2.92 0,1.94 0.4699,2.89 1.4199,2.89" /><path
       id="path304"
       style="fill:#000000;fill-opacity:1;fill-rule:evenodd;stroke:none"
       d="m 69.2152,263.758 c -0.6601,0 -1.2601,-0.29 -1.63,-0.78 -0.4598,-0.62 -0.6899,-1.57 -0.6899,-2.88 0,-2.39 0.8,-3.66 2.3199,-3.66 1.5,0 2.32,1.27 2.32,3.6 0,1.38 -0.22,2.3 -0.6899,2.94 -0.3699,0.5 -0.9601,0.78 -1.6301,0.78 m 0,-0.78 c 0.95,0 1.42,-0.96 1.42,-2.86 0,-2.01 -0.4598,-2.95 -1.4399,-2.95 -0.9301,0 -1.4,0.98 -1.4,2.92 0,1.94 0.4699,2.89 1.4199,2.89" /><path
       id="path306"
       style="fill:none;stroke:#000000;stroke-width:0.49999699;stroke-linecap:butt;stroke-linejoin:miter;stroke-miterlimit:10;stroke-opacity:1;stroke-dasharray:none"
       d="m 74.9176,295.497 4.4136,0" /><path
       id="path308"
       style="fill:none;stroke:#000000;stroke-width:0.49999699;stroke-linecap:butt;stroke-linejoin:miter;stroke-miterlimit:10;stroke-opacity:1;stroke-dasharray:none"
       d="m 521.246,295.497 -4.5,0" /><path
       id="path310"
       style="fill:#000000;fill-opacity:1;fill-rule:evenodd;stroke:none"
       d="m 60.3926,292.697 -3.7301,0 c 0.0898,0.58 0.4102,0.95 1.2801,1.46 l 1,0.54 c 0.9898,0.541 1.5,1.271 1.5,2.141 0,0.589 -0.2403,1.139 -0.6602,1.519 -0.4199,0.381 -0.9398,0.561 -1.6097,0.561 -0.9,0 -1.5704,-0.321 -1.9602,-0.921 -0.25,-0.379 -0.3602,-0.82 -0.3801,-1.54 l 0.8801,0 c 0.0301,0.481 0.0898,0.77 0.2102,1 0.2296,0.431 0.6898,0.69 1.2199,0.69 0.8,0 1.4,-0.57 1.4,-1.329 0,-0.561 -0.3301,-1.041 -0.9602,-1.4 l -0.9199,-0.521 c -1.4801,-0.84 -1.9102,-1.509 -1.9898,-3.07 l 4.7199,0 0,0.87" /><path
       id="path312"
       style="fill:#000000;fill-opacity:1;fill-rule:evenodd;stroke:none"
       d="m 65.659,298.918 -3.6602,0 -0.53,-3.861 0.8101,0 c 0.4102,0.49 0.75,0.661 1.3,0.661 0.95,0 1.55,-0.65 1.55,-1.7 0,-1.021 -0.5898,-1.641 -1.55,-1.641 -0.7699,0 -1.2398,0.391 -1.45,1.191 l -0.8801,0 c 0.12,-0.58 0.22,-0.861 0.4301,-1.121 0.4,-0.54 1.1199,-0.85 1.9199,-0.85 1.4301,0 2.4301,1.041 2.4301,2.541 0,1.4 -0.9301,2.359 -2.2898,2.359 -0.5,0 -0.9,-0.129 -1.3102,-0.429 l 0.2801,1.979 2.95,0 0,0.871" /><path
       id="path314"
       style="fill:#000000;fill-opacity:1;fill-rule:evenodd;stroke:none"
       d="m 69.2152,298.918 c -0.6601,0 -1.2601,-0.291 -1.63,-0.78 -0.4598,-0.62 -0.6899,-1.57 -0.6899,-2.881 0,-2.389 0.8,-3.66 2.3199,-3.66 1.5,0 2.32,1.271 2.32,3.6 0,1.38 -0.22,2.3 -0.6899,2.941 -0.3699,0.5 -0.9601,0.78 -1.6301,0.78 m 0,-0.78 c 0.95,0 1.42,-0.961 1.42,-2.861 0,-2.009 -0.4598,-2.95 -1.4399,-2.95 -0.9301,0 -1.4,0.98 -1.4,2.92 0,1.941 0.4699,2.891 1.4199,2.891" /><path
       id="path316"
       style="fill:none;stroke:#000000;stroke-width:0.49999699;stroke-linecap:butt;stroke-linejoin:miter;stroke-miterlimit:10;stroke-opacity:1;stroke-dasharray:none"
       d="m 74.9176,330.747 4.4136,0" /><path
       id="path318"
       style="fill:none;stroke:#000000;stroke-width:0.49999699;stroke-linecap:butt;stroke-linejoin:miter;stroke-miterlimit:10;stroke-opacity:1;stroke-dasharray:none"
       d="m 521.246,330.747 -4.5,0" /><path
       id="path320"
       style="fill:#000000;fill-opacity:1;fill-rule:evenodd;stroke:none"
       d="m 57.5426,330.327 0.1097,0 0.3704,0.01 c 0.9699,0 1.4699,-0.44 1.4699,-1.29 0,-0.89 -0.55,-1.42 -1.4699,-1.42 -0.9602,0 -1.4301,0.48 -1.4903,1.51 l -0.8801,0 c 0.0403,-0.57 0.1403,-0.94 0.3102,-1.26 0.3602,-0.68 1.0602,-1.03 2.0301,-1.03 1.4597,0 2.4,0.87 2.4,2.21 0,0.9 -0.35,1.4 -1.2,1.69 0.6597,0.26 0.9898,0.76 0.9898,1.47 0,1.22 -0.8097,1.95 -2.1597,1.95 -1.4301,0 -2.1903,-0.78 -2.2204,-2.29 l 0.8801,0 c 0.0102,0.43 0.05,0.67 0.1602,0.89 0.2,0.39 0.6398,0.63 1.1898,0.63 0.7801,0 1.25,-0.46 1.25,-1.21 0,-0.5 -0.1801,-0.8 -0.5699,-0.96 -0.2398,-0.1 -0.55,-0.14 -1.1699,-0.15 l 0,-0.75" /><path
       id="path322"
       style="fill:#000000;fill-opacity:1;fill-rule:evenodd;stroke:none"
       d="m 63.6488,334.167 c -0.6597,0 -1.2597,-0.29 -1.63,-0.78 -0.4598,-0.62 -0.6899,-1.57 -0.6899,-2.88 0,-2.39 0.8,-3.66 2.3199,-3.66 1.5,0 2.32,1.27 2.32,3.6 0,1.38 -0.22,2.3 -0.6899,2.94 -0.3699,0.5 -0.9601,0.78 -1.6301,0.78 m 0,-0.78 c 0.95,0 1.42,-0.96 1.42,-2.86 0,-2.01 -0.4598,-2.95 -1.4399,-2.95 -0.9301,0 -1.4,0.98 -1.4,2.92 0,1.94 0.4699,2.89 1.4199,2.89" /><path
       id="path324"
       style="fill:#000000;fill-opacity:1;fill-rule:evenodd;stroke:none"
       d="m 69.2152,334.167 c -0.6601,0 -1.2601,-0.29 -1.63,-0.78 -0.4598,-0.62 -0.6899,-1.57 -0.6899,-2.88 0,-2.39 0.8,-3.66 2.3199,-3.66 1.5,0 2.32,1.27 2.32,3.6 0,1.38 -0.22,2.3 -0.6899,2.94 -0.3699,0.5 -0.9601,0.78 -1.6301,0.78 m 0,-0.78 c 0.95,0 1.42,-0.96 1.42,-2.86 0,-2.01 -0.4598,-2.95 -1.4399,-2.95 -0.9301,0 -1.4,0.98 -1.4,2.92 0,1.94 0.4699,2.89 1.4199,2.89" /><path
       id="path326"
       style="fill:none;stroke:#000000;stroke-width:0.49999699;stroke-linecap:butt;stroke-linejoin:miter;stroke-miterlimit:10;stroke-opacity:1;stroke-dasharray:none"
       d="m 74.9176,365.997 4.4136,0" /><path
       id="path328"
       style="fill:none;stroke:#000000;stroke-width:0.49999699;stroke-linecap:butt;stroke-linejoin:miter;stroke-miterlimit:10;stroke-opacity:1;stroke-dasharray:none"
       d="m 521.246,365.997 -4.5,0" /><path
       id="path330"
       style="fill:#000000;fill-opacity:1;fill-rule:evenodd;stroke:none"
       d="m 57.5426,365.577 0.1097,0 0.3704,0.01 c 0.9699,0 1.4699,-0.44 1.4699,-1.29 0,-0.89 -0.55,-1.42 -1.4699,-1.42 -0.9602,0 -1.4301,0.48 -1.4903,1.51 l -0.8801,0 c 0.0403,-0.57 0.1403,-0.94 0.3102,-1.26 0.3602,-0.68 1.0602,-1.03 2.0301,-1.03 1.4597,0 2.4,0.87 2.4,2.21 0,0.9 -0.35,1.4 -1.2,1.69 0.6597,0.26 0.9898,0.76 0.9898,1.47 0,1.22 -0.8097,1.95 -2.1597,1.95 -1.4301,0 -2.1903,-0.78 -2.2204,-2.29 l 0.8801,0 c 0.0102,0.43 0.05,0.67 0.1602,0.89 0.2,0.39 0.6398,0.63 1.1898,0.63 0.7801,0 1.25,-0.46 1.25,-1.21 0,-0.5 -0.1801,-0.8 -0.5699,-0.96 -0.2398,-0.1 -0.55,-0.14 -1.1699,-0.15 l 0,-0.75" /><path
       id="path332"
       style="fill:#000000;fill-opacity:1;fill-rule:evenodd;stroke:none"
       d="m 65.659,369.417 -3.6602,0 -0.53,-3.86 0.8101,0 c 0.4102,0.49 0.75,0.66 1.3,0.66 0.95,0 1.55,-0.65 1.55,-1.7 0,-1.02 -0.5898,-1.64 -1.55,-1.64 -0.7699,0 -1.2398,0.39 -1.45,1.19 l -0.8801,0 c 0.12,-0.58 0.22,-0.86 0.4301,-1.12 0.4,-0.54 1.1199,-0.85 1.9199,-0.85 1.4301,0 2.4301,1.04 2.4301,2.54 0,1.4 -0.9301,2.36 -2.2898,2.36 -0.5,0 -0.9,-0.13 -1.3102,-0.43 l 0.2801,1.98 2.95,0 0,0.87" /><path
       id="path334"
       style="fill:#000000;fill-opacity:1;fill-rule:evenodd;stroke:none"
       d="m 69.2152,369.417 c -0.6601,0 -1.2601,-0.29 -1.63,-0.78 -0.4598,-0.62 -0.6899,-1.57 -0.6899,-2.88 0,-2.39 0.8,-3.66 2.3199,-3.66 1.5,0 2.32,1.27 2.32,3.6 0,1.38 -0.22,2.3 -0.6899,2.94 -0.3699,0.5 -0.9601,0.78 -1.6301,0.78 m 0,-0.78 c 0.95,0 1.42,-0.96 1.42,-2.86 0,-2.01 -0.4598,-2.95 -1.4399,-2.95 -0.9301,0 -1.4,0.98 -1.4,2.92 0,1.94 0.4699,2.89 1.4199,2.89" /><path
       id="path336"
       style="fill:none;stroke:#000000;stroke-width:0.49999699;stroke-linecap:butt;stroke-linejoin:miter;stroke-miterlimit:10;stroke-opacity:1;stroke-dasharray:none"
       d="m 74.9176,401.167 4.4136,0" /><path
       id="path338"
       style="fill:none;stroke:#000000;stroke-width:0.49999699;stroke-linecap:butt;stroke-linejoin:miter;stroke-miterlimit:10;stroke-opacity:1;stroke-dasharray:none"
       d="m 521.246,401.167 -4.5,0" /><path
       id="path340"
       style="fill:#000000;fill-opacity:1;fill-rule:evenodd;stroke:none"
       d="m 58.6023,399.197 0,-1.7 0.8801,0 0,1.7 1.05,0 0,0.79 -1.05,0 0,4.6 -0.65,0 -3.2199,-4.46 0,-0.93 2.9898,0 m 0,0.79 -2.2199,0 2.2199,3.1 0,-3.1" /><path
       id="path342"
       style="fill:#000000;fill-opacity:1;fill-rule:evenodd;stroke:none"
       d="m 63.6488,404.587 c -0.6597,0 -1.2597,-0.29 -1.63,-0.78 -0.4598,-0.62 -0.6899,-1.57 -0.6899,-2.88 0,-2.39 0.8,-3.66 2.3199,-3.66 1.5,0 2.32,1.27 2.32,3.6 0,1.38 -0.22,2.3 -0.6899,2.94 -0.3699,0.5 -0.9601,0.78 -1.6301,0.78 m 0,-0.78 c 0.95,0 1.42,-0.96 1.42,-2.86 0,-2.01 -0.4598,-2.95 -1.4399,-2.95 -0.9301,0 -1.4,0.98 -1.4,2.92 0,1.94 0.4699,2.89 1.4199,2.89" /><path
       id="path344"
       style="fill:#000000;fill-opacity:1;fill-rule:evenodd;stroke:none"
       d="m 69.2152,404.587 c -0.6601,0 -1.2601,-0.29 -1.63,-0.78 -0.4598,-0.62 -0.6899,-1.57 -0.6899,-2.88 0,-2.39 0.8,-3.66 2.3199,-3.66 1.5,0 2.32,1.27 2.32,3.6 0,1.38 -0.22,2.3 -0.6899,2.94 -0.3699,0.5 -0.9601,0.78 -1.6301,0.78 m 0,-0.78 c 0.95,0 1.42,-0.96 1.42,-2.86 0,-2.01 -0.4598,-2.95 -1.4399,-2.95 -0.9301,0 -1.4,0.98 -1.4,2.92 0,1.94 0.4699,2.89 1.4199,2.89" /><path
       id="path346"
       style="fill:none;stroke:#000000;stroke-width:0.49999699;stroke-linecap:butt;stroke-linejoin:miter;stroke-miterlimit:10;stroke-opacity:1;stroke-dasharray:none"
       d="m 74.9176,436.416 4.4136,0" /><path
       id="path348"
       style="fill:none;stroke:#000000;stroke-width:0.49999699;stroke-linecap:butt;stroke-linejoin:miter;stroke-miterlimit:10;stroke-opacity:1;stroke-dasharray:none"
       d="m 521.246,436.416 -4.5,0" /><path
       id="path350"
       style="fill:#000000;fill-opacity:1;fill-rule:evenodd;stroke:none"
       d="m 58.6023,434.446 0,-1.7 0.8801,0 0,1.7 1.05,0 0,0.79 -1.05,0 0,4.6 -0.65,0 -3.2199,-4.459 0,-0.931 2.9898,0 m 0,0.79 -2.2199,0 2.2199,3.1 0,-3.1" /><path
       id="path352"
       style="fill:#000000;fill-opacity:1;fill-rule:evenodd;stroke:none"
       d="m 65.659,439.836 -3.6602,0 -0.53,-3.859 0.8101,0 c 0.4102,0.489 0.75,0.659 1.3,0.659 0.95,0 1.55,-0.65 1.55,-1.7 0,-1.02 -0.5898,-1.64 -1.55,-1.64 -0.7699,0 -1.2398,0.391 -1.45,1.19 l -0.8801,0 c 0.12,-0.579 0.22,-0.859 0.4301,-1.12 0.4,-0.539 1.1199,-0.85 1.9199,-0.85 1.4301,0 2.4301,1.041 2.4301,2.541 0,1.4 -0.9301,2.359 -2.2898,2.359 -0.5,0 -0.9,-0.13 -1.3102,-0.43 l 0.2801,1.98 2.95,0 0,0.87" /><path
       id="path354"
       style="fill:#000000;fill-opacity:1;fill-rule:evenodd;stroke:none"
       d="m 69.2152,439.836 c -0.6601,0 -1.2601,-0.29 -1.63,-0.779 -0.4598,-0.621 -0.6899,-1.571 -0.6899,-2.88 0,-2.39 0.8,-3.661 2.3199,-3.661 1.5,0 2.32,1.271 2.32,3.6 0,1.38 -0.22,2.3 -0.6899,2.941 -0.3699,0.5 -0.9601,0.779 -1.6301,0.779 m 0,-0.779 c 0.95,0 1.42,-0.961 1.42,-2.861 0,-2.009 -0.4598,-2.95 -1.4399,-2.95 -0.9301,0 -1.4,0.981 -1.4,2.92 0,1.941 0.4699,2.891 1.4199,2.891" /><path
       id="path356"
       style="fill:none;stroke:#000000;stroke-width:0.49999699;stroke-linecap:butt;stroke-linejoin:miter;stroke-miterlimit:10;stroke-opacity:1;stroke-dasharray:none"
       d="m 74.9176,471.576 4.4136,0" /><path
       id="path358"
       style="fill:none;stroke:#000000;stroke-width:0.49999699;stroke-linecap:butt;stroke-linejoin:miter;stroke-miterlimit:10;stroke-opacity:1;stroke-dasharray:none"
       d="m 521.246,471.576 -4.5,0" /><path
       id="path360"
       style="fill:#000000;fill-opacity:1;fill-rule:evenodd;stroke:none"
       d="m 60.0926,475.006 -3.6602,0 -0.5301,-3.86 0.8102,0 c 0.4102,0.49 0.75,0.66 1.3,0.66 0.95,0 1.55,-0.65 1.55,-1.7 0,-1.02 -0.5898,-1.64 -1.55,-1.64 -0.7699,0 -1.2398,0.39 -1.45,1.19 l -0.8801,0 c 0.1199,-0.58 0.2199,-0.86 0.4301,-1.12 0.4,-0.54 1.1199,-0.85 1.9199,-0.85 1.4301,0 2.4301,1.04 2.4301,2.54 0,1.4 -0.9301,2.36 -2.2898,2.36 -0.5,0 -0.9,-0.13 -1.3102,-0.43 l 0.2801,1.98 2.95,0 0,0.87" /><path
       id="path362"
       style="fill:#000000;fill-opacity:1;fill-rule:evenodd;stroke:none"
       d="m 63.6488,475.006 c -0.6597,0 -1.2597,-0.29 -1.63,-0.78 -0.4598,-0.62 -0.6899,-1.57 -0.6899,-2.88 0,-2.39 0.8,-3.66 2.3199,-3.66 1.5,0 2.32,1.27 2.32,3.6 0,1.38 -0.22,2.3 -0.6899,2.94 -0.3699,0.5 -0.9601,0.78 -1.6301,0.78 m 0,-0.78 c 0.95,0 1.42,-0.96 1.42,-2.86 0,-2.01 -0.4598,-2.95 -1.4399,-2.95 -0.9301,0 -1.4,0.98 -1.4,2.92 0,1.94 0.4699,2.89 1.4199,2.89" /><path
       id="path364"
       style="fill:#000000;fill-opacity:1;fill-rule:evenodd;stroke:none"
       d="m 69.2152,475.006 c -0.6601,0 -1.2601,-0.29 -1.63,-0.78 -0.4598,-0.62 -0.6899,-1.57 -0.6899,-2.88 0,-2.39 0.8,-3.66 2.3199,-3.66 1.5,0 2.32,1.27 2.32,3.6 0,1.38 -0.22,2.3 -0.6899,2.94 -0.3699,0.5 -0.9601,0.78 -1.6301,0.78 m 0,-0.78 c 0.95,0 1.42,-0.96 1.42,-2.86 0,-2.01 -0.4598,-2.95 -1.4399,-2.95 -0.9301,0 -1.4,0.98 -1.4,2.92 0,1.94 0.4699,2.89 1.4199,2.89" /><path
       id="path366"
       style="fill:none;stroke:#000000;stroke-width:0.49999699;stroke-linecap:butt;stroke-linejoin:miter;stroke-miterlimit:10;stroke-opacity:1;stroke-dasharray:none"
       d="m 74.9176,119.419 446.3284,0" /><path
       id="path368"
       style="fill:none;stroke:#000000;stroke-width:0.49999699;stroke-linecap:butt;stroke-linejoin:miter;stroke-miterlimit:10;stroke-opacity:1;stroke-dasharray:none"
       d="m 74.9176,471.576 446.3284,0" /><path
       id="path370"
       style="fill:none;stroke:#000000;stroke-width:0.49999699;stroke-linecap:butt;stroke-linejoin:miter;stroke-miterlimit:10;stroke-opacity:1;stroke-dasharray:none"
       d="m 74.9176,119.419 0,352.157" /><path
       id="path372"
       style="fill:none;stroke:#000000;stroke-width:0.49999699;stroke-linecap:butt;stroke-linejoin:miter;stroke-miterlimit:10;stroke-opacity:1;stroke-dasharray:none"
       d="m 521.246,119.419 0,352.157" /><path
       id="path374"
       style="fill:none;stroke:#000000;stroke-width:0.49999699;stroke-linecap:butt;stroke-linejoin:miter;stroke-miterlimit:10;stroke-opacity:1;stroke-dasharray:none"
       d="m 242.668,416.265 127,0" /><path
       id="path376"
       style="fill:none;stroke:#000000;stroke-width:0.49999699;stroke-linecap:butt;stroke-linejoin:miter;stroke-miterlimit:10;stroke-opacity:1;stroke-dasharray:none"
       d="m 242.668,375.767 127,0" /><path
       id="path378"
       style="fill:none;stroke:#000000;stroke-width:0.301204;stroke-linecap:butt;stroke-linejoin:miter;stroke-miterlimit:10;stroke-opacity:1;stroke-dasharray:none"
       d="m 242.668,375.502 0,40.827" /><path
       id="path380"
       style="fill:none;stroke:#000000;stroke-width:0.299411;stroke-linecap:butt;stroke-linejoin:miter;stroke-miterlimit:10;stroke-opacity:1;stroke-dasharray:none"
       d="m 369.668,375.988 0,40.342" /><path
       id="path382"
       style="fill:#000000;fill-opacity:1;fill-rule:evenodd;stroke:none"
       d="m 282.418,406.175 c 0.07,0.57 0.36,0.9 0.81,0.9 0.32,0 0.59,-0.25 0.74,-0.7 0.07,-0.2 0.16,-0.53 0.25,-0.91 l -2.31,-4.99 0.94,0 1.7,3.58 c 0.32,-1.95 0.48,-2.66 0.66,-3.05 0.22,-0.43 0.54,-0.66 0.91,-0.66 0.39,0 0.7,0.241 0.87,0.68 0.11,0.27 0.15,0.54 0.16,1.011 l -0.21,0 c -0.08,-0.521 -0.31,-0.811 -0.67,-0.811 -0.3,0 -0.56,0.19 -0.72,0.54 -0.13,0.26 -0.2,0.521 -0.34,1.26 l -0.27,1.29 c -0.01,0.03 -0.02,0.1 -0.04,0.2 -0.23,1.29 -0.59,2.51 -0.83,2.87 -0.22,0.32 -0.52,0.49 -0.85,0.49 -0.61,0 -0.93,-0.52 -1.04,-1.7 l 0.24,0" /><path
       id="path384"
       style="fill:none;stroke:#000000;stroke-width:0.49999699;stroke-linecap:butt;stroke-linejoin:round;stroke-miterlimit:10;stroke-opacity:1;stroke-dasharray:none"
       d="m 266.668,404.066 -0.01,-0.16 -0.01,-0.15 -0.02,-0.15 -0.02,-0.15 -0.04,-0.14 -0.04,-0.14 -0.04,-0.14 -0.06,-0.14 -0.06,-0.13 -0.06,-0.13 -0.08,-0.13 -0.07,-0.12 -0.09,-0.12 -0.09,-0.11 -0.09,-0.11 -0.1,-0.1 -0.11,-0.1 -0.1,-0.1 -0.12,-0.09 -0.12,-0.08 -0.12,-0.08 -0.12,-0.07 -0.13,-0.07 -0.13,-0.06 -0.14,-0.05 -0.14,-0.05 -0.14,-0.04 -0.15,-0.03 -0.15,-0.03 -0.15,-0.02 -0.15,-0.01 -0.15,0 c -1.66,0 -3,1.34 -3,3 0,1.65 1.34,3 3,3 1.65,0 3,-1.35 3,-3 z" /><path
       id="path386"
       style="fill:#000000;fill-opacity:1;fill-rule:evenodd;stroke:none"
       d="m 287.628,389.727 c -0.01,1.43 -0.99,2.26 -2.67,2.26 -1.6,0 -2.59,-0.82 -2.59,-2.14 0,-0.89 0.47,-1.45 1.43,-1.7 l 1.81,-0.48 c 0.92,-0.24 1.34,-0.61 1.34,-1.18 0,-0.39 -0.21,-0.79 -0.52,-1.01 -0.29,-0.2 -0.75,-0.31 -1.34,-0.31 -0.79,0 -1.33,0.19 -1.68,0.61 -0.27,0.32 -0.39,0.67 -0.38,1.12 l -0.88,0 c 0.01,-0.67 0.14,-1.11 0.43,-1.51 0.5,-0.68 1.34,-1.04 2.45,-1.04 0.87,0 1.58,0.2 2.05,0.56 0.49,0.39 0.8,1.04 0.8,1.67 0,0.9 -0.56,1.56 -1.55,1.83 l -1.83,0.49 c -0.88,0.24 -1.2,0.52 -1.2,1.08 0,0.74 0.65,1.23 1.63,1.23 1.16,0 1.81,-0.53 1.82,-1.48 l 0.88,0" /><path
       id="path388"
       style="fill:#000000;fill-opacity:1;fill-rule:evenodd;stroke:none"
       d="m 289.848,389.817 -0.83,0 0,-5.24 0.83,0 0,5.24 m 0,2.05 -0.84,0 0,-1.05 0.84,0 0,1.05" /><path
       id="path390"
       style="fill:#000000;fill-opacity:1;fill-rule:evenodd;stroke:none"
       d="m 291.274,389.817 0,-5.24 0.84,0 0,2.89 c 0,1.07 0.56,1.77 1.42,1.77 0.66,0 1.08,-0.4 1.08,-1.03 l 0,-3.63 0.83,0 0,3.96 c 0,0.87 -0.65,1.43 -1.66,1.43 -0.78,0 -1.28,-0.3 -1.74,-1.03 l 0,0.88 -0.77,0" /><path
       id="path392"
       style="fill:#000000;fill-opacity:1;fill-rule:evenodd;stroke:none"
       d="m 296.841,391.867 0,-7.29 0.83,0 0,2.89 c 0,1.07 0.559,1.77 1.42,1.77 0.27,0 0.539,-0.09 0.739,-0.24 0.241,-0.17 0.341,-0.42 0.341,-0.79 l 0,-3.63 0.83,0 0,3.96 c 0,0.88 -0.63,1.43 -1.65,1.43 -0.74,0 -1.19,-0.23 -1.68,-0.87 l 0,2.77 -0.83,0" /><path
       id="path394"
       style="fill:none;stroke:#b300ff;stroke-width:1.99999011;stroke-linecap:butt;stroke-linejoin:miter;stroke-miterlimit:10;stroke-opacity:1;stroke-dasharray:5.99996;stroke-dashoffset:0"
       d="m 248.668,388.167 30,0" /></g></svg>