<?xml version="1.0" encoding="UTF-8" standalone="no"?>
<!-- Created with Inkscape (http://www.inkscape.org/) -->

<svg
   xmlns:dc="http://purl.org/dc/elements/1.1/"
   xmlns:cc="http://creativecommons.org/ns#"
   xmlns:rdf="http://www.w3.org/1999/02/22-rdf-syntax-ns#"
   xmlns:svg="http://www.w3.org/2000/svg"
   xmlns="http://www.w3.org/2000/svg"
   xmlns:sodipodi="http://sodipodi.sourceforge.net/DTD/sodipodi-0.dtd"
   xmlns:inkscape="http://www.inkscape.org/namespaces/inkscape"
   id="svg2"
   version="1.1"
   inkscape:version="0.47 r22583"
   width="466.98172"
   height="431.47498"
   xml:space="preserve"
   sodipodi:docname="curve.symf.munmun_twitter_social.a.clean.svg"><metadata
     id="metadata8"><rdf:RDF><cc:Work
         rdf:about=""><dc:format>image/svg+xml</dc:format><dc:type
           rdf:resource="http://purl.org/dc/dcmitype/StillImage" /><dc:title /></cc:Work></rdf:RDF></metadata><defs
     id="defs6"><inkscape:perspective
       sodipodi:type="inkscape:persp3d"
       inkscape:vp_x="0 : 0.5 : 1"
       inkscape:vp_y="0 : 1000 : 0"
       inkscape:vp_z="1 : 0.5 : 1"
       inkscape:persp3d-origin="0.5 : 0.33333333 : 1"
       id="perspective10" /><clipPath
       clipPathUnits="userSpaceOnUse"
       id="clipPath20"><path
         d="m 180,5665 0,-3600.83 5235,0 0,3600.83 -5235,0 z"
         id="path22" /></clipPath><clipPath
       clipPathUnits="userSpaceOnUse"
       id="clipPath34"><path
         d="m 934.168,5505 0,-2940 2940.002,0 0,2940 -2940.002,0 z"
         id="path36" /></clipPath><clipPath
       clipPathUnits="userSpaceOnUse"
       id="clipPath46"><path
         d="m 1016.67,5520.83 0,-2889.16 2843.33,0 0,2889.16 -2843.33,0 z"
         id="path48" /></clipPath><clipPath
       clipPathUnits="userSpaceOnUse"
       id="clipPath152"><path
         d="m 180,5665 0,-3600.83 5235,0 0,3600.83 -5235,0 z"
         id="path154" /></clipPath><clipPath
       clipPathUnits="userSpaceOnUse"
       id="clipPath186"><path
         d="m 934.168,5505 0,-2940 2940.002,0 0,2940 -2940.002,0 z"
         id="path188" /></clipPath><clipPath
       clipPathUnits="userSpaceOnUse"
       id="clipPath242"><path
         d="m 180,5665 0,-3600.83 5235,0 0,3600.83 -5235,0 z"
         id="path244" /></clipPath><clipPath
       clipPathUnits="userSpaceOnUse"
       id="clipPath402"><path
         d="m 3936.67,5535.83 0,-122.5 122.5,0 0,122.5 -122.5,0 z"
         id="path404" /></clipPath><clipPath
       clipPathUnits="userSpaceOnUse"
       id="clipPath412"><path
         d="m 180,5665 0,-3600.83 5235,0 0,3600.83 -5235,0 z"
         id="path414" /></clipPath><clipPath
       clipPathUnits="userSpaceOnUse"
       id="clipPath426"><path
         d="m 3974.17,5610.83 0,-3152.5 1400,0 0,3152.5 -1400,0 z"
         id="path428" /></clipPath><clipPath
       clipPathUnits="userSpaceOnUse"
       id="clipPath436"><path
         d="m 180,5665 0,-3600.83 5235,0 0,3600.83 -5235,0 z"
         id="path438" /></clipPath><clipPath
       clipPathUnits="userSpaceOnUse"
       id="clipPath450"><path
         d="m 3974.17,5610.83 0,-3152.5 1400,0 0,3152.5 -1400,0 z"
         id="path452" /></clipPath><clipPath
       clipPathUnits="userSpaceOnUse"
       id="clipPath460"><path
         d="m 180,5665 0,-3600.83 5235,0 0,3600.83 -5235,0 z"
         id="path462" /></clipPath><clipPath
       clipPathUnits="userSpaceOnUse"
       id="clipPath474"><path
         d="m 3974.17,5610.83 0,-3152.5 1400,0 0,3152.5 -1400,0 z"
         id="path476" /></clipPath><clipPath
       clipPathUnits="userSpaceOnUse"
       id="clipPath484"><path
         d="m 180,5665 0,-3600.83 5235,0 0,3600.83 -5235,0 z"
         id="path486" /></clipPath><clipPath
       clipPathUnits="userSpaceOnUse"
       id="clipPath498"><path
         d="m 3974.17,5610.83 0,-3152.5 1400,0 0,3152.5 -1400,0 z"
         id="path500" /></clipPath><clipPath
       clipPathUnits="userSpaceOnUse"
       id="clipPath508"><path
         d="m 180,5665 0,-3600.83 5235,0 0,3600.83 -5235,0 z"
         id="path510" /></clipPath><clipPath
       clipPathUnits="userSpaceOnUse"
       id="clipPath522"><path
         d="m 3974.17,5610.83 0,-3152.5 1400,0 0,3152.5 -1400,0 z"
         id="path524" /></clipPath><clipPath
       clipPathUnits="userSpaceOnUse"
       id="clipPath532"><path
         d="m 180,5665 0,-3600.83 5235,0 0,3600.83 -5235,0 z"
         id="path534" /></clipPath><clipPath
       clipPathUnits="userSpaceOnUse"
       id="clipPath546"><path
         d="m 3974.17,5610.83 0,-3152.5 1400,0 0,3152.5 -1400,0 z"
         id="path548" /></clipPath><clipPath
       clipPathUnits="userSpaceOnUse"
       id="clipPath556"><path
         d="m 180,5665 0,-3600.83 5235,0 0,3600.83 -5235,0 z"
         id="path558" /></clipPath><clipPath
       clipPathUnits="userSpaceOnUse"
       id="clipPath570"><path
         d="m 3974.17,5610.83 0,-3152.5 1400,0 0,3152.5 -1400,0 z"
         id="path572" /></clipPath><clipPath
       clipPathUnits="userSpaceOnUse"
       id="clipPath580"><path
         d="m 180,5665 0,-3600.83 5235,0 0,3600.83 -5235,0 z"
         id="path582" /></clipPath><clipPath
       clipPathUnits="userSpaceOnUse"
       id="clipPath594"><path
         d="m 3974.17,5610.83 0,-3152.5 1400,0 0,3152.5 -1400,0 z"
         id="path596" /></clipPath><clipPath
       clipPathUnits="userSpaceOnUse"
       id="clipPath604"><path
         d="m 180,5665 0,-3600.83 5235,0 0,3600.83 -5235,0 z"
         id="path606" /></clipPath><clipPath
       clipPathUnits="userSpaceOnUse"
       id="clipPath618"><path
         d="m 3974.17,5610.83 0,-3152.5 1400,0 0,3152.5 -1400,0 z"
         id="path620" /></clipPath><clipPath
       clipPathUnits="userSpaceOnUse"
       id="clipPath628"><path
         d="m 180,5665 0,-3600.83 5235,0 0,3600.83 -5235,0 z"
         id="path630" /></clipPath><clipPath
       clipPathUnits="userSpaceOnUse"
       id="clipPath642"><path
         d="m 3974.17,5610.83 0,-3152.5 1400,0 0,3152.5 -1400,0 z"
         id="path644" /></clipPath><clipPath
       clipPathUnits="userSpaceOnUse"
       id="clipPath652"><path
         d="m 180,5665 0,-3600.83 5235,0 0,3600.83 -5235,0 z"
         id="path654" /></clipPath><clipPath
       clipPathUnits="userSpaceOnUse"
       id="clipPath666"><path
         d="m 3974.17,5610.83 0,-3152.5 1400,0 0,3152.5 -1400,0 z"
         id="path668" /></clipPath><clipPath
       clipPathUnits="userSpaceOnUse"
       id="clipPath676"><path
         d="m 180,5665 0,-3600.83 5235,0 0,3600.83 -5235,0 z"
         id="path678" /></clipPath><clipPath
       clipPathUnits="userSpaceOnUse"
       id="clipPath690"><path
         d="m 3974.17,5610.83 0,-3152.5 1400,0 0,3152.5 -1400,0 z"
         id="path692" /></clipPath></defs><sodipodi:namedview
     pagecolor="#ffffff"
     bordercolor="#666666"
     borderopacity="1"
     objecttolerance="10"
     gridtolerance="10"
     guidetolerance="10"
     inkscape:pageopacity="0"
     inkscape:pageshadow="2"
     inkscape:window-width="1200"
     inkscape:window-height="1895"
     id="namedview4"
     showgrid="false"
     inkscape:zoom="2.6970052"
     inkscape:cx="189.68131"
     inkscape:cy="226.43057"
     inkscape:window-x="0"
     inkscape:window-y="0"
     inkscape:window-maximized="1"
     inkscape:current-layer="g14" /><g
     id="g12"
     inkscape:groupmode="layer"
     inkscape:label="ink_ext_XXXXXX"
     transform="matrix(1.25,0,0,-1.25,-29.905766,696.57875)"><g
       id="g14"
       transform="scale(0.1,0.1)"><g
   id="g30"><g
     id="g32"
     clip-path="url(#clipPath34)"><path
       d="m 2403.33,2565.83 0,2939.17"
       style="fill:none;stroke:#000000;stroke-width:5;stroke-linecap:butt;stroke-linejoin:round;stroke-miterlimit:10;stroke-opacity:1;stroke-dasharray:60;stroke-dashoffset:0"
       id="path38" /><path
       d="m 934.168,4035 2939.162,0"
       style="fill:none;stroke:#000000;stroke-width:5;stroke-linecap:butt;stroke-linejoin:round;stroke-miterlimit:10;stroke-opacity:1;stroke-dasharray:60;stroke-dashoffset:0"
       id="path40" /></g></g><g
   id="g42"><g
     id="g44"
     clip-path="url(#clipPath46)"><path
       d="m 3828.33,5460 c 0,-16.57 -13.43,-30 -30,-30 -16.56,0 -30,13.43 -30,30 0,16.57 13.44,30 30,30 16.57,0 30,-13.43 30,-30"
       style="fill:none;stroke:#000000;stroke-width:5;stroke-linecap:butt;stroke-linejoin:round;stroke-miterlimit:10;stroke-opacity:1;stroke-dasharray:none"
       id="path50" /><path
       d="m 3739.17,5354.17 c 0,-16.57 -13.44,-30 -30,-30 -16.57,0 -30,13.43 -30,30 0,16.56 13.43,30 30,30 16.56,0 30,-13.44 30,-30"
       style="fill:none;stroke:#000000;stroke-width:5;stroke-linecap:butt;stroke-linejoin:round;stroke-miterlimit:10;stroke-opacity:1;stroke-dasharray:none"
       id="path52" /><path
       d="m 3425.83,4948.34 c 0,-16.57 -13.43,-30.01 -30,-30.01 -16.56,0 -30,13.44 -30,30.01 0,16.56 13.44,30 30,30 16.57,0 30,-13.44 30,-30"
       style="fill:none;stroke:#000000;stroke-width:5;stroke-linecap:butt;stroke-linejoin:round;stroke-miterlimit:10;stroke-opacity:1;stroke-dasharray:none"
       id="path54" /><path
       d="m 3398.33,4844.17 c 0,-16.57 -13.43,-30 -30,-30 -16.56,0 -30,13.43 -30,30 0,16.56 13.44,30 30,30 16.57,0 30,-13.44 30,-30"
       style="fill:none;stroke:#000000;stroke-width:5;stroke-linecap:butt;stroke-linejoin:round;stroke-miterlimit:10;stroke-opacity:1;stroke-dasharray:none"
       id="path56" /><path
       d="m 3253.33,4621.67 c 0,-16.57 -13.43,-30 -30,-30 -16.56,0 -30,13.43 -30,30 0,16.56 13.44,30 30,30 16.57,0 30,-13.44 30,-30"
       style="fill:none;stroke:#000000;stroke-width:5;stroke-linecap:butt;stroke-linejoin:round;stroke-miterlimit:10;stroke-opacity:1;stroke-dasharray:none"
       id="path58" /><path
       d="m 3212.5,4301.67 c 0,-16.57 -13.43,-30 -30,-30 -16.57,0 -30,13.43 -30,30 0,16.56 13.43,30 30,30 16.57,0 30,-13.44 30,-30"
       style="fill:none;stroke:#000000;stroke-width:5;stroke-linecap:butt;stroke-linejoin:round;stroke-miterlimit:10;stroke-opacity:1;stroke-dasharray:none"
       id="path60" /><path
       d="m 3195,4557.5 c 0,-16.57 -13.43,-30 -30,-30 -16.57,0 -30,13.43 -30,30 0,16.57 13.43,30 30,30 16.57,0 30,-13.43 30,-30"
       style="fill:none;stroke:#000000;stroke-width:5;stroke-linecap:butt;stroke-linejoin:round;stroke-miterlimit:10;stroke-opacity:1;stroke-dasharray:none"
       id="path62" /><path
       d="m 3146.67,4421.67 c 0,-16.57 -13.44,-30 -30,-30 -16.57,0 -30,13.43 -30,30 0,16.56 13.43,30 30,30 16.56,0 30,-13.44 30,-30"
       style="fill:none;stroke:#000000;stroke-width:5;stroke-linecap:butt;stroke-linejoin:round;stroke-miterlimit:10;stroke-opacity:1;stroke-dasharray:none"
       id="path64" /><path
       d="m 3125,4420.84 c 0,-16.57 -13.43,-30.01 -30,-30.01 -16.57,0 -30,13.44 -30,30.01 0,16.56 13.43,30 30,30 16.57,0 30,-13.44 30,-30"
       style="fill:none;stroke:#000000;stroke-width:5;stroke-linecap:butt;stroke-linejoin:round;stroke-miterlimit:10;stroke-opacity:1;stroke-dasharray:none"
       id="path66" /><path
       d="m 3105.83,4375.84 c 0,-16.57 -13.43,-30.01 -30,-30.01 -16.56,0 -30,13.44 -30,30.01 0,16.56 13.44,30 30,30 16.57,0 30,-13.44 30,-30"
       style="fill:none;stroke:#000000;stroke-width:5;stroke-linecap:butt;stroke-linejoin:round;stroke-miterlimit:10;stroke-opacity:1;stroke-dasharray:none"
       id="path68" /><path
       d="m 3096.67,4289.17 c 0,-16.57 -13.44,-30 -30,-30 -16.57,0 -30,13.43 -30,30 0,16.56 13.43,30 30,30 16.56,0 30,-13.44 30,-30"
       style="fill:none;stroke:#000000;stroke-width:5;stroke-linecap:butt;stroke-linejoin:round;stroke-miterlimit:10;stroke-opacity:1;stroke-dasharray:none"
       id="path70" /><path
       d="m 3084.17,4216.67 c 0,-16.57 -13.44,-30 -30,-30 -16.57,0 -30,13.43 -30,30 0,16.56 13.43,30 30,30 16.56,0 30,-13.44 30,-30"
       style="fill:none;stroke:#000000;stroke-width:5;stroke-linecap:butt;stroke-linejoin:round;stroke-miterlimit:10;stroke-opacity:1;stroke-dasharray:none"
       id="path72" /><path
       d="m 3065.83,4233.34 c 0,-16.57 -13.43,-30.01 -30,-30.01 -16.56,0 -30,13.44 -30,30.01 0,16.56 13.44,30 30,30 16.57,0 30,-13.44 30,-30"
       style="fill:none;stroke:#000000;stroke-width:5;stroke-linecap:butt;stroke-linejoin:round;stroke-miterlimit:10;stroke-opacity:1;stroke-dasharray:none"
       id="path74" /><path
       d="m 3063.33,4274.17 c 0,-16.57 -13.43,-30 -30,-30 -16.56,0 -30,13.43 -30,30 0,16.56 13.44,30 30,30 16.57,0 30,-13.44 30,-30"
       style="fill:none;stroke:#000000;stroke-width:5;stroke-linecap:butt;stroke-linejoin:round;stroke-miterlimit:10;stroke-opacity:1;stroke-dasharray:none"
       id="path76" /><path
       d="m 3060.83,4210.84 c 0,-16.57 -13.43,-30.01 -30,-30.01 -16.56,0 -30,13.44 -30,30.01 0,16.56 13.44,30 30,30 16.57,0 30,-13.44 30,-30"
       style="fill:none;stroke:#000000;stroke-width:5;stroke-linecap:butt;stroke-linejoin:round;stroke-miterlimit:10;stroke-opacity:1;stroke-dasharray:none"
       id="path78" /><path
       d="m 3052.5,4138.34 c 0,-16.57 -13.43,-30.01 -30,-30.01 -16.57,0 -30,13.44 -30,30.01 0,16.56 13.43,30 30,30 16.57,0 30,-13.44 30,-30"
       style="fill:none;stroke:#000000;stroke-width:5;stroke-linecap:butt;stroke-linejoin:round;stroke-miterlimit:10;stroke-opacity:1;stroke-dasharray:none"
       id="path80" /><path
       d="m 3050,4148.34 c 0,-16.57 -13.43,-30.01 -30,-30.01 -16.57,0 -30,13.44 -30,30.01 0,16.56 13.43,30 30,30 16.57,0 30,-13.44 30,-30"
       style="fill:none;stroke:#000000;stroke-width:5;stroke-linecap:butt;stroke-linejoin:round;stroke-miterlimit:10;stroke-opacity:1;stroke-dasharray:none"
       id="path82" /><path
       d="m 3049.17,4155.84 c 0,-16.57 -13.44,-30.01 -30,-30.01 -16.57,0 -30,13.44 -30,30.01 0,16.56 13.43,30 30,30 16.56,0 30,-13.44 30,-30"
       style="fill:none;stroke:#000000;stroke-width:5;stroke-linecap:butt;stroke-linejoin:round;stroke-miterlimit:10;stroke-opacity:1;stroke-dasharray:none"
       id="path84" /><path
       d="m 3047.5,4161.67 c 0,-16.57 -13.43,-30 -30,-30 -16.57,0 -30,13.43 -30,30 0,16.56 13.43,30 30,30 16.57,0 30,-13.44 30,-30"
       style="fill:none;stroke:#000000;stroke-width:5;stroke-linecap:butt;stroke-linejoin:round;stroke-miterlimit:10;stroke-opacity:1;stroke-dasharray:none"
       id="path86" /><path
       d="m 3043.33,4108.34 c 0,-16.57 -13.43,-30.01 -30,-30.01 -16.56,0 -30,13.44 -30,30.01 0,16.56 13.44,30 30,30 16.57,0 30,-13.44 30,-30"
       style="fill:none;stroke:#000000;stroke-width:5;stroke-linecap:butt;stroke-linejoin:round;stroke-miterlimit:10;stroke-opacity:1;stroke-dasharray:none"
       id="path88" /><path
       d="m 3041.67,4119.17 c 0,-16.57 -13.44,-30 -30,-30 -16.57,0 -30,13.43 -30,30 0,16.56 13.43,30 30,30 16.56,0 30,-13.44 30,-30"
       style="fill:none;stroke:#000000;stroke-width:5;stroke-linecap:butt;stroke-linejoin:round;stroke-miterlimit:10;stroke-opacity:1;stroke-dasharray:none"
       id="path90" /><path
       d="m 3040,4103.34 c 0,-16.57 -13.43,-30.01 -30,-30.01 -16.57,0 -30,13.44 -30,30.01 0,16.56 13.43,30 30,30 16.57,0 30,-13.44 30,-30"
       style="fill:none;stroke:#000000;stroke-width:5;stroke-linecap:butt;stroke-linejoin:round;stroke-miterlimit:10;stroke-opacity:1;stroke-dasharray:none"
       id="path92" /><path
       d="m 3038.33,4095.83 c 0,-16.56 -13.43,-30 -30,-30 -16.56,0 -30,13.44 -30,30 0,16.57 13.44,30 30,30 16.57,0 30,-13.43 30,-30"
       style="fill:none;stroke:#000000;stroke-width:5;stroke-linecap:butt;stroke-linejoin:round;stroke-miterlimit:10;stroke-opacity:1;stroke-dasharray:none"
       id="path94" /><path
       d="m 3037.5,4140.84 c 0,-16.57 -13.43,-30.01 -30,-30.01 -16.57,0 -30,13.44 -30,30.01 0,16.56 13.43,30 30,30 16.57,0 30,-13.44 30,-30"
       style="fill:none;stroke:#000000;stroke-width:5;stroke-linecap:butt;stroke-linejoin:round;stroke-miterlimit:10;stroke-opacity:1;stroke-dasharray:none"
       id="path96" /><path
       d="m 3036.67,4080 c 0,-16.57 -13.44,-30 -30,-30 -16.57,0 -30,13.43 -30,30 0,16.57 13.43,30 30,30 16.56,0 30,-13.43 30,-30"
       style="fill:none;stroke:#000000;stroke-width:5;stroke-linecap:butt;stroke-linejoin:round;stroke-miterlimit:10;stroke-opacity:1;stroke-dasharray:none"
       id="path98" /><path
       d="m 3035,4107.5 c 0,-16.57 -13.43,-30 -30,-30 -16.57,0 -30,13.43 -30,30 0,16.57 13.43,30 30,30 16.57,0 30,-13.43 30,-30"
       style="fill:none;stroke:#000000;stroke-width:5;stroke-linecap:butt;stroke-linejoin:round;stroke-miterlimit:10;stroke-opacity:1;stroke-dasharray:none"
       id="path100" /><path
       d="m 3033.33,4089.17 c 0,-16.57 -13.43,-30 -30,-30 -16.56,0 -30,13.43 -30,30 0,16.56 13.44,30 30,30 16.57,0 30,-13.44 30,-30"
       style="fill:none;stroke:#000000;stroke-width:5;stroke-linecap:butt;stroke-linejoin:round;stroke-miterlimit:10;stroke-opacity:1;stroke-dasharray:none"
       id="path102" /><path
       d="m 1832.5,4000.83 c 0,-16.56 -13.43,-30 -30,-30 -16.57,0 -30,13.44 -30,30 0,16.57 13.43,30 30,30 16.57,0 30,-13.43 30,-30"
       style="fill:none;stroke:#000000;stroke-width:5;stroke-linecap:butt;stroke-linejoin:round;stroke-miterlimit:10;stroke-opacity:1;stroke-dasharray:none"
       id="path104" /><path
       d="m 1831.67,3997.5 c 0,-16.57 -13.44,-30 -30,-30 -16.57,0 -30,13.43 -30,30 0,16.57 13.43,30 30,30 16.56,0 30,-13.43 30,-30"
       style="fill:none;stroke:#000000;stroke-width:5;stroke-linecap:butt;stroke-linejoin:round;stroke-miterlimit:10;stroke-opacity:1;stroke-dasharray:none"
       id="path106" /><path
       d="m 1831.67,3984.17 c 0,-16.57 -13.44,-30 -30,-30 -16.57,0 -30,13.43 -30,30 0,16.56 13.43,30 30,30 16.56,0 30,-13.44 30,-30"
       style="fill:none;stroke:#000000;stroke-width:5;stroke-linecap:butt;stroke-linejoin:round;stroke-miterlimit:10;stroke-opacity:1;stroke-dasharray:none"
       id="path108" /><path
       d="m 1825.83,3953.33 c 0,-16.56 -13.43,-30 -30,-30 -16.56,0 -30,13.44 -30,30 0,16.57 13.44,30 30,30 16.57,0 30,-13.43 30,-30"
       style="fill:none;stroke:#000000;stroke-width:5;stroke-linecap:butt;stroke-linejoin:round;stroke-miterlimit:10;stroke-opacity:1;stroke-dasharray:none"
       id="path110" /><path
       d="m 1825,3914.17 c 0,-16.57 -13.43,-30 -30,-30 -16.57,0 -30,13.43 -30,30 0,16.56 13.43,30 30,30 16.57,0 30,-13.44 30,-30"
       style="fill:none;stroke:#000000;stroke-width:5;stroke-linecap:butt;stroke-linejoin:round;stroke-miterlimit:10;stroke-opacity:1;stroke-dasharray:none"
       id="path112" /><path
       d="m 1823.33,3973.33 c 0,-16.56 -13.43,-30 -30,-30 -16.56,0 -30,13.44 -30,30 0,16.57 13.44,30 30,30 16.57,0 30,-13.43 30,-30"
       style="fill:none;stroke:#000000;stroke-width:5;stroke-linecap:butt;stroke-linejoin:round;stroke-miterlimit:10;stroke-opacity:1;stroke-dasharray:none"
       id="path114" /><path
       d="m 1820,3932.5 c 0,-16.57 -13.43,-30 -30,-30 -16.57,0 -30,13.43 -30,30 0,16.57 13.43,30 30,30 16.57,0 30,-13.43 30,-30"
       style="fill:none;stroke:#000000;stroke-width:5;stroke-linecap:butt;stroke-linejoin:round;stroke-miterlimit:10;stroke-opacity:1;stroke-dasharray:none"
       id="path116" /><path
       d="m 1816.67,3932.5 c 0,-16.57 -13.44,-30 -30,-30 -16.57,0 -30,13.43 -30,30 0,16.57 13.43,30 30,30 16.56,0 30,-13.43 30,-30"
       style="fill:none;stroke:#000000;stroke-width:5;stroke-linecap:butt;stroke-linejoin:round;stroke-miterlimit:10;stroke-opacity:1;stroke-dasharray:none"
       id="path118" /><path
       d="m 1812.5,3915.83 c 0,-16.56 -13.43,-30 -30,-30 -16.57,0 -30,13.44 -30,30 0,16.57 13.43,30 30,30 16.57,0 30,-13.43 30,-30"
       style="fill:none;stroke:#000000;stroke-width:5;stroke-linecap:butt;stroke-linejoin:round;stroke-miterlimit:10;stroke-opacity:1;stroke-dasharray:none"
       id="path120" /><path
       d="m 1808.33,3961.67 c 0,-16.57 -13.43,-30 -30,-30 -16.56,0 -30,13.43 -30,30 0,16.56 13.44,30 30,30 16.57,0 30,-13.44 30,-30"
       style="fill:none;stroke:#000000;stroke-width:5;stroke-linecap:butt;stroke-linejoin:round;stroke-miterlimit:10;stroke-opacity:1;stroke-dasharray:none"
       id="path122" /><path
       d="m 1800,3831.67 c 0,-16.57 -13.43,-30 -30,-30 -16.57,0 -30,13.43 -30,30 0,16.56 13.43,30 30,30 16.57,0 30,-13.44 30,-30"
       style="fill:none;stroke:#000000;stroke-width:5;stroke-linecap:butt;stroke-linejoin:round;stroke-miterlimit:10;stroke-opacity:1;stroke-dasharray:none"
       id="path124" /><path
       d="m 1773.33,3744.17 c 0,-16.57 -13.43,-30 -30,-30 -16.56,0 -30,13.43 -30,30 0,16.56 13.44,30 30,30 16.57,0 30,-13.44 30,-30"
       style="fill:none;stroke:#000000;stroke-width:5;stroke-linecap:butt;stroke-linejoin:round;stroke-miterlimit:10;stroke-opacity:1;stroke-dasharray:none"
       id="path126" /><path
       d="m 1768.33,3764.17 c 0,-16.57 -13.43,-30 -30,-30 -16.56,0 -30,13.43 -30,30 0,16.56 13.44,30 30,30 16.57,0 30,-13.44 30,-30"
       style="fill:none;stroke:#000000;stroke-width:5;stroke-linecap:butt;stroke-linejoin:round;stroke-miterlimit:10;stroke-opacity:1;stroke-dasharray:none"
       id="path128" /><path
       d="m 1763.33,3748.33 c 0,-16.56 -13.43,-30 -30,-30 -16.56,0 -30,13.44 -30,30 0,16.57 13.44,30 30,30 16.57,0 30,-13.43 30,-30"
       style="fill:none;stroke:#000000;stroke-width:5;stroke-linecap:butt;stroke-linejoin:round;stroke-miterlimit:10;stroke-opacity:1;stroke-dasharray:none"
       id="path130" /><path
       d="m 1743.33,3656.67 c 0,-16.57 -13.43,-30 -30,-30 -16.56,0 -30,13.43 -30,30 0,16.56 13.44,30 30,30 16.57,0 30,-13.44 30,-30"
       style="fill:none;stroke:#000000;stroke-width:5;stroke-linecap:butt;stroke-linejoin:round;stroke-miterlimit:10;stroke-opacity:1;stroke-dasharray:none"
       id="path132" /><path
       d="m 1679.17,3515 c 0,-16.57 -13.44,-30 -30,-30 -16.57,0 -30,13.43 -30,30 0,16.57 13.43,30 30,30 16.56,0 30,-13.43 30,-30"
       style="fill:none;stroke:#000000;stroke-width:5;stroke-linecap:butt;stroke-linejoin:round;stroke-miterlimit:10;stroke-opacity:1;stroke-dasharray:none"
       id="path134" /><path
       d="m 1653.33,3773.33 c 0,-16.56 -13.43,-30 -30,-30 -16.56,0 -30,13.44 -30,30 0,16.57 13.44,30 30,30 16.57,0 30,-13.43 30,-30"
       style="fill:none;stroke:#000000;stroke-width:5;stroke-linecap:butt;stroke-linejoin:round;stroke-miterlimit:10;stroke-opacity:1;stroke-dasharray:none"
       id="path136" /><path
       d="m 1605.83,3444.17 c 0,-16.57 -13.43,-30 -30,-30 -16.56,0 -30,13.43 -30,30 0,16.56 13.44,30 30,30 16.57,0 30,-13.44 30,-30"
       style="fill:none;stroke:#000000;stroke-width:5;stroke-linecap:butt;stroke-linejoin:round;stroke-miterlimit:10;stroke-opacity:1;stroke-dasharray:none"
       id="path138" /><path
       d="m 1483.33,3267.5 c 0,-16.57 -13.43,-30 -30,-30 -16.56,0 -30,13.43 -30,30 0,16.57 13.44,30 30,30 16.57,0 30,-13.43 30,-30"
       style="fill:none;stroke:#000000;stroke-width:5;stroke-linecap:butt;stroke-linejoin:round;stroke-miterlimit:10;stroke-opacity:1;stroke-dasharray:none"
       id="path140" /><path
       d="m 1475,3247.5 c 0,-16.57 -13.43,-30 -30,-30 -16.57,0 -30,13.43 -30,30 0,16.57 13.43,30 30,30 16.57,0 30,-13.43 30,-30"
       style="fill:none;stroke:#000000;stroke-width:5;stroke-linecap:butt;stroke-linejoin:round;stroke-miterlimit:10;stroke-opacity:1;stroke-dasharray:none"
       id="path142" /><path
       d="m 1168.33,2771.67 c 0,-16.57 -13.43,-30 -30,-30 -16.56,0 -30,13.43 -30,30 0,16.56 13.44,30 30,30 16.57,0 30,-13.44 30,-30"
       style="fill:none;stroke:#000000;stroke-width:5;stroke-linecap:butt;stroke-linejoin:round;stroke-miterlimit:10;stroke-opacity:1;stroke-dasharray:none"
       id="path144" /><path
       d="m 1107.5,2693.33 c 0,-16.56 -13.43,-30 -30,-30 -16.57,0 -30,13.44 -30,30 0,16.57 13.43,30 30,30 16.57,0 30,-13.43 30,-30"
       style="fill:none;stroke:#000000;stroke-width:5;stroke-linecap:butt;stroke-linejoin:round;stroke-miterlimit:10;stroke-opacity:1;stroke-dasharray:none"
       id="path146" /></g></g><text
   id="text158"
   transform="scale(1,-1)"
   x="2307.5"
   y="-2220.8301"
   style="font-size:120px"><tspan
     id="tspan160"
     y="-2220.8301"
     x="2307.5"
     style="font-size:200px;font-style:normal;font-variant:normal;font-weight:normal;font-stretch:normal;writing-mode:lr-tb;fill:#000000;fill-opacity:1;fill-rule:nonzero;stroke:none;font-family:cmmi10;-inkscape-font-specification:cmmi10">λ</tspan></text>

<text
   id="text162"
   transform="scale(1,-1)"
   x="2416.668"
   y="-2120.8301"
   style="font-size:120px"><tspan
     id="tspan164"
     y="-2120.8301"
     x="2416.668"
     style="font-size:160px;font-variant:normal;font-weight:normal;writing-mode:lr-tb;fill:#000000;fill-opacity:1;fill-rule:nonzero;stroke:none;font-family:Helvetica;-inkscape-font-specification:Helvetica">k</tspan></text>

<text
   id="text166"
   transform="matrix(0,1,1,0,0,0)"
   x="3845.8301"
   y="384.168"
   style="font-size:120px"><tspan
     id="tspan168"
     sodipodi:role="line"
     y="384.168"
     x="3845.8301 3901.4299"
     style="font-size:200px;font-variant:normal;font-weight:normal;writing-mode:lr-tb;fill:#000000;fill-opacity:1;fill-rule:nonzero;stroke:none;font-family:Liberation Sans;-inkscape-font-specification:Liberation Sans">f(</tspan></text>

<text
   id="text170"
   transform="matrix(0,1,1,0,0,0)"
   x="3967.498"
   y="384.168"
   style="font-size:120px"><tspan
     id="tspan172"
     y="384.168"
     x="3967.498"
     style="font-size:200px;font-style:normal;font-variant:normal;font-weight:normal;font-stretch:normal;writing-mode:lr-tb;fill:#000000;fill-opacity:1;fill-rule:nonzero;stroke:none;font-family:Liberation Sans;-inkscape-font-specification:Liberation Sans">λ</tspan></text>

<text
   id="text174"
   transform="matrix(0,1,1,0,0,0)"
   x="4076.666"
   y="484.168"
   style="font-size:120px"><tspan
     id="tspan176"
     y="484.168"
     x="4076.666"
     style="font-size:160px;font-variant:normal;font-weight:normal;writing-mode:lr-tb;fill:#000000;fill-opacity:1;fill-rule:nonzero;stroke:none;font-family:Helvetica;-inkscape-font-specification:Helvetica">k</tspan></text>

<text
   id="text178"
   transform="matrix(0,1,1,0,0,0)"
   x="4156.666"
   y="384.168"
   style="font-size:120px"><tspan
     id="tspan180"
     y="384.168"
     x="4156.666"
     style="font-size:200px;font-variant:normal;font-weight:normal;writing-mode:lr-tb;fill:#000000;fill-opacity:1;fill-rule:nonzero;stroke:none;font-family:Liberation Sans;-inkscape-font-specification:Liberation Sans">)</tspan></text>

<path
   d="m 1815.83,3833.33 19.17,10.84 20,10 19.17,10 20,10 19.16,9.16 20,8.34 19.17,8.33 20,8.33 19.17,7.5 20,7.5 19.16,7.5 20,6.67 19.17,6.67 20,6.66 19.17,5.84 20,6.66 19.16,5.84 20,5.83 19.17,5 20,5.83 19.17,5 20,5 19.16,5.84 20,5 19.17,5 20,4.16 19.17,5 20,5 19.16,5 20,4.17 20,5 19.17,5 20,5 19.17,5 20,4.17 19.16,5 20,5 19.17,5.83 20,5 19.17,5 20,5.83 19.16,5 20,5.84 19.17,5.83 20,6.67 19.17,5.83 20,6.67 19.16,6.66 20,6.67 19.17,7.5 20,7.5 19.17,7.5 20,8.33 19.16,8.34 20,8.33 19.17,9.17 20,10 19.17,10 20,10 19.16,10.83 20,11.67 19.17,11.66 20,12.5 19.17,13.34 20,13.33 19.16,14.17 20,15 20,15.83 19.17,16.67 20,17.5 19.17,17.5 20,19.16 19.16,20 20,20.84 19.17,22.5 20,22.5 19.17,24.16 20,25.84 19.16,26.66 20,28.34 19.17,29.16 20,30.84 19.17,32.5 20,34.16 19.16,35.84 20,37.5 19.17,39.16 20,41.67 19.17,44.17 20,45.83 19.16,47.5 20,50.83 19.17,53.34 20,55.83 19.17,58.33 20,61.67 19.16,65 20,68.33 18.34,66.67"
   style="fill:none;stroke:#b200ff;stroke-width:25;stroke-linecap:butt;stroke-linejoin:round;stroke-miterlimit:10;stroke-opacity:1;stroke-dasharray:60;stroke-dashoffset:0"
   id="path230" /><path
   d="m 1052.5,2565 18.33,67.5 20,68.33 19.17,65 20,61.67 19.17,58.33 20,55.84 19.16,53.33 20,50.83 19.17,47.5 20,45.84 19.17,44.16 20,41.67 19.16,39.17 20,37.5 19.17,35.83 20,34.17 19.17,32.5 20,30.83 19.16,29.17 20,28.33 19.17,26.67 20,25.83 19.17,24.17 20,22.5 19.16,22.5 20,20.83 19.17,20 20,19.17 19.17,17.5 20,17.5 19.16,16.66 20,15.84 20,15 19.17,14.16 20,13.34 19.17,13.33 20,12.5 19.16,11.67 20,11.66"
   style="fill:none;stroke:#b200ff;stroke-width:25;stroke-linecap:butt;stroke-linejoin:round;stroke-miterlimit:10;stroke-opacity:1;stroke-dasharray:60;stroke-dashoffset:0"
   id="path232" /><g
   id="g246"
   transform="scale(10,10)" /><path
   d="m 934.168,2565.83 2939.162,0"
   style="fill:none;stroke:#000000;stroke-width:5;stroke-linecap:butt;stroke-linejoin:round;stroke-miterlimit:10;stroke-opacity:1;stroke-dasharray:none"
   id="path248" /><path
   d="m 934.168,5505 2939.162,0"
   style="fill:none;stroke:#000000;stroke-width:5;stroke-linecap:butt;stroke-linejoin:round;stroke-miterlimit:10;stroke-opacity:1;stroke-dasharray:none"
   id="path250" /><path
   d="m 934.168,2565.83 0,2939.17"
   style="fill:none;stroke:#000000;stroke-width:5;stroke-linecap:butt;stroke-linejoin:round;stroke-miterlimit:10;stroke-opacity:1;stroke-dasharray:none"
   id="path252" /><path
   d="m 3873.33,2565.83 0,2939.17"
   style="fill:none;stroke:#000000;stroke-width:5;stroke-linecap:butt;stroke-linejoin:round;stroke-miterlimit:10;stroke-opacity:1;stroke-dasharray:none"
   id="path254" /><path
   d="m 934.168,2565.83 2939.162,0"
   style="fill:none;stroke:#000000;stroke-width:5;stroke-linecap:butt;stroke-linejoin:round;stroke-miterlimit:10;stroke-opacity:1;stroke-dasharray:none"
   id="path256" /><path
   d="m 934.168,2565.83 0,2939.17"
   style="fill:none;stroke:#000000;stroke-width:5;stroke-linecap:butt;stroke-linejoin:round;stroke-miterlimit:10;stroke-opacity:1;stroke-dasharray:none"
   id="path258" /><path
   d="m 934.168,2565.83 0,29.17"
   style="fill:none;stroke:#000000;stroke-width:5;stroke-linecap:butt;stroke-linejoin:round;stroke-miterlimit:10;stroke-opacity:1;stroke-dasharray:none"
   id="path260" /><path
   d="m 934.168,5505 0,-29.17"
   style="fill:none;stroke:#000000;stroke-width:5;stroke-linecap:butt;stroke-linejoin:round;stroke-miterlimit:10;stroke-opacity:1;stroke-dasharray:none"
   id="path262" /><g
   id="g264"
   transform="scale(10,10)"><text
   transform="matrix(1,0,0,-1,70.6668,235.083)"
   id="text266"><tspan
     style="font-size:20px;font-variant:normal;font-weight:normal;writing-mode:lr-tb;fill:#000000;fill-opacity:1;fill-rule:nonzero;stroke:none;font-family:Helvetica;-inkscape-font-specification:Helvetica"
     x="0 11.68 22.799999"
     y="0"
     sodipodi:role="line"
     id="tspan268">−50</tspan></text>

</g><path
   d="m 2403.33,2565.83 0,29.17"
   style="fill:none;stroke:#000000;stroke-width:5;stroke-linecap:butt;stroke-linejoin:round;stroke-miterlimit:10;stroke-opacity:1;stroke-dasharray:none"
   id="path270" /><path
   d="m 2403.33,5505 0,-29.17"
   style="fill:none;stroke:#000000;stroke-width:5;stroke-linecap:butt;stroke-linejoin:round;stroke-miterlimit:10;stroke-opacity:1;stroke-dasharray:none"
   id="path272" /><g
   id="g274"
   transform="scale(10,10)"><text
   transform="matrix(1,0,0,-1,234.833,235.083)"
   id="text276"><tspan
     style="font-size:20px;font-variant:normal;font-weight:normal;writing-mode:lr-tb;fill:#000000;fill-opacity:1;fill-rule:nonzero;stroke:none;font-family:Helvetica;-inkscape-font-specification:Helvetica"
     x="0"
     y="0"
     id="tspan278">0</tspan></text>

</g><path
   d="m 3873.33,2565.83 0,29.17"
   style="fill:none;stroke:#000000;stroke-width:5;stroke-linecap:butt;stroke-linejoin:round;stroke-miterlimit:10;stroke-opacity:1;stroke-dasharray:none"
   id="path280" /><path
   d="m 3873.33,5505 0,-29.17"
   style="fill:none;stroke:#000000;stroke-width:5;stroke-linecap:butt;stroke-linejoin:round;stroke-miterlimit:10;stroke-opacity:1;stroke-dasharray:none"
   id="path282" /><g
   id="g284"
   transform="scale(10,10)"><text
   transform="matrix(1,0,0,-1,376.25,235.083)"
   id="text286"><tspan
     style="font-size:20px;font-variant:normal;font-weight:normal;writing-mode:lr-tb;fill:#000000;fill-opacity:1;fill-rule:nonzero;stroke:none;font-family:Helvetica;-inkscape-font-specification:Helvetica"
     x="0 11.12"
     y="0"
     sodipodi:role="line"
     id="tspan288">50</tspan></text>

</g><path
   d="m 934.168,2565.83 29.164,0"
   style="fill:none;stroke:#000000;stroke-width:5;stroke-linecap:butt;stroke-linejoin:round;stroke-miterlimit:10;stroke-opacity:1;stroke-dasharray:none"
   id="path290" /><path
   d="m 3873.33,2565.83 -30,0"
   style="fill:none;stroke:#000000;stroke-width:5;stroke-linecap:butt;stroke-linejoin:round;stroke-miterlimit:10;stroke-opacity:1;stroke-dasharray:none"
   id="path292" /><g
   id="g294"
   transform="scale(10,10)"><text
   transform="matrix(1,0,0,-1,56.5832,249.167)"
   id="text296"><tspan
     style="font-size:20px;font-variant:normal;font-weight:normal;writing-mode:lr-tb;fill:#000000;fill-opacity:1;fill-rule:nonzero;stroke:none;font-family:Helvetica;-inkscape-font-specification:Helvetica"
     x="0 11.68 22.799999"
     y="0"
     sodipodi:role="line"
     id="tspan298">−15</tspan></text>

</g><path
   d="m 934.168,3055.83 29.164,0"
   style="fill:none;stroke:#000000;stroke-width:5;stroke-linecap:butt;stroke-linejoin:round;stroke-miterlimit:10;stroke-opacity:1;stroke-dasharray:none"
   id="path300" /><path
   d="m 3873.33,3055.83 -30,0"
   style="fill:none;stroke:#000000;stroke-width:5;stroke-linecap:butt;stroke-linejoin:round;stroke-miterlimit:10;stroke-opacity:1;stroke-dasharray:none"
   id="path302" /><g
   id="g304"
   transform="scale(10,10)"><text
   transform="matrix(1,0,0,-1,56.5832,298.167)"
   id="text306"><tspan
     style="font-size:20px;font-variant:normal;font-weight:normal;writing-mode:lr-tb;fill:#000000;fill-opacity:1;fill-rule:nonzero;stroke:none;font-family:Helvetica;-inkscape-font-specification:Helvetica"
     x="0 11.68 22.799999"
     y="0"
     sodipodi:role="line"
     id="tspan308">−10</tspan></text>

</g><path
   d="m 934.168,3545.83 29.164,0"
   style="fill:none;stroke:#000000;stroke-width:5;stroke-linecap:butt;stroke-linejoin:round;stroke-miterlimit:10;stroke-opacity:1;stroke-dasharray:none"
   id="path310" /><path
   d="m 3873.33,3545.83 -30,0"
   style="fill:none;stroke:#000000;stroke-width:5;stroke-linecap:butt;stroke-linejoin:round;stroke-miterlimit:10;stroke-opacity:1;stroke-dasharray:none"
   id="path312" /><g
   id="g314"
   transform="scale(10,10)"><text
   transform="matrix(1,0,0,-1,67.75,347.167)"
   id="text316"><tspan
     style="font-size:20px;font-variant:normal;font-weight:normal;writing-mode:lr-tb;fill:#000000;fill-opacity:1;fill-rule:nonzero;stroke:none;font-family:Helvetica;-inkscape-font-specification:Helvetica"
     x="0 11.68"
     y="0"
     sodipodi:role="line"
     id="tspan318">−5</tspan></text>

</g><path
   d="m 934.168,4035 29.164,0"
   style="fill:none;stroke:#000000;stroke-width:5;stroke-linecap:butt;stroke-linejoin:round;stroke-miterlimit:10;stroke-opacity:1;stroke-dasharray:none"
   id="path320" /><path
   d="m 3873.33,4035 -30,0"
   style="fill:none;stroke:#000000;stroke-width:5;stroke-linecap:butt;stroke-linejoin:round;stroke-miterlimit:10;stroke-opacity:1;stroke-dasharray:none"
   id="path322" /><g
   id="g324"
   transform="scale(10,10)"><text
   transform="matrix(1,0,0,-1,79.4168,396.083)"
   id="text326"><tspan
     style="font-size:20px;font-variant:normal;font-weight:normal;writing-mode:lr-tb;fill:#000000;fill-opacity:1;fill-rule:nonzero;stroke:none;font-family:Helvetica;-inkscape-font-specification:Helvetica"
     x="0"
     y="0"
     id="tspan328">0</tspan></text>

</g><path
   d="m 934.168,4525 29.164,0"
   style="fill:none;stroke:#000000;stroke-width:5;stroke-linecap:butt;stroke-linejoin:round;stroke-miterlimit:10;stroke-opacity:1;stroke-dasharray:none"
   id="path330" /><path
   d="m 3873.33,4525 -30,0"
   style="fill:none;stroke:#000000;stroke-width:5;stroke-linecap:butt;stroke-linejoin:round;stroke-miterlimit:10;stroke-opacity:1;stroke-dasharray:none"
   id="path332" /><g
   id="g334"
   transform="scale(10,10)"><text
   transform="matrix(1,0,0,-1,79.4168,445.083)"
   id="text336"><tspan
     style="font-size:20px;font-variant:normal;font-weight:normal;writing-mode:lr-tb;fill:#000000;fill-opacity:1;fill-rule:nonzero;stroke:none;font-family:Helvetica;-inkscape-font-specification:Helvetica"
     x="0"
     y="0"
     id="tspan338">5</tspan></text>

</g><path
   d="m 934.168,5015 29.164,0"
   style="fill:none;stroke:#000000;stroke-width:5;stroke-linecap:butt;stroke-linejoin:round;stroke-miterlimit:10;stroke-opacity:1;stroke-dasharray:none"
   id="path340" /><path
   d="m 3873.33,5015 -30,0"
   style="fill:none;stroke:#000000;stroke-width:5;stroke-linecap:butt;stroke-linejoin:round;stroke-miterlimit:10;stroke-opacity:1;stroke-dasharray:none"
   id="path342" /><g
   id="g344"
   transform="scale(10,10)"><text
   transform="matrix(1,0,0,-1,68.3332,494.083)"
   id="text346"><tspan
     style="font-size:20px;font-variant:normal;font-weight:normal;writing-mode:lr-tb;fill:#000000;fill-opacity:1;fill-rule:nonzero;stroke:none;font-family:Helvetica;-inkscape-font-specification:Helvetica"
     x="0 11.12"
     y="0"
     sodipodi:role="line"
     id="tspan348">10</tspan></text>

</g><path
   d="m 934.168,5505 29.164,0"
   style="fill:none;stroke:#000000;stroke-width:5;stroke-linecap:butt;stroke-linejoin:round;stroke-miterlimit:10;stroke-opacity:1;stroke-dasharray:none"
   id="path350" /><path
   d="m 3873.33,5505 -30,0"
   style="fill:none;stroke:#000000;stroke-width:5;stroke-linecap:butt;stroke-linejoin:round;stroke-miterlimit:10;stroke-opacity:1;stroke-dasharray:none"
   id="path352" /><g
   id="g354"
   transform="scale(10,10)"><text
   transform="matrix(1,0,0,-1,68.3332,543.083)"
   id="text356"><tspan
     style="font-size:20px;font-style:normal;font-variant:normal;font-weight:normal;font-stretch:normal;writing-mode:lr-tb;fill:#000000;fill-opacity:1;fill-rule:nonzero;stroke:none;font-family:FreeSans;-inkscape-font-specification:FreeSans"
     x="0 11.12"
     y="0"
     sodipodi:role="line"
     id="tspan358">15</tspan></text>

</g><path
   d="m 934.168,2565.83 2939.162,0"
   style="fill:none;stroke:#000000;stroke-width:5;stroke-linecap:butt;stroke-linejoin:round;stroke-miterlimit:10;stroke-opacity:1;stroke-dasharray:none"
   id="path360" /><path
   d="m 934.168,5505 2939.162,0"
   style="fill:none;stroke:#000000;stroke-width:5;stroke-linecap:butt;stroke-linejoin:round;stroke-miterlimit:10;stroke-opacity:1;stroke-dasharray:none"
   id="path362" /><path
   d="m 934.168,2565.83 0,2939.17"
   style="fill:none;stroke:#000000;stroke-width:5;stroke-linecap:butt;stroke-linejoin:round;stroke-miterlimit:10;stroke-opacity:1;stroke-dasharray:none"
   id="path364" /><path
   d="m 3873.33,2565.83 0,2939.17"
   style="fill:none;stroke:#000000;stroke-width:5;stroke-linecap:butt;stroke-linejoin:round;stroke-miterlimit:10;stroke-opacity:1;stroke-dasharray:none"
   id="path366" /><g
   id="g648"
   transform="translate(-1040.339,-88.09322)"><g
     id="g650"
     clip-path="url(#clipPath652)"><g
       id="g656"
       transform="scale(10,10)"><text
   transform="matrix(1,0,0,-1,401.917,274.917)"
   id="text658"><tspan
     style="font-size:20px;font-variant:normal;font-weight:normal;writing-mode:lr-tb;fill:#000000;fill-opacity:1;fill-rule:nonzero;stroke:none;font-family:Helvetica;-inkscape-font-specification:Helvetica"
     x="0 13.34 25.02 38.360001 43.919998 58.360001"
     y="0"
     sodipodi:role="line"
     id="tspan660">A−SINH</tspan></text>

</g></g></g><path
   d="m 2692.991,2732.7368 281.67,0"
   style="fill:none;stroke:#b200ff;stroke-width:25;stroke-linecap:butt;stroke-linejoin:round;stroke-miterlimit:10;stroke-opacity:1;stroke-dasharray:60;stroke-dashoffset:0"
   id="path670"
   sodipodi:nodetypes="cc" /></g></g></svg>