<?xml version="1.0" encoding="UTF-8" standalone="no"?>
<!-- Created with Inkscape (http://www.inkscape.org/) -->

<svg
   xmlns:dc="http://purl.org/dc/elements/1.1/"
   xmlns:cc="http://creativecommons.org/ns#"
   xmlns:rdf="http://www.w3.org/1999/02/22-rdf-syntax-ns#"
   xmlns:svg="http://www.w3.org/2000/svg"
   xmlns="http://www.w3.org/2000/svg"
   xmlns:sodipodi="http://sodipodi.sourceforge.net/DTD/sodipodi-0.dtd"
   xmlns:inkscape="http://www.inkscape.org/namespaces/inkscape"
   id="svg2"
   version="1.1"
   inkscape:version="0.47 r22583"
   width="177.66875"
   height="142.23375"
   xml:space="preserve"
   sodipodi:docname="mean-signed.svg"><metadata
     id="metadata8"><rdf:RDF><cc:Work
         rdf:about=""><dc:format>image/svg+xml</dc:format><dc:type
           rdf:resource="http://purl.org/dc/dcmitype/StillImage" /><dc:title /></cc:Work></rdf:RDF></metadata><defs
     id="defs6"><inkscape:perspective
       sodipodi:type="inkscape:persp3d"
       inkscape:vp_x="0 : 0.5 : 1"
       inkscape:vp_y="0 : 1000 : 0"
       inkscape:vp_z="1 : 0.5 : 1"
       inkscape:persp3d-origin="0.5 : 0.33333333 : 1"
       id="perspective10" /><inkscape:perspective
       id="perspective3797"
       inkscape:persp3d-origin="0.5 : 0.33333333 : 1"
       inkscape:vp_z="1 : 0.5 : 1"
       inkscape:vp_y="0 : 1000 : 0"
       inkscape:vp_x="0 : 0.5 : 1"
       sodipodi:type="inkscape:persp3d" /></defs><sodipodi:namedview
     pagecolor="#ffffff"
     bordercolor="#666666"
     borderopacity="1"
     objecttolerance="10"
     gridtolerance="10"
     guidetolerance="10"
     inkscape:pageopacity="0"
     inkscape:pageshadow="2"
     inkscape:window-width="1200"
     inkscape:window-height="1895"
     id="namedview4"
     showgrid="false"
     inkscape:zoom="5.3940105"
     inkscape:cx="94.084286"
     inkscape:cy="67.287729"
     inkscape:window-x="0"
     inkscape:window-y="0"
     inkscape:window-maximized="1"
     inkscape:current-layer="g12"><inkscape:grid
       type="xygrid"
       id="grid3787"
       empspacing="5"
       visible="true"
       enabled="true"
       snapvisiblegridlinesonly="true" /></sodipodi:namedview><g
     id="g12"
     inkscape:groupmode="layer"
     inkscape:label="ink_ext_XXXXXX"
     transform="matrix(1.25,0,0,-1.25,0.001465,142.23375)"><path
       id="path16"
       style="fill:none;stroke:#000000;stroke-width:0.40000001;stroke-linecap:butt;stroke-linejoin:miter;stroke-miterlimit:2.6099999;stroke-opacity:1;stroke-dasharray:none"
       d="m 0.198828,0.2 141.735002,0 0,113.387 -141.735002,0 0,-113.387 z" /><path
       id="path18"
       style="fill:none;stroke:#231f20;stroke-width:0.21600001;stroke-linecap:butt;stroke-linejoin:miter;stroke-miterlimit:2.61310005;stroke-opacity:1;stroke-dasharray:2.16, 1.08;stroke-dashoffset:0"
       d="m 89.441,0.242969 0,113.246031" /><path
       id="path20"
       style="fill:none;stroke:#231f20;stroke-width:0.21600001;stroke-linecap:butt;stroke-linejoin:miter;stroke-miterlimit:2.61310005;stroke-opacity:1;stroke-dasharray:2.16, 1.08;stroke-dashoffset:0"
       d="m 1.05117,67.009 140.05383,0" /><path
       id="path26"
       style="fill:none;stroke:#00c800;stroke-width:1.99984002;stroke-linecap:butt;stroke-linejoin:round;stroke-miterlimit:2.61310005;stroke-opacity:1;stroke-dasharray:none"
       d="M 60.5941,45.4379 105.945,17.0949" /><path
       id="path28"
       style="fill:none;stroke:#00c800;stroke-width:1.99984002;stroke-linecap:butt;stroke-linejoin:round;stroke-miterlimit:2.61310005;stroke-opacity:1;stroke-dasharray:none"
       d="M 60.5941,45.4379 16.1371,17.6648" /><g
       transform="matrix(-0.0366932,0.0591708,0.0575351,0.0466009,0,0)"
       id="g30"
       style="stroke:#e90000;stroke-opacity:1"><path
         id="path32"
         style="fill:none;stroke:#e90000;stroke-width:26.05559921;stroke-linecap:butt;stroke-linejoin:round;stroke-miterlimit:2.61310005;stroke-opacity:1;stroke-dasharray:52.1112, 26.0556;stroke-dashoffset:0"
         d="M -42.1203,1028.53 531.878,1394.61" /></g><path
       id="path34"
       style="fill:#ffffff;fill-opacity:1;fill-rule:evenodd;stroke:none"
       d="m 59.8051,41.6141 c 1.7969,-0.5082 3.6789,0.5468 4.1871,2.348 0.5078,1.7969 -0.5473,3.6789 -2.3442,4.1867 -1.8,0.5082 -3.6789,-0.5468 -4.1871,-2.3429 -0.5121,-1.8008 0.543,-3.6797 2.3442,-4.1918" /><path
       id="path36"
       style="fill:none;stroke:#231f20;stroke-width:1.00005996;stroke-linecap:butt;stroke-linejoin:miter;stroke-miterlimit:2.61310005;stroke-opacity:1;stroke-dasharray:none"
       d="m 59.8051,41.6141 c 1.7969,-0.5082 3.6789,0.5468 4.1871,2.348 0.5078,1.7969 -0.5473,3.6789 -2.3442,4.1867 -1.8,0.5082 -3.6789,-0.5468 -4.1871,-2.3429 -0.5121,-1.8008 0.543,-3.6797 2.3442,-4.1918 z" /><path
       id="path38"
       style="fill:#231f20;fill-opacity:1;fill-rule:evenodd;stroke:none"
       d="m 104.91393,13.942962 c 1.797,-0.5078 3.679,0.543 4.187,2.343 0.508,1.7972 -0.547,3.6761 -2.344,4.1882 -1.8,0.5079 -3.679,-0.5472 -4.191,-2.3441 -0.508,-1.8012 0.547,-3.684 2.348,-4.1871" /><path
       id="path46"
       style="fill:none;stroke:#918f90;stroke-width:1.00005996;stroke-linecap:butt;stroke-linejoin:miter;stroke-miterlimit:2.61310005;stroke-opacity:1;stroke-dasharray:none"
       d="m 84.7852,66.9809 9.3168,0" /><path
       id="path48"
       style="fill:none;stroke:#918f90;stroke-width:1.00005996;stroke-linecap:butt;stroke-linejoin:miter;stroke-miterlimit:2.61310005;stroke-opacity:1;stroke-dasharray:none"
       d="m 89.441,71.6379 0,-9.3168" /><path
       id="path50"
       style="fill:none;stroke:#231f20;stroke-width:0.50002998;stroke-linecap:butt;stroke-linejoin:round;stroke-miterlimit:2.61310005;stroke-opacity:1;stroke-dasharray:none"
       d="M 118.348,38.0051 60.5391,95.9578" /><path
       id="path52"
       style="fill:#bdbcbc;fill-opacity:1;fill-rule:evenodd;stroke:none"
       d="m 60.727,92.7391 c 1.8671,0 3.3902,1.5269 3.3902,3.3949 0,1.8711 -1.5231,3.3941 -3.3902,3.3941 -1.8719,0 -3.395,-1.523 -3.395,-3.3941 0,-1.868 1.5231,-3.3949 3.395,-3.3949" /><path
       id="path54"
       style="fill:none;stroke:#231f20;stroke-width:1.00005996;stroke-linecap:butt;stroke-linejoin:round;stroke-miterlimit:2.61310005;stroke-opacity:1;stroke-dasharray:2.00012, 1.00006;stroke-dashoffset:0"
       d="m 60.727,92.7391 c 1.8671,0 3.3902,1.5269 3.3902,3.3949 0,1.8711 -1.5231,3.3941 -3.3902,3.3941 -1.8719,0 -3.395,-1.523 -3.395,-3.3941 0,-1.868 1.5231,-3.3949 3.395,-3.3949 z" /><path
       id="path60"
       style="fill:#000000;fill-opacity:1;fill-rule:nonzero;stroke:none"
       d="m 67.668,49.2469 c 0,0.2152 0.0468,0.4453 0.141,0.6871 l 1.4211,3.782 c 0.1527,0.4328 0.2347,0.7891 0.2347,1.0621 0,0.3399 -0.1328,0.516 -0.391,0.516 -0.4609,0 -0.8398,-0.2421 -1.1398,-0.7191 -0.3051,-0.4691 -0.5281,-1.0039 -0.6719,-1.5941 -0.0242,-0.0739 -0.0711,-0.109 -0.141,-0.109 l -0.2031,0 c -0.1059,0 -0.1559,0.0511 -0.1559,0.1562 l 0,0.0629 c 0.1828,0.6949 0.4719,1.316 0.859,1.859 0.3949,0.5391 0.891,0.8129 1.484,0.8129 0.4148,0 0.7699,-0.1449 1.0629,-0.4219 0.289,-0.2738 0.4371,-0.6211 0.4371,-1.0469 0,-0.2191 -0.05,-0.4492 -0.1403,-0.6882 L 69.027,49.825 c -0.1559,-0.3871 -0.234,-0.7379 -0.234,-1.0469 0,-0.3551 0.1332,-0.5312 0.4058,-0.5312 0.4571,0 0.8364,0.2422 1.141,0.734 0.3082,0.489 0.5313,1.016 0.6563,1.5781 0.0199,0.0711 0.066,0.1101 0.141,0.1101 l 0.2027,0 c 0.0512,0 0.0864,-0.0203 0.109,-0.0472 0.0282,-0.0309 0.0473,-0.0699 0.0473,-0.109 0,-0.0117 -0.0082,-0.0277 -0.016,-0.0469 -0.1563,-0.668 -0.441,-1.2851 -0.843,-1.8441 -0.3992,-0.5629 -0.8871,-0.8438 -1.4691,-0.8438 -0.418,0 -0.7731,0.1449 -1.0629,0.4219 -0.293,0.2891 -0.4371,0.641 -0.4371,1.0469 z m 1.984,9.391 c 0,0.2461 0.1019,0.4723 0.3128,0.6711 0.2071,0.1961 0.4301,0.2969 0.6723,0.2969 0.1949,0 0.359,-0.0661 0.484,-0.1868 0.1328,-0.1171 0.2027,-0.2703 0.2027,-0.4531 0,-0.2738 -0.1047,-0.5082 -0.3117,-0.7031 -0.2109,-0.2 -0.4422,-0.2969 -0.6883,-0.2969 -0.1867,0 -0.3508,0.0621 -0.484,0.1871 -0.125,0.1328 -0.1878,0.2969 -0.1878,0.4848 z" /><path
       id="path62"
       style="fill:#000000;fill-opacity:1;fill-rule:nonzero;stroke:none"
       d="m 21.1602,6.91484 c 0,0.28125 0.1019,0.53516 0.2968,0.75 0.195,0.21133 0.441,0.31211 0.734,0.31211 0.184,0 0.3442,-0.0539 0.4692,-0.17109 0.1207,-0.12188 0.1878,-0.28203 0.1878,-0.46875 0,-0.21523 -0.071,-0.41406 -0.2031,-0.59414 -0.1371,-0.18399 -0.3168,-0.31211 -0.532,-0.375 0.207,-0.06992 0.4141,-0.10899 0.625,-0.10899 0.4961,0 0.9301,0.2379 1.2973,0.70313 0.3628,0.46094 0.6168,0.97578 0.766,1.54687 L 26.457,15.118 c 0.0821,0.3398 0.125,0.6289 0.125,0.859 0,0.4968 -0.1761,0.75 -0.516,0.75 -0.523,0 -0.9762,-0.2379 -1.359,-0.7032 -0.3871,-0.4609 -0.6992,-0.9957 -0.9371,-1.609 -0.0238,-0.0738 -0.0711,-0.1089 -0.141,-0.1089 l -0.2027,0 c -0.1063,0 -0.1563,0.05 -0.1563,0.1562 l 0,0.0617 c 0.2692,0.6961 0.6442,1.3172 1.125,1.8602 0.4879,0.539 1.0539,0.8121 1.7031,0.8121 0.4758,0 0.875,-0.1602 1.1872,-0.4691 0.3089,-0.304 0.4687,-0.6911 0.4687,-1.1559 0,-0.168 -0.0199,-0.3359 -0.0469,-0.5 L 26.0352,8.39883 C 25.918,7.92305 25.6879,7.48516 25.348,7.08711 25.0121,6.69219 24.609,6.38008 24.1449,6.14883 23.6762,5.92305 23.1949,5.80586 22.707,5.80586 c -0.398,0 -0.7582,0.09726 -1.0781,0.28125 -0.309,0.18672 -0.4687,0.46484 -0.4687,0.82773 z M 26.723,20.0711 c 0,0.2578 0.0969,0.4848 0.2969,0.6719 0.2071,0.1949 0.4371,0.2968 0.6871,0.2968 0.195,0 0.359,-0.066 0.484,-0.1878 0.1328,-0.1168 0.2039,-0.2692 0.2039,-0.4532 0,-0.2726 -0.1058,-0.5078 -0.3129,-0.7027 -0.2109,-0.1992 -0.441,-0.2973 -0.6871,-0.2973 -0.1879,0 -0.3519,0.0672 -0.4847,0.2032 -0.125,0.1332 -0.1872,0.289 -0.1872,0.4691 z" /><path
       id="path64"
       style="fill:#000000;fill-opacity:1;fill-rule:nonzero;stroke:none"
       d="m 28.398,3.12617 0,0.5 c 1.1961,0 1.7969,0.15586 1.7969,0.46875 l 0,7.56208 c -0.5,-0.2422 -1.1328,-0.359 -1.8898,-0.359 l 0,0.5 c 1.175,0 2.066,0.304 2.6719,0.9219 l 0.2031,0 c 0.0269,0 0.0621,-0.0199 0.0929,-0.0469 0.0282,-0.0242 0.0469,-0.0511 0.0469,-0.0781 l 0,-8.49998 c 0,-0.31289 0.5981,-0.46875 1.7973,-0.46875 l 0,-0.5 -4.7192,0 z" /><path
       id="path66"
       style="fill:#000000;fill-opacity:1;fill-rule:nonzero;stroke:none"
       d="m 109.703,6.62188 c 0,0.28124 0.102,0.53515 0.297,0.75 0.195,0.21093 0.441,0.3121 0.734,0.3121 0.184,0 0.344,-0.0539 0.469,-0.17109 0.121,-0.12187 0.188,-0.28203 0.188,-0.46875 0,-0.21523 -0.071,-0.41406 -0.203,-0.59414 -0.137,-0.18398 -0.317,-0.31211 -0.532,-0.375 0.207,-0.06992 0.414,-0.10898 0.625,-0.10898 0.496,0 0.93,0.23789 1.297,0.70312 0.363,0.46094 0.617,0.97578 0.766,1.54688 L 115,14.825 c 0.082,0.3398 0.125,0.6289 0.125,0.859 0,0.4969 -0.176,0.75 -0.516,0.75 -0.523,0 -0.976,-0.2379 -1.359,-0.7031 -0.387,-0.461 -0.699,-0.9957 -0.938,-1.609 -0.023,-0.0739 -0.07,-0.109 -0.14,-0.109 l -0.203,0 c -0.106,0 -0.157,0.05 -0.157,0.1562 l 0,0.0618 c 0.27,0.6961 0.645,1.3171 1.126,1.8601 0.488,0.5391 1.054,0.8121 1.703,0.8121 0.476,0 0.875,-0.1601 1.187,-0.4691 0.309,-0.3039 0.469,-0.691 0.469,-1.1559 0,-0.1679 -0.02,-0.3359 -0.047,-0.5 l -1.672,-6.67224 c -0.117,-0.47578 -0.348,-0.91367 -0.687,-1.31172 -0.336,-0.39531 -0.739,-0.70703 -1.203,-0.93828 -0.469,-0.22578 -0.95,-0.34297 -1.438,-0.34297 -0.398,0 -0.758,0.09727 -1.078,0.28125 -0.309,0.18672 -0.469,0.46484 -0.469,0.82774 z m 5.563,13.15622 c 0,0.2578 0.097,0.4848 0.296,0.6719 0.208,0.1949 0.438,0.2969 0.688,0.2969 0.195,0 0.359,-0.066 0.484,-0.1879 0.133,-0.1168 0.204,-0.2692 0.204,-0.4531 0,-0.2731 -0.106,-0.5071 -0.313,-0.7028 -0.211,-0.1992 -0.441,-0.2972 -0.687,-0.2972 -0.188,0 -0.352,0.0671 -0.485,0.2031 -0.125,0.1332 -0.187,0.2898 -0.187,0.4691 z" /><path
       id="path68"
       style="fill:#000000;fill-opacity:1;fill-rule:nonzero;stroke:none"
       d="m 116.316,2.82891 0,0.39101 c 0,0.01914 0.008,0.0461 0.032,0.07813 l 2.234,2.46797 c 0.332,0.36406 0.602,0.67187 0.813,0.92187 0.214,0.24609 0.425,0.53594 0.625,0.86016 0.207,0.31992 0.367,0.64804 0.484,0.98398 0.121,0.33985 0.187,0.70313 0.187,1.07813 0,0.38281 -0.074,0.75394 -0.218,1.10974 -0.149,0.3629 -0.368,0.6563 -0.657,0.875 -0.281,0.2141 -0.628,0.3281 -1.031,0.3281 -0.418,0 -0.793,-0.1332 -1.125,-0.391 -0.336,-0.25 -0.57,-0.5742 -0.703,-0.9691 0.027,0.0082 0.082,0.016 0.156,0.016 0.215,0 0.399,-0.0738 0.547,-0.2187 0.152,-0.1481 0.235,-0.3364 0.235,-0.56215 0,-0.21914 -0.083,-0.41016 -0.235,-0.56289 -0.148,-0.14805 -0.332,-0.21914 -0.547,-0.21914 -0.23,0 -0.425,0.0789 -0.578,0.23515 -0.148,0.15195 -0.219,0.33594 -0.219,0.54688 0,0.36285 0.067,0.70315 0.204,1.01485 0.132,0.3211 0.328,0.6019 0.578,0.8441 0.257,0.2461 0.55,0.4379 0.875,0.5629 0.32,0.1321 0.66,0.2031 1.015,0.2031 0.551,0 1.063,-0.121 1.532,-0.3601 0.476,-0.2301 0.851,-0.5578 1.125,-0.984 0.277,-0.418 0.421,-0.9098 0.421,-1.46874 0,-0.4293 -0.097,-0.83204 -0.281,-1.20313 -0.18,-0.375 -0.414,-0.72305 -0.703,-1.03086 -0.281,-0.30508 -0.648,-0.64922 -1.094,-1.03125 -0.437,-0.38711 -0.73,-0.64883 -0.875,-0.78203 l -1.625,-1.56172 1.375,0 c 0.684,0 1.254,0.00391 1.703,0.01485 0.457,0.00781 0.704,0.02382 0.735,0.04687 0.113,0.12109 0.226,0.56719 0.344,1.32813 l 0.421,0 -0.406,-2.56211 -5.344,0 z" /><path
       id="path70"
       style="fill:#000000;fill-opacity:1;fill-rule:nonzero;stroke:none"
       d="m 34.9449,100.188 6.31289,0 0,0.92227 -6.31289,0 0,-0.92227 z" /><path
       id="path72"
       style="fill:#000000;fill-opacity:1;fill-rule:nonzero;stroke:none"
       d="m 41.5469,93.8289 c 0,0.2813 0.1011,0.5352 0.2972,0.75 0.195,0.2109 0.4411,0.3121 0.734,0.3121 0.184,0 0.3438,-0.0539 0.4688,-0.1711 0.1211,-0.1211 0.1871,-0.282 0.1871,-0.4687 0,-0.2153 -0.0699,-0.4141 -0.2031,-0.5942 -0.136,-0.1832 -0.3161,-0.3121 -0.5309,-0.375 0.207,-0.0699 0.4141,-0.109 0.625,-0.109 0.4961,0 0.9301,0.2379 1.2969,0.7032 0.3633,0.4609 0.6172,0.9758 0.766,1.5468 l 1.6562,6.609 c 0.0821,0.34 0.125,0.629 0.125,0.859 0,0.497 -0.1761,0.75 -0.516,0.75 -0.523,0 -0.9761,-0.238 -1.359,-0.703 -0.3871,-0.461 -0.6992,-0.996 -0.9382,-1.609 -0.0231,-0.074 -0.07,-0.109 -0.1399,-0.109 l -0.2039,0 c -0.1051,0 -0.1562,0.05 -0.1562,0.156 l 0,0.062 c 0.2703,0.696 0.6453,1.317 1.125,1.86 0.489,0.539 1.055,0.812 1.7031,0.812 0.4769,0 0.875,-0.16 1.1879,-0.469 0.3082,-0.304 0.4691,-0.691 0.4691,-1.156 0,-0.168 -0.0199,-0.336 -0.0469,-0.5 l -1.6722,-6.6721 c -0.1168,-0.4758 -0.3481,-0.9141 -0.6879,-1.3117 -0.336,-0.3953 -0.7379,-0.7071 -1.2031,-0.9383 -0.4688,-0.2258 -0.9489,-0.343 -1.4368,-0.343 -0.3992,0 -0.7582,0.0973 -1.0781,0.2813 -0.309,0.1867 -0.4691,0.4648 -0.4691,0.8277 z m 5.5621,13.1561 c 0,0.258 0.098,0.485 0.2969,0.672 0.207,0.195 0.4382,0.297 0.6882,0.297 0.195,0 0.359,-0.066 0.484,-0.188 0.1328,-0.117 0.2028,-0.269 0.2028,-0.453 0,-0.273 -0.1047,-0.507 -0.3118,-0.703 -0.2113,-0.199 -0.4421,-0.297 -0.6882,-0.297 -0.1868,0 -0.3508,0.067 -0.484,0.203 -0.125,0.133 -0.1879,0.29 -0.1879,0.469 z" /><path
       id="path74"
       style="fill:#000000;fill-opacity:1;fill-rule:nonzero;stroke:none"
       d="m 49.3441,91.1449 c 0.2149,-0.3238 0.5149,-0.5699 0.8899,-0.734 0.3832,-0.1558 0.7969,-0.2339 1.2351,-0.2339 0.5579,0 0.9571,0.2339 1.1868,0.7031 0.239,0.4758 0.3601,1.0187 0.3601,1.625 0,0.2769 -0.0281,0.5539 -0.0781,0.8277 -0.0551,0.2692 -0.1367,0.5192 -0.25,0.75 -0.118,0.2383 -0.2777,0.4262 -0.4848,0.5621 -0.1992,0.1449 -0.4492,0.2192 -0.75,0.2192 l -0.9531,0 c -0.0859,0 -0.125,0.039 -0.125,0.125 l 0,0.125 c 0,0.082 0.0391,0.125 0.125,0.125 l 0.7969,0.0629 c 0.332,0 0.609,0.125 0.8281,0.375 0.227,0.246 0.3949,0.5539 0.5,0.9218 0.102,0.3633 0.1559,0.7102 0.1559,1.0461 0,0.4571 -0.1129,0.8321 -0.3278,1.125 -0.2109,0.3012 -0.539,0.4539 -0.984,0.4539 -0.3671,0 -0.7152,-0.075 -1.0472,-0.2187 -0.336,-0.1371 -0.602,-0.3481 -0.7969,-0.625 0.0199,0 0.0352,0 0.0469,0 0.0191,0.0078 0.039,0.0148 0.0621,0.0148 0.207,0 0.3832,-0.082 0.532,-0.234 0.1442,-0.148 0.218,-0.3238 0.218,-0.5308 0,-0.211 -0.0738,-0.3949 -0.218,-0.5473 -0.1488,-0.1488 -0.325,-0.2187 -0.532,-0.2187 -0.218,0 -0.4102,0.0699 -0.5621,0.2187 -0.1489,0.1524 -0.2188,0.3363 -0.2188,0.5473 0,0.4019 0.125,0.7578 0.375,1.0621 0.2457,0.309 0.5668,0.5469 0.9528,0.7027 0.3953,0.1531 0.789,0.2352 1.1882,0.2352 0.2887,0 0.5969,-0.0512 0.9219,-0.141 0.3199,-0.086 0.6129,-0.211 0.875,-0.375 0.2692,-0.1563 0.4879,-0.3629 0.6559,-0.609 0.164,-0.25 0.25,-0.5391 0.25,-0.8602 0,-0.4058 -0.0981,-0.7847 -0.2809,-1.125 -0.1801,-0.3429 -0.4262,-0.6437 -0.7351,-0.8898 -0.3118,-0.25 -0.6598,-0.434 -1.0309,-0.5473 0.4141,-0.0859 0.8129,-0.2457 1.1871,-0.484 0.3719,-0.2308 0.6719,-0.5277 0.891,-0.891 0.227,-0.3668 0.3438,-0.7617 0.3438,-1.1879 0,-0.5308 -0.1489,-1.0109 -0.4379,-1.4371 -0.2809,-0.4297 -0.6641,-0.7617 -1.1399,-1 -0.4691,-0.2379 -0.973,-0.359 -1.5,-0.359 -0.4492,0 -0.9031,0.0891 -1.3601,0.2653 -0.4488,0.164 -0.8199,0.414 -1.109,0.75 -0.2809,0.3398 -0.4219,0.7539 -0.4219,1.2347 0,0.2383 0.0778,0.4371 0.234,0.5934 0.1527,0.1637 0.352,0.25 0.5938,0.25 0.1531,0 0.2972,-0.0391 0.4222,-0.1094 0.1328,-0.0738 0.2379,-0.1797 0.3129,-0.3129 0.0699,-0.125 0.109,-0.2687 0.109,-0.4211 0,-0.2308 -0.0859,-0.4297 -0.25,-0.5937 -0.168,-0.1563 -0.3672,-0.2352 -0.5941,-0.2352 l -0.0618,0 z" /><path
       id="path76"
       style="fill:#000000;fill-opacity:1;fill-rule:nonzero;stroke:none"
       d="m 123.645,41.0281 c 0,0.2809 0.101,0.5348 0.296,0.75 0.196,0.211 0.442,0.3129 0.735,0.3129 0.183,0 0.344,-0.0551 0.469,-0.1719 0.121,-0.1211 0.187,-0.2812 0.187,-0.4691 0,-0.2148 -0.07,-0.4141 -0.203,-0.5941 -0.137,-0.1829 -0.317,-0.3118 -0.531,-0.375 0.207,-0.07 0.414,-0.109 0.625,-0.109 0.496,0 0.929,0.2383 1.297,0.7031 0.363,0.4609 0.617,0.977 0.765,1.5469 l 1.656,6.609 c 0.082,0.3402 0.125,0.6293 0.125,0.8601 0,0.4961 -0.175,0.75 -0.515,0.75 -0.524,0 -0.977,-0.239 -1.36,-0.7031 -0.386,-0.4609 -0.699,-0.9969 -0.937,-1.6098 -0.024,-0.0742 -0.07,-0.109 -0.141,-0.109 l -0.203,0 c -0.105,0 -0.156,0.0508 -0.156,0.1559 l 0,0.0629 c 0.269,0.6949 0.644,1.316 1.125,1.859 0.488,0.539 1.055,0.8121 1.703,0.8121 0.477,0 0.875,-0.1602 1.188,-0.468 0.308,-0.3051 0.468,-0.6922 0.468,-1.157 0,-0.168 -0.019,-0.3352 -0.047,-0.5 l -1.671,-6.6711 c -0.118,-0.477 -0.348,-0.9141 -0.688,-1.3129 -0.336,-0.3941 -0.738,-0.707 -1.203,-0.9371 -0.469,-0.227 -0.949,-0.3438 -1.438,-0.3438 -0.398,0 -0.757,0.0969 -1.078,0.2809 -0.308,0.1879 -0.468,0.4648 -0.468,0.8281 z m 5.562,13.1559 c 0,0.2582 0.098,0.4851 0.297,0.6719 0.207,0.1961 0.437,0.2972 0.687,0.2972 0.196,0 0.36,-0.066 0.485,-0.1871 0.133,-0.1172 0.203,-0.2699 0.203,-0.4531 0,-0.2738 -0.106,-0.5078 -0.313,-0.7039 -0.211,-0.1988 -0.441,-0.2961 -0.687,-0.2961 -0.188,0 -0.352,0.066 -0.484,0.2031 -0.125,0.1328 -0.188,0.2891 -0.188,0.468 z" /><path
       id="path78"
       style="fill:#000000;fill-opacity:1;fill-rule:nonzero;stroke:none"
       d="m 130.914,38.3449 c 0.215,-0.325 0.516,-0.5711 0.891,-0.7347 0.383,-0.1563 0.797,-0.234 1.234,-0.234 0.559,0 0.957,0.234 1.188,0.7027 0.238,0.477 0.359,1.0199 0.359,1.625 0,0.277 -0.027,0.5551 -0.078,0.8281 -0.055,0.27 -0.137,0.52 -0.25,0.75 -0.117,0.2379 -0.278,0.4258 -0.485,0.5629 -0.199,0.1442 -0.449,0.218 -0.75,0.218 l -0.953,0 c -0.086,0 -0.125,0.0391 -0.125,0.125 l 0,0.125 c 0,0.082 0.039,0.125 0.125,0.125 l 0.797,0.0633 c 0.332,0 0.61,0.125 0.828,0.375 0.227,0.2457 0.395,0.5547 0.5,0.9218 0.102,0.3629 0.157,0.711 0.157,1.0469 0,0.4571 -0.114,0.8321 -0.329,1.125 -0.211,0.3 -0.539,0.4531 -0.984,0.4531 -0.367,0 -0.715,-0.0742 -1.047,-0.2191 -0.336,-0.1367 -0.601,-0.348 -0.797,-0.625 0.02,0 0.035,0 0.047,0 0.02,0.0082 0.039,0.016 0.063,0.016 0.207,0 0.383,-0.082 0.531,-0.2347 0.144,-0.1481 0.219,-0.3243 0.219,-0.5313 0,-0.2109 -0.075,-0.3949 -0.219,-0.5469 -0.148,-0.148 -0.324,-0.2191 -0.531,-0.2191 -0.219,0 -0.41,0.0711 -0.563,0.2191 -0.148,0.152 -0.219,0.336 -0.219,0.5469 0,0.402 0.125,0.7582 0.375,1.0621 0.247,0.309 0.567,0.5469 0.954,0.7039 0.394,0.152 0.789,0.234 1.187,0.234 0.289,0 0.598,-0.0508 0.922,-0.141 0.32,-0.0859 0.613,-0.2109 0.875,-0.375 0.269,-0.1559 0.488,-0.3629 0.656,-0.609 0.164,-0.25 0.25,-0.5391 0.25,-0.859 0,-0.407 -0.097,-0.7859 -0.281,-1.125 -0.18,-0.3437 -0.426,-0.6449 -0.734,-0.891 -0.313,-0.25 -0.661,-0.434 -1.032,-0.5469 0.414,-0.0859 0.813,-0.2461 1.188,-0.484 0.371,-0.2308 0.672,-0.5281 0.89,-0.891 0.227,-0.3672 0.344,-0.7621 0.344,-1.1871 0,-0.532 -0.148,-1.0121 -0.437,-1.4379 -0.282,-0.43 -0.664,-0.7621 -1.141,-1 -0.469,-0.2379 -0.973,-0.359 -1.5,-0.359 -0.449,0 -0.902,0.0899 -1.359,0.2649 -0.45,0.1641 -0.821,0.4141 -1.11,0.75 -0.281,0.3402 -0.422,0.7543 -0.422,1.2351 0,0.2379 0.079,0.4372 0.235,0.593 0.152,0.1649 0.351,0.25 0.594,0.25 0.152,0 0.296,-0.039 0.421,-0.109 0.133,-0.0742 0.239,-0.18 0.313,-0.3121 0.07,-0.125 0.109,-0.2699 0.109,-0.4219 0,-0.2308 -0.086,-0.43 -0.25,-0.5941 -0.168,-0.1559 -0.367,-0.234 -0.593,-0.234 l -0.063,0 z" /><path
       id="path22"
       style="fill:#231f20;fill-opacity:1;fill-rule:evenodd;stroke:none"
       d="m 15.712258,14.651861 c 1.7972,-0.5078 3.6801,0.5422 4.1871,2.3434 0.5082,1.7969 -0.543,3.6797 -2.343,4.1879 -1.7969,0.5078 -3.6801,-0.543 -4.1879,-2.3442 -0.5082,-1.8007 0.543,-3.68 2.3438,-4.1871" /><path
       id="path38-4"
       style="fill:#231f20;fill-opacity:1;fill-rule:evenodd;stroke:none"
       d="m 117.73061,34.554263 c 1.797,-0.5078 3.679,0.543 4.187,2.343 0.508,1.7972 -0.547,3.6761 -2.344,4.1882 -1.8,0.5079 -3.679,-0.5472 -4.191,-2.3441 -0.508,-1.8012 0.547,-3.684 2.348,-4.1871" /></g></svg>