<?xml version="1.0" encoding="UTF-8" standalone="no"?>
<!-- Created with Inkscape (http://www.inkscape.org/) -->

<svg
   xmlns:dc="http://purl.org/dc/elements/1.1/"
   xmlns:cc="http://creativecommons.org/ns#"
   xmlns:rdf="http://www.w3.org/1999/02/22-rdf-syntax-ns#"
   xmlns:svg="http://www.w3.org/2000/svg"
   xmlns="http://www.w3.org/2000/svg"
   xmlns:sodipodi="http://sodipodi.sourceforge.net/DTD/sodipodi-0.dtd"
   xmlns:inkscape="http://www.inkscape.org/namespaces/inkscape"
   id="svg2"
   version="1.1"
   inkscape:version="0.47 r22583"
   width="507.92517"
   height="57.500004"
   xml:space="preserve"
   sodipodi:docname="results-legend.svg"><metadata
     id="metadata8"><rdf:RDF><cc:Work
         rdf:about=""><dc:format>image/svg+xml</dc:format><dc:type
           rdf:resource="http://purl.org/dc/dcmitype/StillImage" /><dc:title></dc:title></cc:Work></rdf:RDF></metadata><defs
     id="defs6"><inkscape:perspective
       sodipodi:type="inkscape:persp3d"
       inkscape:vp_x="0 : 0.5 : 1"
       inkscape:vp_y="0 : 1000 : 0"
       inkscape:vp_z="1 : 0.5 : 1"
       inkscape:persp3d-origin="0.5 : 0.33333333 : 1"
       id="perspective10" /><clipPath
       clipPathUnits="userSpaceOnUse"
       id="clipPath20"><path
         d="m 2.5,9.16797 4077.5,0 0,3980.83003 -4077.5,0 0,-3980.83003 z"
         id="path22" /></clipPath><clipPath
       clipPathUnits="userSpaceOnUse"
       id="clipPath148"><path
         d="m 339.168,3875.83 0,-2832.5 2727.502,0 0,2832.5 -2727.502,0 z"
         id="path150" /></clipPath><clipPath
       clipPathUnits="userSpaceOnUse"
       id="clipPath636"><path
         d="m 2,9 0,3981 4078,0 L 4080,9 2,9 z"
         id="path638" /></clipPath><clipPath
       clipPathUnits="userSpaceOnUse"
       id="clipPath700"><path
         d="m 3167.5,3875 0,-2469.17 877.5,0 0,2469.17 -877.5,0 z"
         id="path702" /></clipPath><clipPath
       clipPathUnits="userSpaceOnUse"
       id="clipPath712"><path
         d="m 2,9 0,3981 4078,0 L 4080,9 2,9 z"
         id="path714" /></clipPath><clipPath
       clipPathUnits="userSpaceOnUse"
       id="clipPath726"><path
         d="m 3167.5,3875 0,-2469.17 877.5,0 0,2469.17 -877.5,0 z"
         id="path728" /></clipPath><clipPath
       clipPathUnits="userSpaceOnUse"
       id="clipPath738"><path
         d="m 2,9 0,3981 4078,0 L 4080,9 2,9 z"
         id="path740" /></clipPath><clipPath
       clipPathUnits="userSpaceOnUse"
       id="clipPath752"><path
         d="m 3167.5,3875 0,-2469.17 877.5,0 0,2469.17 -877.5,0 z"
         id="path754" /></clipPath><clipPath
       clipPathUnits="userSpaceOnUse"
       id="clipPath764"><path
         d="m 2,9 0,3981 4078,0 L 4080,9 2,9 z"
         id="path766" /></clipPath><clipPath
       clipPathUnits="userSpaceOnUse"
       id="clipPath778"><path
         d="m 3167.5,3875 0,-2469.17 877.5,0 0,2469.17 -877.5,0 z"
         id="path780" /></clipPath><clipPath
       clipPathUnits="userSpaceOnUse"
       id="clipPath790"><path
         d="m 2,9 0,3981 4078,0 L 4080,9 2,9 z"
         id="path792" /></clipPath><clipPath
       clipPathUnits="userSpaceOnUse"
       id="clipPath804"><path
         d="m 3167.5,3875 0,-2469.17 877.5,0 0,2469.17 -877.5,0 z"
         id="path806" /></clipPath><clipPath
       clipPathUnits="userSpaceOnUse"
       id="clipPath816"><path
         d="m 2,9 0,3981 4078,0 L 4080,9 2,9 z"
         id="path818" /></clipPath><clipPath
       clipPathUnits="userSpaceOnUse"
       id="clipPath830"><path
         d="m 3167.5,3875 0,-2469.17 877.5,0 0,2469.17 -877.5,0 z"
         id="path832" /></clipPath><clipPath
       clipPathUnits="userSpaceOnUse"
       id="clipPath842"><path
         d="m 2,9 0,3981 4078,0 L 4080,9 2,9 z"
         id="path844" /></clipPath><clipPath
       clipPathUnits="userSpaceOnUse"
       id="clipPath856"><path
         d="m 3167.5,3875 0,-2469.17 877.5,0 0,2469.17 -877.5,0 z"
         id="path858" /></clipPath><clipPath
       clipPathUnits="userSpaceOnUse"
       id="clipPath868"><path
         d="m 2,9 0,3981 4078,0 L 4080,9 2,9 z"
         id="path870" /></clipPath><clipPath
       clipPathUnits="userSpaceOnUse"
       id="clipPath882"><path
         d="m 3167.5,3875 0,-2469.17 877.5,0 0,2469.17 -877.5,0 z"
         id="path884" /></clipPath><clipPath
       clipPathUnits="userSpaceOnUse"
       id="clipPath894"><path
         d="m 2,9 0,3981 4078,0 L 4080,9 2,9 z"
         id="path896" /></clipPath><clipPath
       clipPathUnits="userSpaceOnUse"
       id="clipPath908"><path
         d="m 3167.5,3875 0,-2469.17 877.5,0 0,2469.17 -877.5,0 z"
         id="path910" /></clipPath><clipPath
       clipPathUnits="userSpaceOnUse"
       id="clipPath920"><path
         d="m 2,9 0,3981 4078,0 L 4080,9 2,9 z"
         id="path922" /></clipPath><clipPath
       clipPathUnits="userSpaceOnUse"
       id="clipPath934"><path
         d="m 3167.5,3875 0,-2469.17 877.5,0 0,2469.17 -877.5,0 z"
         id="path936" /></clipPath><clipPath
       clipPathUnits="userSpaceOnUse"
       id="clipPath946"><path
         d="m 2,9 0,3981 4078,0 L 4080,9 2,9 z"
         id="path948" /></clipPath><clipPath
       clipPathUnits="userSpaceOnUse"
       id="clipPath960"><path
         d="m 3167.5,3875 0,-2469.17 877.5,0 0,2469.17 -877.5,0 z"
         id="path962" /></clipPath><clipPath
       clipPathUnits="userSpaceOnUse"
       id="clipPath972"><path
         d="m 2,9 0,3981 4078,0 L 4080,9 2,9 z"
         id="path974" /></clipPath><clipPath
       clipPathUnits="userSpaceOnUse"
       id="clipPath986"><path
         d="m 3167.5,3875 0,-2469.17 877.5,0 0,2469.17 -877.5,0 z"
         id="path988" /></clipPath><clipPath
       clipPathUnits="userSpaceOnUse"
       id="clipPath998"><path
         d="m 2,9 0,3981 4078,0 L 4080,9 2,9 z"
         id="path1000" /></clipPath><clipPath
       clipPathUnits="userSpaceOnUse"
       id="clipPath1012"><path
         d="m 3167.5,3875 0,-2469.17 877.5,0 0,2469.17 -877.5,0 z"
         id="path1014" /></clipPath><clipPath
       clipPathUnits="userSpaceOnUse"
       id="clipPath1024"><path
         d="m 2,9 0,3981 4078,0 L 4080,9 2,9 z"
         id="path1026" /></clipPath><clipPath
       clipPathUnits="userSpaceOnUse"
       id="clipPath1038"><path
         d="m 3167.5,3875 0,-2469.17 877.5,0 0,2469.17 -877.5,0 z"
         id="path1040" /></clipPath><clipPath
       clipPathUnits="userSpaceOnUse"
       id="clipPath1050"><path
         d="m 2,9 0,3981 4078,0 L 4080,9 2,9 z"
         id="path1052" /></clipPath><clipPath
       clipPathUnits="userSpaceOnUse"
       id="clipPath1064"><path
         d="m 3167.5,3875 0,-2469.17 877.5,0 0,2469.17 -877.5,0 z"
         id="path1066" /></clipPath><clipPath
       clipPathUnits="userSpaceOnUse"
       id="clipPath1076"><path
         d="m 2,9 0,3981 4078,0 L 4080,9 2,9 z"
         id="path1078" /></clipPath><clipPath
       clipPathUnits="userSpaceOnUse"
       id="clipPath1090"><path
         d="m 3167.5,3875 0,-2469.17 877.5,0 0,2469.17 -877.5,0 z"
         id="path1092" /></clipPath><clipPath
       clipPathUnits="userSpaceOnUse"
       id="clipPath1102"><path
         d="m 2,9 0,3981 4078,0 L 4080,9 2,9 z"
         id="path1104" /></clipPath><clipPath
       clipPathUnits="userSpaceOnUse"
       id="clipPath1116"><path
         d="m 3167.5,3875 0,-2469.17 877.5,0 0,2469.17 -877.5,0 z"
         id="path1118" /></clipPath><clipPath
       clipPathUnits="userSpaceOnUse"
       id="clipPath1128"><path
         d="m 2,9 0,3981 4078,0 L 4080,9 2,9 z"
         id="path1130" /></clipPath><clipPath
       clipPathUnits="userSpaceOnUse"
       id="clipPath1142"><path
         d="m 3167.5,3875 0,-2469.17 877.5,0 0,2469.17 -877.5,0 z"
         id="path1144" /></clipPath><clipPath
       clipPathUnits="userSpaceOnUse"
       id="clipPath1154"><path
         d="m 2,9 0,3981 4078,0 L 4080,9 2,9 z"
         id="path1156" /></clipPath><clipPath
       clipPathUnits="userSpaceOnUse"
       id="clipPath1168"><path
         d="m 3167.5,3875 0,-2469.17 877.5,0 0,2469.17 -877.5,0 z"
         id="path1170" /></clipPath><clipPath
       clipPathUnits="userSpaceOnUse"
       id="clipPath1180"><path
         d="m 2,9 0,3981 4078,0 L 4080,9 2,9 z"
         id="path1182" /></clipPath><clipPath
       clipPathUnits="userSpaceOnUse"
       id="clipPath1194"><path
         d="m 3167.5,3875 0,-2469.17 877.5,0 0,2469.17 -877.5,0 z"
         id="path1196" /></clipPath></defs><sodipodi:namedview
     pagecolor="#ffffff"
     bordercolor="#666666"
     borderopacity="1"
     objecttolerance="10"
     gridtolerance="10"
     guidetolerance="10"
     inkscape:pageopacity="0"
     inkscape:pageshadow="2"
     inkscape:window-width="1200"
     inkscape:window-height="1895"
     id="namedview4"
     showgrid="false"
     inkscape:zoom="1.3383635"
     inkscape:cx="254.62679"
     inkscape:cy="-187.40452"
     inkscape:window-x="0"
     inkscape:window-y="0"
     inkscape:window-maximized="1"
     inkscape:current-layer="g12" /><g
     id="g12"
     inkscape:groupmode="layer"
     inkscape:label="resultsbar-base"
     transform="matrix(1.25,0,0,-1.25,-32.523144,707.87182)"><g
       id="g5274"
       transform="translate(-85.477525,214.59042)"><g
         transform="translate(-211.00396,-32.875966)"
         id="g690"><text
           transform="matrix(1,0,0,-1,356.083,376.333)"
           id="text692"><tspan
             style="font-size:10px;font-variant:normal;font-weight:normal;writing-mode:lr-tb;fill:#000000;fill-opacity:1;fill-rule:nonzero;stroke:none;font-family:Helvetica;-inkscape-font-specification:Helvetica"
             x="0 6.6700001 12.51 19.18"
             y="0"
             sodipodi:role="line"
             id="tspan694">P−PA</tspan></text>
</g><g
         transform="matrix(0.1,0,0,0.1,-211.00396,-32.875966)"
         clip-path="url(#clipPath700)"
         id="g698"><path
           id="path704"
           style="fill:#b2b2b2;fill-opacity:1;fill-rule:evenodd;stroke:none"
           d="m 3227.5,3754.17 302.5,0 0,89.1641 -302.5,0 0,-89.1641 z" /><path
           id="path706"
           style="fill:none;stroke:#000000;stroke-width:5;stroke-linecap:butt;stroke-linejoin:round;stroke-miterlimit:10;stroke-opacity:1;stroke-dasharray:none"
           d="m 3227.5,3754.17 0,89.16 302.5,0 0,-89.16 -302.5,0 0,0" /></g><g
         transform="matrix(0.1,0,0,0.1,-211.00396,-32.875966)"
         id="g708"><g
           id="g710"
           clip-path="url(#clipPath712)"><g
             id="g716"
             transform="scale(10,10)"><text
               transform="matrix(1,0,0,-1,356.083,364.167)"
               id="text718"><tspan
                 style="font-size:10px;font-variant:normal;font-weight:normal;writing-mode:lr-tb;fill:#000000;fill-opacity:1;fill-rule:nonzero;stroke:none;font-family:Helvetica;-inkscape-font-specification:Helvetica"
                 x="0 6.6700001 12.51 19.18"
                 y="0"
                 sodipodi:role="line"
                 id="tspan720">P−AA</tspan></text>
</g></g></g><g
         transform="matrix(0.1,0,0,0.1,-211.00396,-32.875966)"
         id="g722"><g
           id="g724"
           clip-path="url(#clipPath726)"><path
             d="m 3227.5,3632.5 302.5,0 0,89.168 -302.5,0 0,-89.168 z"
             style="fill:#666666;fill-opacity:1;fill-rule:evenodd;stroke:none"
             id="path730" /><path
             d="m 3227.5,3632.5 0,89.17 302.5,0 0,-89.17 -302.5,0 0,0"
             style="fill:none;stroke:#000000;stroke-width:5;stroke-linecap:butt;stroke-linejoin:round;stroke-miterlimit:10;stroke-opacity:1;stroke-dasharray:none"
             id="path732" /></g></g><g
         transform="matrix(0.1,0,0,0.1,-211.00396,-32.875966)"
         id="g734"><g
           id="g736"
           clip-path="url(#clipPath738)"><g
             id="g742"
             transform="scale(10,10)"><text
               transform="matrix(1,0,0,-1,356.083,351.917)"
               id="text744"><tspan
                 style="font-size:10px;font-variant:normal;font-weight:normal;writing-mode:lr-tb;fill:#000000;fill-opacity:1;fill-rule:nonzero;stroke:none;font-family:Helvetica;-inkscape-font-specification:Helvetica"
                 x="0 6.6700001 12.51 17.51 24.18"
                 y="0"
                 sodipodi:role="line"
                 id="tspan746">P−JAC</tspan></text>
</g></g></g><g
         transform="matrix(0.1,0,0,0.1,-211.00396,-32.875966)"
         id="g748"><g
           id="g750"
           clip-path="url(#clipPath752)"><path
             d="m 3227.5,3510 302.5,0 0,90 -302.5,0 0,-90 z"
             style="fill:#000000;fill-opacity:1;fill-rule:evenodd;stroke:none"
             id="path756" /><path
             d="m 3227.5,3510 0,90 302.5,0 0,-90 -302.5,0 0,0"
             style="fill:none;stroke:#000000;stroke-width:5;stroke-linecap:butt;stroke-linejoin:round;stroke-miterlimit:10;stroke-opacity:1;stroke-dasharray:none"
             id="path758" /></g></g><g
         transform="matrix(0.1,0,0,0.1,-211.00396,-32.875966)"
         id="g760"><g
           id="g762"
           clip-path="url(#clipPath764)"><g
             id="g768"
             transform="scale(10,10)"><text
               transform="matrix(1,0,0,-1,356.083,339.75)"
               id="text770"><tspan
                 style="font-size:10px;font-variant:normal;font-weight:normal;writing-mode:lr-tb;fill:#000000;fill-opacity:1;fill-rule:nonzero;stroke:none;font-family:Helvetica;-inkscape-font-specification:Helvetica"
                 x="0 6.6700001 12.51 18.620001 25.84"
                 y="0"
                 sodipodi:role="line"
                 id="tspan772">A−TRI</tspan></text>
</g></g></g><g
         transform="matrix(0.1,0,0,0.1,-211.00396,-32.875966)"
         id="g774"><g
           id="g776"
           clip-path="url(#clipPath778)"><path
             d="m 3227.5,3388.33 302.5,0 0,89.168 -302.5,0 0,-89.168 z"
             style="fill:#ffff00;fill-opacity:1;fill-rule:evenodd;stroke:none"
             id="path782" /><path
             d="m 3227.5,3388.33 0,89.17 302.5,0 0,-89.17 -302.5,0 0,0"
             style="fill:none;stroke:#000000;stroke-width:5;stroke-linecap:butt;stroke-linejoin:round;stroke-miterlimit:10;stroke-opacity:1;stroke-dasharray:none"
             id="path784" /></g></g></g><g
       id="g5309"
       transform="translate(-21.817887,287.25022)"><g
         transform="matrix(0.1,0,0,0.1,-199.64681,-56.785763)"
         id="g786"><g
           id="g788"
           clip-path="url(#clipPath790)"><g
             id="g794"
             transform="scale(10,10)"><text
               transform="matrix(1,0,0,-1,356.083,327.583)"
               id="text796"><tspan
                 style="font-size:10px;font-variant:normal;font-weight:normal;writing-mode:lr-tb;fill:#000000;fill-opacity:1;fill-rule:nonzero;stroke:none;font-family:Helvetica;-inkscape-font-specification:Helvetica"
                 x="0 6.6700001 12.51 19.18 26.959999 32.52"
                 y="0"
                 sodipodi:role="line"
                 id="tspan798">A−POLY</tspan></text>
</g></g></g><g
         transform="matrix(0.1,0,0,0.1,-199.64681,-56.785763)"
         id="g800"><g
           id="g802"
           clip-path="url(#clipPath804)"><path
             d="m 3227.5,3266.67 302.5,0 0,89.1641 -302.5,0 0,-89.1641 z"
             style="fill:#ff0000;fill-opacity:1;fill-rule:evenodd;stroke:none"
             id="path808" /><path
             d="m 3227.5,3266.67 0,89.16 302.5,0 0,-89.16 -302.5,0 0,0"
             style="fill:none;stroke:#000000;stroke-width:5;stroke-linecap:butt;stroke-linejoin:round;stroke-miterlimit:10;stroke-opacity:1;stroke-dasharray:none"
             id="path810" /></g></g><g
         transform="matrix(0.1,0,0,0.1,-199.64681,-56.785763)"
         id="g812"><g
           id="g814"
           clip-path="url(#clipPath816)"><g
             id="g820"
             transform="scale(10,10)"><text
               transform="matrix(1,0,0,-1,356.083,315.417)"
               id="text822"><tspan
                 style="font-size:10px;font-variant:normal;font-weight:normal;writing-mode:lr-tb;fill:#000000;fill-opacity:1;fill-rule:nonzero;stroke:none;font-family:Helvetica;-inkscape-font-specification:Helvetica"
                 x="0 6.6700001 12.51 19.18 26.959999 32.52 39.189999"
                 y="0"
                 sodipodi:role="line"
                 id="tspan824">A−POLYN</tspan></text>
</g></g></g><g
         transform="matrix(0.1,0,0,0.1,-199.64681,-56.785763)"
         id="g826"><g
           id="g828"
           clip-path="url(#clipPath830)"><path
             d="m 3227.5,3145 302.5,0 0,89.168 -302.5,0 0,-89.168 z"
             style="fill:#ffcc00;fill-opacity:1;fill-rule:evenodd;stroke:none"
             id="path834" /><path
             d="m 3227.5,3145 0,89.17 302.5,0 0,-89.17 -302.5,0 0,0"
             style="fill:none;stroke:#000000;stroke-width:5;stroke-linecap:butt;stroke-linejoin:round;stroke-miterlimit:10;stroke-opacity:1;stroke-dasharray:none"
             id="path836" /></g></g><g
         transform="matrix(0.1,0,0,0.1,-199.64681,-56.785763)"
         id="g838"><g
           id="g840"
           clip-path="url(#clipPath842)"><g
             id="g846"
             transform="scale(10,10)"><text
               transform="matrix(1,0,0,-1,356.083,303.167)"
               id="text848"><tspan
                 style="font-size:10px;font-variant:normal;font-weight:normal;writing-mode:lr-tb;fill:#000000;fill-opacity:1;fill-rule:nonzero;stroke:none;font-family:Helvetica;-inkscape-font-specification:Helvetica"
                 x="0 6.6700001 12.51 19.18 25.85"
                 y="0"
                 sodipodi:role="line"
                 id="tspan850">A−EXP</tspan></text>
</g></g></g><g
         transform="matrix(0.1,0,0,0.1,-199.64681,-56.785763)"
         id="g852"><g
           id="g854"
           clip-path="url(#clipPath856)"><path
             d="m 3227.5,3023.33 302.5,0 0,89.168 -302.5,0 0,-89.168 z"
             style="fill:#b200ff;fill-opacity:1;fill-rule:evenodd;stroke:none"
             id="path860" /><path
             d="m 3227.5,3023.33 0,89.17 302.5,0 0,-89.17 -302.5,0 0,0"
             style="fill:none;stroke:#000000;stroke-width:5;stroke-linecap:butt;stroke-linejoin:round;stroke-miterlimit:10;stroke-opacity:1;stroke-dasharray:none"
             id="path862" /></g></g><g
         transform="matrix(0.1,0,0,0.1,-199.64681,-56.785763)"
         id="g864"><g
           id="g866"
           clip-path="url(#clipPath868)"><g
             id="g872"
             transform="scale(10,10)"><text
               transform="matrix(1,0,0,-1,356.083,291)"
               id="text874"><tspan
                 style="font-size:10px;font-variant:normal;font-weight:normal;writing-mode:lr-tb;fill:#000000;fill-opacity:1;fill-rule:nonzero;stroke:none;font-family:Helvetica;-inkscape-font-specification:Helvetica"
                 x="0 6.6700001 12.51 19.73 26.4"
                 y="0"
                 sodipodi:role="line"
                 id="tspan876">A−NEU</tspan></text>
</g></g></g><g
         transform="matrix(0.1,0,0,0.1,-199.64681,-56.785763)"
         id="g878"><g
           id="g880"
           clip-path="url(#clipPath882)"><path
             d="m 3227.5,2900.83 302.5,0 0,90 -302.5,0 0,-90 z"
             style="fill:#00ff00;fill-opacity:1;fill-rule:evenodd;stroke:none"
             id="path886" /><path
             d="m 3227.5,2900.83 0,90 302.5,0 0,-90 -302.5,0 0,0"
             style="fill:none;stroke:#000000;stroke-width:5;stroke-linecap:butt;stroke-linejoin:round;stroke-miterlimit:10;stroke-opacity:1;stroke-dasharray:none"
             id="path888" /></g></g></g><g
       id="g5347"
       transform="translate(67.898897,336.00022)"><g
         transform="matrix(0.1,0,0,0.1,-199.64681,-56.785763)"
         id="g890"><g
           id="g892"
           clip-path="url(#clipPath894)"><g
             id="g898"
             transform="scale(10,10)"><text
               transform="matrix(1,0,0,-1,356.083,278.833)"
               id="text900"><tspan
                 style="font-size:10px;font-variant:normal;font-weight:normal;writing-mode:lr-tb;fill:#000000;fill-opacity:1;fill-rule:nonzero;stroke:none;font-family:Helvetica;-inkscape-font-specification:Helvetica"
                 x="0 6.6700001 12.51 19.73"
                 y="0"
                 sodipodi:role="line"
                 id="tspan902">A−RR</tspan></text>
</g></g></g><g
         transform="matrix(0.1,0,0,0.1,-199.64681,-56.785763)"
         id="g904"><g
           id="g906"
           clip-path="url(#clipPath908)"><path
             d="m 3227.5,2779.17 302.5,0 0,89.1641 -302.5,0 0,-89.1641 z"
             style="fill:#00ffff;fill-opacity:1;fill-rule:evenodd;stroke:none"
             id="path912" /><path
             d="m 3227.5,2779.17 0,89.16 302.5,0 0,-89.16 -302.5,0 0,0"
             style="fill:none;stroke:#000000;stroke-width:5;stroke-linecap:butt;stroke-linejoin:round;stroke-miterlimit:10;stroke-opacity:1;stroke-dasharray:none"
             id="path914" /></g></g><g
         transform="matrix(0.1,0,0,0.1,-199.64681,-56.785763)"
         id="g916"><g
           id="g918"
           clip-path="url(#clipPath920)"><g
             id="g924"
             transform="scale(10,10)"><text
               transform="matrix(1,0,0,-1,356.083,266.667)"
               id="text926"><tspan
                 style="font-size:10px;font-variant:normal;font-weight:normal;writing-mode:lr-tb;fill:#000000;fill-opacity:1;fill-rule:nonzero;stroke:none;font-family:Helvetica;-inkscape-font-specification:Helvetica"
                 x="0 7.2199998 13.06 19.73 27.51 33.07"
                 y="0"
                 sodipodi:role="line"
                 id="tspan928">N−POLY</tspan></text>
</g></g></g><g
         transform="matrix(0.1,0,0,0.1,-199.64681,-56.785763)"
         id="g930"><g
           id="g932"
           clip-path="url(#clipPath934)"><path
             d="m 3227.5,2657.5 302.5,0 0,89.168 -302.5,0 0,-89.168 z"
             style="fill:#ff0000;fill-opacity:1;fill-rule:evenodd;stroke:none"
             id="path938" /><path
             d="m 3227.5,2657.5 0,89.17 302.5,0 0,-89.17 -302.5,0 0,0"
             style="fill:none;stroke:#000000;stroke-width:5;stroke-linecap:butt;stroke-linejoin:round;stroke-miterlimit:10;stroke-opacity:1;stroke-dasharray:none"
             id="path940" /></g></g><g
         transform="matrix(0.1,0,0,0.1,-199.64681,-56.785763)"
         id="g942"><g
           id="g944"
           clip-path="url(#clipPath946)"><g
             id="g950"
             transform="scale(10,10)"><text
               transform="matrix(1,0,0,-1,356.083,254.417)"
               id="text952"><tspan
                 style="font-size:10px;font-variant:normal;font-weight:normal;writing-mode:lr-tb;fill:#000000;fill-opacity:1;fill-rule:nonzero;stroke:none;font-family:Helvetica;-inkscape-font-specification:Helvetica"
                 x="0 7.2199998 13.06 19.73 27.51 33.07 39.740002"
                 y="0"
                 sodipodi:role="line"
                 id="tspan954">N−POLYN</tspan></text>
</g></g></g><g
         transform="matrix(0.1,0,0,0.1,-199.64681,-56.785763)"
         id="g956"><g
           id="g958"
           clip-path="url(#clipPath960)"><path
             d="m 3227.5,2535.83 302.5,0 0,89.168 -302.5,0 0,-89.168 z"
             style="fill:#ffcc00;fill-opacity:1;fill-rule:evenodd;stroke:none"
             id="path964" /><path
             d="m 3227.5,2535.83 0,89.17 302.5,0 0,-89.17 -302.5,0 0,0"
             style="fill:none;stroke:#000000;stroke-width:5;stroke-linecap:butt;stroke-linejoin:round;stroke-miterlimit:10;stroke-opacity:1;stroke-dasharray:none"
             id="path966" /></g></g><g
         transform="matrix(0.1,0,0,0.1,-199.64681,-56.785763)"
         id="g968"><g
           id="g970"
           clip-path="url(#clipPath972)"><g
             id="g976"
             transform="scale(10,10)"><text
               transform="matrix(1,0,0,-1,356.083,242.25)"
               id="text978"><tspan
                 style="font-size:10px;font-variant:normal;font-weight:normal;writing-mode:lr-tb;fill:#000000;fill-opacity:1;fill-rule:nonzero;stroke:none;font-family:Helvetica;-inkscape-font-specification:Helvetica"
                 x="0 7.2199998 13.06 19.73 26.4"
                 y="0"
                 sodipodi:role="line"
                 id="tspan980">N−EXP</tspan></text>
</g></g></g><g
         transform="matrix(0.1,0,0,0.1,-199.64681,-56.785763)"
         id="g982"><g
           id="g984"
           clip-path="url(#clipPath986)"><path
             d="m 3227.5,2414.17 302.5,0 0,89.1641 -302.5,0 0,-89.1641 z"
             style="fill:#b200ff;fill-opacity:1;fill-rule:evenodd;stroke:none"
             id="path990" /><path
             d="m 3227.5,2414.17 0,89.16 302.5,0 0,-89.16 -302.5,0 0,0"
             style="fill:none;stroke:#000000;stroke-width:5;stroke-linecap:butt;stroke-linejoin:round;stroke-miterlimit:10;stroke-opacity:1;stroke-dasharray:none"
             id="path992" /></g></g></g><g
       id="g5385"
       transform="translate(158.16568,384.66622)"><g
         transform="matrix(0.1,0,0,0.1,-199.64681,-56.785763)"
         id="g994"><g
           id="g996"
           clip-path="url(#clipPath998)"><g
             id="g1002"
             transform="scale(10,10)"><text
               transform="matrix(1,0,0,-1,356.083,230.083)"
               id="text1004"><tspan
                 style="font-size:10px;font-variant:normal;font-weight:normal;writing-mode:lr-tb;fill:#000000;fill-opacity:1;fill-rule:nonzero;stroke:none;font-family:Helvetica;-inkscape-font-specification:Helvetica"
                 x="0 7.2199998 13.06 20.280001 26.950001"
                 y="0"
                 sodipodi:role="line"
                 id="tspan1006">N−NEU</tspan></text>
</g></g></g><g
         transform="matrix(0.1,0,0,0.1,-199.64681,-56.785763)"
         id="g1008"><g
           id="g1010"
           clip-path="url(#clipPath1012)"><path
             d="m 3227.5,2291.67 302.5,0 0,90 -302.5,0 0,-90 z"
             style="fill:#00ff00;fill-opacity:1;fill-rule:evenodd;stroke:none"
             id="path1016" /><path
             d="m 3227.5,2291.67 0,90 302.5,0 0,-90 -302.5,0 0,0"
             style="fill:none;stroke:#000000;stroke-width:5;stroke-linecap:butt;stroke-linejoin:round;stroke-miterlimit:10;stroke-opacity:1;stroke-dasharray:none"
             id="path1018" /></g></g><g
         transform="matrix(0.1,0,0,0.1,-199.64681,-56.785763)"
         id="g1020"><g
           id="g1022"
           clip-path="url(#clipPath1024)"><g
             id="g1028"
             transform="scale(10,10)"><text
               transform="matrix(1,0,0,-1,356.083,217.917)"
               id="text1030"><tspan
                 style="font-size:10px;font-variant:normal;font-weight:normal;writing-mode:lr-tb;fill:#000000;fill-opacity:1;fill-rule:nonzero;stroke:none;font-family:Helvetica;-inkscape-font-specification:Helvetica"
                 x="0 7.2199998 13.06 20.280001 28.059999"
                 y="0"
                 sodipodi:role="line"
                 id="tspan1032">N−COM</tspan></text>
</g></g></g><g
         transform="matrix(0.1,0,0,0.1,-199.64681,-56.785763)"
         id="g1034"><g
           id="g1036"
           clip-path="url(#clipPath1038)"><path
             d="m 3227.5,2170 302.5,0 0,89.168 -302.5,0 0,-89.168 z"
             style="fill:#00b200;fill-opacity:1;fill-rule:evenodd;stroke:none"
             id="path1042" /><path
             d="m 3227.5,2170 0,89.17 302.5,0 0,-89.17 -302.5,0 0,0"
             style="fill:none;stroke:#000000;stroke-width:5;stroke-linecap:butt;stroke-linejoin:round;stroke-miterlimit:10;stroke-opacity:1;stroke-dasharray:none"
             id="path1044" /></g></g><g
         transform="matrix(0.1,0,0,0.1,-199.64681,-56.785763)"
         id="g1046"><g
           id="g1048"
           clip-path="url(#clipPath1050)"><g
             id="g1054"
             transform="scale(10,10)"><text
               transform="matrix(1,0,0,-1,356.083,205.667)"
               id="text1056"><tspan
                 style="font-size:10px;font-variant:normal;font-weight:normal;writing-mode:lr-tb;fill:#000000;fill-opacity:1;fill-rule:nonzero;stroke:none;font-family:Helvetica;-inkscape-font-specification:Helvetica"
                 x="0 5.5599999 11.4 18.620001 26.4"
                 y="0"
                 sodipodi:role="line"
                 id="tspan1058">L−COM</tspan></text>
</g></g></g><g
         transform="matrix(0.1,0,0,0.1,-199.64681,-56.785763)"
         id="g1060"><g
           id="g1062"
           clip-path="url(#clipPath1064)"><path
             d="m 3227.5,2048.33 302.5,0 0,89.168 -302.5,0 0,-89.168 z"
             style="fill:#0000ff;fill-opacity:1;fill-rule:evenodd;stroke:none"
             id="path1068" /><path
             d="m 3227.5,2048.33 0,89.17 302.5,0 0,-89.17 -302.5,0 0,0"
             style="fill:none;stroke:#000000;stroke-width:5;stroke-linecap:butt;stroke-linejoin:round;stroke-miterlimit:10;stroke-opacity:1;stroke-dasharray:none"
             id="path1070" /></g></g><g
         transform="matrix(0.1,0,0,0.1,-199.64681,-56.785763)"
         id="g1072"><g
           id="g1074"
           clip-path="url(#clipPath1076)"><g
             id="g1080"
             transform="scale(10,10)"><text
               transform="matrix(1,0,0,-1,356.083,193.5)"
               id="text1082"><tspan
                 style="font-size:10px;font-variant:normal;font-weight:normal;writing-mode:lr-tb;fill:#000000;fill-opacity:1;fill-rule:nonzero;stroke:none;font-family:Helvetica;-inkscape-font-specification:Helvetica"
                 x="0 5.5599999 11.4 18.620001 25.290001"
                 y="0"
                 sodipodi:role="line"
                 id="tspan1084">L−REG</tspan></text>
</g></g></g><g
         transform="matrix(0.1,0,0,0.1,-199.64681,-56.785763)"
         id="g1086"><g
           id="g1088"
           clip-path="url(#clipPath1090)"><path
             d="m 3227.5,1926.67 302.5,0 0,89.1641 -302.5,0 0,-89.1641 z"
             style="fill:#00ff00;fill-opacity:1;fill-rule:evenodd;stroke:none"
             id="path1094" /><path
             d="m 3227.5,1926.67 0,89.16 302.5,0 0,-89.16 -302.5,0 0,0"
             style="fill:none;stroke:#000000;stroke-width:5;stroke-linecap:butt;stroke-linejoin:round;stroke-miterlimit:10;stroke-opacity:1;stroke-dasharray:none"
             id="path1096" /></g></g></g><g
       id="g5423"
       transform="translate(237.90247,433.41622)"><g
         transform="matrix(0.1,0,0,0.1,-199.64681,-56.785763)"
         id="g1098"><g
           id="g1100"
           clip-path="url(#clipPath1102)"><g
             id="g1106"
             transform="scale(10,10)"><text
               transform="matrix(1,0,0,-1,356.083,181.333)"
               id="text1108"><tspan
                 style="font-size:10px;font-variant:normal;font-weight:normal;writing-mode:lr-tb;fill:#000000;fill-opacity:1;fill-rule:nonzero;stroke:none;font-family:Helvetica;-inkscape-font-specification:Helvetica"
                 x="0 5.5599999 11.4 18.620001 25.290001 31.959999"
                 y="0"
                 sodipodi:role="line"
                 id="tspan1110">L−HEAT</tspan></text>
</g></g></g><g
         transform="matrix(0.1,0,0,0.1,-199.64681,-56.785763)"
         id="g1112"><g
           id="g1114"
           clip-path="url(#clipPath1116)"><path
             d="m 3227.5,1805 302.5,0 0,89.168 -302.5,0 0,-89.168 z"
             style="fill:#ff00ff;fill-opacity:1;fill-rule:evenodd;stroke:none"
             id="path1120" /><path
             d="m 3227.5,1805 0,89.17 302.5,0 0,-89.17 -302.5,0 0,0"
             style="fill:none;stroke:#000000;stroke-width:5;stroke-linecap:butt;stroke-linejoin:round;stroke-miterlimit:10;stroke-opacity:1;stroke-dasharray:none"
             id="path1122" /></g></g><g
         transform="matrix(0.1,0,0,0.1,-199.64681,-56.785763)"
         id="g1124"><g
           id="g1126"
           clip-path="url(#clipPath1128)"><g
             id="g1132"
             transform="scale(10,10)"><text
               transform="matrix(1,0,0,-1,356.083,169.167)"
               id="text1134"><tspan
                 style="font-size:10px;font-variant:normal;font-weight:normal;writing-mode:lr-tb;fill:#000000;fill-opacity:1;fill-rule:nonzero;stroke:none;font-family:Helvetica;-inkscape-font-specification:Helvetica"
                 x="0 5.5599999 11.4 18.07 25.85 31.41"
                 y="0"
                 sodipodi:role="line"
                 id="tspan1136">L−POLY</tspan></text>
</g></g></g><g
         transform="matrix(0.1,0,0,0.1,-199.64681,-56.785763)"
         id="g1138"><g
           id="g1140"
           clip-path="url(#clipPath1142)"><path
             d="m 3227.5,1682.5 302.5,0 0,90 -302.5,0 0,-90 z"
             style="fill:#ff0000;fill-opacity:1;fill-rule:evenodd;stroke:none"
             id="path1146" /><path
             d="m 3227.5,1682.5 0,90 302.5,0 0,-90 -302.5,0 0,0"
             style="fill:none;stroke:#000000;stroke-width:5;stroke-linecap:butt;stroke-linejoin:round;stroke-miterlimit:10;stroke-opacity:1;stroke-dasharray:none"
             id="path1148" /></g></g><g
         transform="matrix(0.1,0,0,0.1,-199.64681,-56.785763)"
         id="g1150"><g
           id="g1152"
           clip-path="url(#clipPath1154)"><g
             id="g1158"
             transform="scale(10,10)"><text
               transform="matrix(1,0,0,-1,356.083,156.917)"
               id="text1160"><tspan
                 style="font-size:10px;font-variant:normal;font-weight:normal;writing-mode:lr-tb;fill:#000000;fill-opacity:1;fill-rule:nonzero;stroke:none;font-family:Helvetica;-inkscape-font-specification:Helvetica"
                 x="0 6.6700001 12.51 19.18 26.959999"
                 y="0"
                 sodipodi:role="line"
                 id="tspan1162">X−SQU</tspan></text>
</g></g></g><g
         transform="matrix(0.1,0,0,0.1,-199.64681,-56.785763)"
         id="g1164"><g
           id="g1166"
           clip-path="url(#clipPath1168)"><path
             d="m 3227.5,1560.83 302.5,0 0,89.168 -302.5,0 0,-89.168 z"
             style="fill:#999999;fill-opacity:1;fill-rule:evenodd;stroke:none"
             id="path1172" /><path
             d="m 3227.5,1560.83 0,89.17 302.5,0 0,-89.17 -302.5,0 0,0"
             style="fill:none;stroke:#000000;stroke-width:5;stroke-linecap:butt;stroke-linejoin:round;stroke-miterlimit:10;stroke-opacity:1;stroke-dasharray:none"
             id="path1174" /></g></g><g
         transform="matrix(0.1,0,0,0.1,-199.64681,-56.785763)"
         id="g1176"><g
           id="g1178"
           clip-path="url(#clipPath1180)"><g
             id="g1184"
             transform="scale(10,10)"><text
               transform="matrix(1,0,0,-1,356.083,144.75)"
               id="text1186"><tspan
                 style="font-size:10px;font-variant:normal;font-weight:normal;writing-mode:lr-tb;fill:#000000;fill-opacity:1;fill-rule:nonzero;stroke:none;font-family:Helvetica;-inkscape-font-specification:Helvetica"
                 x="0 6.6700001 12.51 19.18 25.85"
                 y="0"
                 sodipodi:role="line"
                 id="tspan1188">X−ABS</tspan></text>
</g></g></g><g
         transform="matrix(0.1,0,0,0.1,-199.64681,-56.785763)"
         id="g1190"><g
           id="g1192"
           clip-path="url(#clipPath1194)"><path
             d="m 3227.5,1439.17 302.5,0 0,89.1641 -302.5,0 0,-89.1641 z"
             style="fill:#e6e6e6;fill-opacity:1;fill-rule:evenodd;stroke:none"
             id="path1198" /><path
             d="m 3227.5,1439.17 0,89.16 302.5,0 0,-89.16 -302.5,0 0,0"
             style="fill:none;stroke:#000000;stroke-width:5;stroke-linecap:butt;stroke-linejoin:round;stroke-miterlimit:10;stroke-opacity:1;stroke-dasharray:none"
             id="path1200" /></g></g></g></g></svg>